<?xml version="1.0" encoding="utf-8"?>
<!-- Generator: Adobe Illustrator 27.0.0, SVG Export Plug-In . SVG Version: 6.00 Build 0)  -->
<svg version="1.1" id="Layer_1" xmlns="http://www.w3.org/2000/svg" xmlns:xlink="http://www.w3.org/1999/xlink" x="0px" y="0px"
	 viewBox="0 0 301 126" style="enable-background:new 0 0 301 126;" xml:space="preserve">
<style type="text/css">
	.st0{fill:#FFFFFF;}
	.st1{fill:#FFFFFF;stroke:#000000;stroke-width:0.25;stroke-miterlimit:10;}
	.st2{fill:#554BA0;}
	.st3{opacity:0.41;}
	.st4{clip-path:url(#SVGID_00000116213471349540972010000005669161810194829978_);}
	.st5{clip-path:url(#SVGID_00000165213460989753162950000001138235709237114004_);}
	.st6{opacity:0.73;}
	.st7{clip-path:url(#SVGID_00000165213460989753162950000001138235709237114004_);fill:#FFFFFF;}
	.st8{clip-path:url(#SVGID_00000165213460989753162950000001138235709237114004_);fill:#F84143;}
	.st9{fill-rule:evenodd;clip-rule:evenodd;fill:#554BA0;}
	.st10{fill-rule:evenodd;clip-rule:evenodd;fill:#231F20;}
	.st11{fill:none;}
	.st12{fill:#F84143;}
	.st13{fill-rule:evenodd;clip-rule:evenodd;fill:#FFFFFF;}
	.st14{fill:#FFFFFF;}
	.st15{fill:#5E5E5E;}
	.st16{fill:#F2722C;}
	.st17{fill:#F7951F;}
	.st18{fill:#8FBD6D;}
	.st19{fill:#43A98A;}
	.st20{fill:#57758F;}
	.st21{fill:#F8C64F;}
	.st22{fill:#040213;}
	.st23{fill-rule:evenodd;clip-rule:evenodd;fill:#F0B505;}
	.st24{fill-rule:evenodd;clip-rule:evenodd;}
	.st25{fill:#F0B505;}
	.st26{fill-rule:evenodd;clip-rule:evenodd;fill:#FFFFFF;}
	.st27{opacity:0.51;}
	.st28{clip-path:url(#SVGID_00000134220762243985611330000001035626770909245089_);}
	.st29{clip-path:url(#SVGID_00000108292599667765345800000007474171390986575278_);}
	.st30{clip-path:url(#SVGID_00000108292599667765345800000007474171390986575278_);fill:#FFFFFF;}
	.st31{clip-path:url(#SVGID_00000108292599667765345800000007474171390986575278_);fill:#F84143;}
	.st32{opacity:0.75;}
	.st33{fill:url(#SVGID_00000122678233149904160810000000001460458718600577_);}
	.st34{fill:url(#SVGID_00000009581608444912328280000018243476383558822319_);}
	.st35{fill:url(#SVGID_00000098941446173776592710000013327009326013410440_);}
	.st36{fill:url(#SVGID_00000054984455468341568070000010212039627471330453_);}
	.st37{fill:url(#SVGID_00000177478850371437330280000004805626255646914444_);}
	.st38{fill:url(#SVGID_00000168103766261307530140000015069073333632282775_);}
	.st39{fill-rule:evenodd;clip-rule:evenodd;fill:#F84143;}
	.st40{opacity:0.3;}
</style>
<path class="st0" d="M107.32,63.51V34.6c0-8.3,4.31-13.53,12.46-14.1c8.15-0.57,12.46,4.05,12.46,12.35v5.69l-8,0.56v-6.23
	c0-3.54-1.69-4.88-4.23-4.7c-2.54,0.18-4.23,1.76-4.23,5.29v30.06c0,3.54,1.69,4.8,4.23,4.62c2.54-0.18,4.23-1.68,4.23-5.22v-8.23
	l8-0.56v7.61c0,8.3-4.3,13.53-12.46,14.1C111.62,76.43,107.32,71.81,107.32,63.51z"/>
<path class="st0" d="M136.84,61.13V32.84c0-8.61,4.54-13.85,12.84-14.43s12.84,4.02,12.84,12.63v28.29
	c0,8.61-4.54,13.85-12.84,14.43S136.84,69.75,136.84,61.13z M154.06,60.47V31.1c0-3.84-1.69-5.19-4.38-5
	c-2.69,0.19-4.38,1.77-4.38,5.61v29.37c0,3.84,1.69,5.19,4.38,5C152.37,65.89,154.06,64.31,154.06,60.47z"/>
<path class="st0" d="M174.52,25.13l-8.84,0.62v-7.69l26.14-1.83v7.69l-8.84,0.62v46.13l-8.46,0.59V25.13z"/>
<path class="st0" d="M203.27,23.12l-8.84,0.62v-7.69l26.14-1.83v7.69l-8.84,0.62v46.13l-8.46,0.59V23.12z"/>
<path class="st0" d="M224.65,13.94l8.46-0.59v53.82l-8.46,0.59V13.94z"/>
<path class="st0" d="M237.95,54.07v-3.08l8-0.56v3.69c0,3.84,1.69,5.11,4.38,4.92c2.69-0.19,4.38-1.69,4.38-5.69
	c0-4.46-1.69-7.19-7.23-11.64c-7.07-5.73-9.38-9.95-9.38-16.11c0-8.46,4.38-13.68,12.61-14.26c8.23-0.58,12.3,4.06,12.3,12.67v2.23
	l-8,0.56v-2.77c0-3.84-1.54-5.2-4.23-5.01c-2.69,0.19-4.23,1.76-4.23,5.45c0,3.92,1.77,6.64,7.3,11.1c7.07,5.73,9.3,9.88,9.3,16.57
	c0,8.76-4.46,14-12.76,14.58C242.1,67.31,237.95,62.68,237.95,54.07z"/>
<path class="st0" d="M268.01,10.9l8.46-0.59v21.91l9.07-0.63V9.68l8.46-0.59v53.82l-8.46,0.59V39.28l-9.07,0.63v24.22l-8.46,0.59
	V10.9z"/>
<path class="st0" d="M93.71,46.77c-5.54-4.46-7.3-7.18-7.3-11.1c0-3.69,1.54-5.26,4.23-5.45c2.69-0.19,4.23,1.17,4.23,5.01v2.77
	l8-0.56v-2.23c0-8.61-4.07-13.25-12.3-12.67c-8.23,0.58-12.61,5.8-12.61,14.26c0,6.15,2.31,10.37,9.38,16.11
	c5.54,4.46,7.23,7.18,7.23,11.64c0,4-1.69,5.5-4.38,5.69c-2.69,0.19-4.38-1.08-4.38-4.92v-3.69l-7.47,0.52
	c0.09,0.36,0.18,0.73,0.26,1.09c0.53,2.22,1.06,4.44,1.62,6.66c0.5,1.96,1.01,3.93,1.55,5.91c2.04,1.63,4.87,2.37,8.5,2.11
	c8.3-0.58,12.76-5.81,12.76-14.58C103.01,56.66,100.78,52.51,93.71,46.77z"/>
<linearGradient id="SVGID_00000021099435290629284960000013160252656261809326_" gradientUnits="userSpaceOnUse" x1="75.123" y1="141.0081" x2="75.123" y2="112.0252">
	<stop  offset="0.6145" style="stop-color:#FFFFFF;stop-opacity:0"/>
	<stop  offset="1" style="stop-color:#FFFFFF"/>
</linearGradient>
<path style="fill:url(#SVGID_00000021099435290629284960000013160252656261809326_);" d="M58.09,117.29l-0.11,1.98l5.49,0.33
	c0,0,2.31,1.54-1.54,2.31s-4.61,1.54-4.61,1.54v2.31h14.61c0,0-6.92-2.31-2.31-3.08c0,0,6.15-0.77,15.38-1.54l0.77-2.31h-12.3
	c0,0-2.47-1.36,0.69-1.83c3.16-0.47,13.42-0.51,13.42-0.51l1.27-1.5l-5.38-0.77c0,0-0.87-1.61,1.1-1.58l5.87,0l2.49-3.72
	l-33.55-0.12l-0.52,2.34h14.61c0,0,2.31,0.77-1.54,1.54c-3.84,0.77-13.94,0-13.94,0v2.26h9.55c0,0,2.67,1.5-1.46,1.54"/>
<linearGradient id="SVGID_00000139985555384671703360000001100779252124909459_" gradientUnits="userSpaceOnUse" x1="162.8762" y1="127.9751" x2="162.8762" y2="110.0397">
	<stop  offset="0" style="stop-color:#FFFFFF;stop-opacity:0"/>
	<stop  offset="1" style="stop-color:#FFFFFF"/>
</linearGradient>
<path style="fill:url(#SVGID_00000139985555384671703360000001100779252124909459_);" d="M107.82,108.84l110.1,0.23l-1.5,1.5H192.9
	h-1.96c0,0-0.86,1.34,2.22,1.34h20.88l-1.66,1.54l-40.75,0.77c0,0-5.38,0.77,0,1.54l35.36,1.52l-3.84,2.32h-13.78
	c0,0-0.83,1.54,0.71,1.54c1.54,0,1.54,0,1.54,0l9.99,0.77l-5.78,3.84h-54.63l-5.32-2.69l29.22-0.77c0,0,12.3-0.77-10.76-1.54
	s-23.06,0-23.06,0l-3.84-2.31l3.8-1.15c0,0,0.82-1.92-9.18-1.15l-3.84-2.31l33.06-0.77l-37.67-1.54L107.82,108.84z"/>
<linearGradient id="SVGID_00000129889259803949772650000002467062767409807277_" gradientUnits="userSpaceOnUse" x1="273.427" y1="127.4898" x2="273.427" y2="98.5068">
	<stop  offset="0.2678" style="stop-color:#FFFFFF;stop-opacity:0"/>
	<stop  offset="0.6068" style="stop-color:#FFFFFF"/>
</linearGradient>
<path style="fill:url(#SVGID_00000129889259803949772650000002467062767409807277_);" d="M254.5,108.8h37.85l-2.54,3.88
	c0,0-28.45,0-5.38,3.08l-0.28,1.54c0,0-26.63-1.54-5.1,1.54h-12.72l-2.15-1.54c0,0,14.87-0.77-2.81-2.31l-2.08-1.17
	c0,0,22.07-4.21-2.53-2.67L254.5,108.8z"/>
<path class="st0" d="M93.3,108.91c-0.99,0.05-1.74,0.12-2.48,0.12c-9.58,0.01-19.16-0.04-28.75,0.05c-1.67,0.01-2.45-0.49-2.7-2.12
	c-1.4-9.24-2.94-18.45-4.25-27.7c-1.32-9.39-1.99-18.89-5.12-27.94c-1.22-3.52-2.77-6.91-5.88-9.16c-1.08-0.78-2.77-1.33-4.05-1.14
	c-7.28,1.1-14.52,2.5-21.79,3.71c-2.29,0.38-4.63,0.48-6.95,0.7c-0.08-0.2-0.16-0.4-0.25-0.6c2.52-1.25,5.04-2.49,7.56-3.74
	c-0.02-0.15-0.04-0.3-0.05-0.44c-1.74,0.22-3.5,0.35-5.22,0.68c-1.95,0.37-3.88,0.86-5.79,1.38c-1.7,0.46-2.32-0.17-2.38-1.87
	c-0.09-2.79,0.89-5.21,2.62-7.22c9.28-10.8,20.97-15.96,35.34-15.12c13.44,0.79,20.48,9.41,25.53,20.45
	c4.6,10.05,6.61,20.89,9.31,31.52c2.21,8.7,4.73,17.34,7.45,25.9c1.4,4.4,3.95,8.31,7.27,11.63
	C92.92,108.16,93.01,108.42,93.3,108.91z"/>
<path class="st0" d="M107.56,108.8c10.96-5.42,22.24-11.36,33.85-16.58c5.71-2.57,11.93-4.26,18.08-5.53
	c5.82-1.2,11.84-1.12,17.81-0.2c16.09,2.47,28.62,11.31,40.63,22.31C180.61,108.8,143.8,108.8,107.56,108.8z"/>
<path class="st0" d="M292.44,108.91c-12.86,0-25.23,0-38.06,0c5.17-4.62,9.78-9.33,16.3-11.29c4.35-1.31,8.43-0.38,12.21,1.96
	C286.6,101.89,289.55,105,292.44,108.91z"/>
</svg>
