<?xml version="1.0" encoding="utf-8"?>
<!-- Generator: Adobe Illustrator 27.0.0, SVG Export Plug-In . SVG Version: 6.00 Build 0)  -->
<svg version="1.1" id="Layer_1" xmlns="http://www.w3.org/2000/svg" xmlns:xlink="http://www.w3.org/1999/xlink" x="0px" y="0px"
	 viewBox="0 0 163 191" style="enable-background:new 0 0 163 191;" xml:space="preserve">
<style type="text/css">
	.st0{fill:#FFFFFF;stroke:#000000;stroke-width:0.25;stroke-miterlimit:10;}
	.st1{fill:#554BA0;}
	.st2{fill-rule:evenodd;clip-rule:evenodd;fill:#FFFFFF;}
	.st3{fill:#FFFFFF;}
	.st4{fill:#5E5E5E;}
	.st5{fill:none;}
	.st6{fill:#57758F;}
	.st7{fill:#F8C64F;}
	.st8{fill:#FFEEDE;}
	.st9{fill:#333333;}
	.st10{fill-rule:evenodd;clip-rule:evenodd;fill:#FFEEDE;}
	.st11{fill:#FFC550;}
	.st12{fill:#FF9522;}
	.st13{opacity:0.41;}
	.st14{clip-path:url(#SVGID_00000136406658886829361490000016049790436793020816_);}
	.st15{clip-path:url(#SVGID_00000003812734398025221480000018366059716754801550_);}
	.st16{opacity:0.73;}
	.st17{opacity:0.75;}
	.st18{fill:#FFFFFF;stroke:#000000;stroke-miterlimit:10;}
	.st19{fill:url(#SVGID_00000005948968161748129940000005462003826896445609_);}
	.st20{fill:url(#SVGID_00000119802463686637693350000010268185400028645055_);}
	.st21{fill:url(#SVGID_00000175296178904777056120000006756050078108272782_);}
	.st22{opacity:0.3;}
	.st23{opacity:0.51;}
	.st24{fill:none;stroke:#000000;stroke-miterlimit:10;}
	.st25{fill:#F84143;}
	.st26{clip-path:url(#SVGID_00000019654832676504945560000001153602028246708885_);}
	.st27{clip-path:url(#SVGID_00000023978195978159633980000000638915133581253550_);}
	.st28{clip-path:url(#SVGID_00000023978195978159633980000000638915133581253550_);fill:#FFEEDE;}
	.st29{clip-path:url(#SVGID_00000023978195978159633980000000638915133581253550_);fill:#F84143;}
	.st30{fill:url(#SVGID_00000052800683883075787890000003092163994869080723_);}
	.st31{fill:url(#SVGID_00000171709715800744108440000009542958877893186488_);}
	.st32{fill:url(#SVGID_00000048494257921723533450000016634104985565155516_);}
	.st33{fill-rule:evenodd;clip-rule:evenodd;fill:#F84143;}
	.st34{fill-rule:evenodd;clip-rule:evenodd;fill:#231F20;}
	.st35{fill:#040213;}
	.st36{fill-rule:evenodd;clip-rule:evenodd;}
	.st37{clip-path:url(#SVGID_00000147184360716525479700000010699151369759604364_);}
	.st38{clip-path:url(#SVGID_00000082369312937767808220000012101444450630377349_);}
	.st39{clip-path:url(#SVGID_00000082369312937767808220000012101444450630377349_);fill:#FFEEDE;}
	.st40{clip-path:url(#SVGID_00000082369312937767808220000012101444450630377349_);fill:#F84143;}
	.st41{fill-rule:evenodd;clip-rule:evenodd;fill:#554BA0;}
	.st42{fill:#FFFEFF;}
	.st43{fill:#FF434D;}
	.st44{fill:#8FBD6D;}
	.st45{fill:#5D8AD1;}
	.st46{clip-path:url(#SVGID_00000003098954098603931760000008085154453985462418_);}
	.st47{opacity:0.73;clip-path:url(#SVGID_00000152241782996912178630000016597272502410576540_);}
	.st48{opacity:0.45;clip-path:url(#SVGID_00000152241782996912178630000016597272502410576540_);}
	.st49{clip-path:url(#SVGID_00000152241782996912178630000016597272502410576540_);fill:#FFEEDE;}
	.st50{clip-path:url(#SVGID_00000152241782996912178630000016597272502410576540_);fill:#F84143;}
	.st51{fill-rule:evenodd;clip-rule:evenodd;fill:#FF9522;}
	.st52{fill-rule:evenodd;clip-rule:evenodd;fill:#333333;}
	.st53{opacity:0.38;}
	.st54{clip-path:url(#SVGID_00000182512594622723694300000014283650440551080119_);}
	.st55{opacity:0.73;clip-path:url(#SVGID_00000133515259455303583380000016020600448310932127_);}
	.st56{opacity:0.45;clip-path:url(#SVGID_00000133515259455303583380000016020600448310932127_);}
	.st57{clip-path:url(#SVGID_00000133515259455303583380000016020600448310932127_);fill:#FFEEDE;}
	.st58{clip-path:url(#SVGID_00000133515259455303583380000016020600448310932127_);fill:#F84143;}
	.st59{fill-rule:evenodd;clip-rule:evenodd;fill:#FFC550;}
	.st60{opacity:0.19;}
	.st61{clip-path:url(#SVGID_00000058559236284323284970000014851456400741222333_);}
	.st62{clip-path:url(#SVGID_00000176037053913678278230000003672772692298316463_);}
	.st63{clip-path:url(#SVGID_00000176037053913678278230000003672772692298316463_);fill:#FFEEDE;}
	.st64{clip-path:url(#SVGID_00000176037053913678278230000003672772692298316463_);fill:#F84143;}
	.st65{clip-path:url(#SVGID_00000148626522312593774310000015649711352427767180_);}
	.st66{opacity:0.73;clip-path:url(#SVGID_00000030474692654641124590000014644463279180042660_);}
	.st67{opacity:0.45;clip-path:url(#SVGID_00000030474692654641124590000014644463279180042660_);}
	.st68{clip-path:url(#SVGID_00000030474692654641124590000014644463279180042660_);fill:#FFEEDE;}
	.st69{clip-path:url(#SVGID_00000030474692654641124590000014644463279180042660_);fill:#F84143;}
	.st70{fill:#5B5B5B;}
	.st71{clip-path:url(#SVGID_00000072979456088239694800000003145103907712620952_);}
	.st72{opacity:0.73;clip-path:url(#SVGID_00000109741577320477162970000017578948995936569520_);}
	.st73{opacity:0.45;clip-path:url(#SVGID_00000109741577320477162970000017578948995936569520_);}
	.st74{clip-path:url(#SVGID_00000109741577320477162970000017578948995936569520_);fill:#FFEEDE;}
	.st75{clip-path:url(#SVGID_00000109741577320477162970000017578948995936569520_);fill:#F84143;}
	.st76{clip-path:url(#SVGID_00000066499090353756926540000010566699985771194799_);}
	.st77{opacity:0.73;clip-path:url(#SVGID_00000061448260200160480380000007177876589023294383_);}
	.st78{opacity:0.45;clip-path:url(#SVGID_00000061448260200160480380000007177876589023294383_);}
	.st79{clip-path:url(#SVGID_00000061448260200160480380000007177876589023294383_);fill:#FFEEDE;}
	.st80{clip-path:url(#SVGID_00000061448260200160480380000007177876589023294383_);fill:#F84143;}
	.st81{clip-path:url(#SVGID_00000160874393574645021880000006961638237934350730_);}
	.st82{opacity:0.73;clip-path:url(#SVGID_00000144297887408420873120000015627964597195181475_);}
	.st83{opacity:0.45;clip-path:url(#SVGID_00000144297887408420873120000015627964597195181475_);}
	.st84{clip-path:url(#SVGID_00000144297887408420873120000015627964597195181475_);fill:#FFEEDE;}
	.st85{clip-path:url(#SVGID_00000144297887408420873120000015627964597195181475_);fill:#F84143;}
	.st86{fill-rule:evenodd;clip-rule:evenodd;fill:#5D8AD1;}
	.st87{clip-path:url(#SVGID_00000034088429922256403030000002550436886194216119_);}
	.st88{opacity:0.73;clip-path:url(#SVGID_00000067197202270835199970000002797773276980177830_);}
	.st89{opacity:0.45;clip-path:url(#SVGID_00000067197202270835199970000002797773276980177830_);}
	.st90{clip-path:url(#SVGID_00000067197202270835199970000002797773276980177830_);fill:#FFEEDE;}
	.st91{clip-path:url(#SVGID_00000067197202270835199970000002797773276980177830_);fill:#F84143;}
	.st92{clip-path:url(#SVGID_00000130617709589703003390000012834886307971910066_);}
	.st93{opacity:0.73;clip-path:url(#SVGID_00000100371551222340810560000002099696007575884472_);}
	.st94{opacity:0.45;clip-path:url(#SVGID_00000100371551222340810560000002099696007575884472_);}
	.st95{clip-path:url(#SVGID_00000100371551222340810560000002099696007575884472_);fill:#FFEEDE;}
	.st96{clip-path:url(#SVGID_00000100371551222340810560000002099696007575884472_);fill:#F84143;}
	.st97{clip-path:url(#SVGID_00000099636412807926501860000005189201687473381256_);}
	.st98{opacity:0.73;clip-path:url(#SVGID_00000168114891389911089110000014360008590158392249_);}
	.st99{opacity:0.45;clip-path:url(#SVGID_00000168114891389911089110000014360008590158392249_);}
	.st100{clip-path:url(#SVGID_00000168114891389911089110000014360008590158392249_);fill:#FFEEDE;}
	.st101{clip-path:url(#SVGID_00000168114891389911089110000014360008590158392249_);fill:#F84143;}
	.st102{fill-rule:evenodd;clip-rule:evenodd;fill:#8FBD6D;}
	.st103{clip-path:url(#SVGID_00000156579507109902705180000010478843505657549472_);}
	.st104{opacity:0.73;clip-path:url(#SVGID_00000038387854461720576180000011414144136959508146_);}
	.st105{opacity:0.45;clip-path:url(#SVGID_00000038387854461720576180000011414144136959508146_);}
	.st106{clip-path:url(#SVGID_00000038387854461720576180000011414144136959508146_);fill:#FFEEDE;}
	.st107{clip-path:url(#SVGID_00000038387854461720576180000011414144136959508146_);fill:#F84143;}
	.st108{fill-rule:evenodd;clip-rule:evenodd;fill:#5B5B5B;}
</style>
<g>
	<path class="st3" d="M2,78.72L23.97,23.1l-20.9,1.46V13.79l33.61-2.35V22L14.71,77.62l21.98-1.54v10.77L2,89.28V78.72z"/>
	<path class="st3" d="M125.02,62.79V23.15c0-12.07,6.36-19.4,17.99-20.22C154.64,2.11,161,8.56,161,20.63v39.64
		c0,12.07-6.36,19.4-17.99,20.22C131.38,81.31,125.02,74.86,125.02,62.79z M149.15,61.86V20.71c0-5.39-2.37-7.27-6.14-7.01
		c-3.77,0.26-6.14,2.48-6.14,7.86v41.15c0,5.39,2.37,7.27,6.14,7C146.78,69.46,149.15,67.24,149.15,61.86z"/>
	<path class="st3" d="M75.68,78.1v-4.75l-20.47,1.43V51.62l16.27-1.14V39.71l-16.27,1.14V20.92l20.47-1.43V8.71l-32.32,2.26v75.41
		l9.17-0.64C59.46,81.65,67.3,78.97,75.68,78.1z"/>
	<g>
		<path class="st3" d="M70.62,125.39c-1.15,0-1.87,0.62-1.87,2.26v12.52c0,1.64,0.72,2.26,1.87,2.26s1.87-0.62,1.87-2.26v-12.52
			C72.49,126.02,71.76,125.39,70.62,125.39z"/>
		<path class="st3" d="M99.12,124.44v3.54c0,0.7,0.28,0.93,0.78,0.93c0.48,0,0.78-0.24,0.78-0.93v-3.54c0-0.7-0.3-0.93-0.78-0.93
			C99.4,123.51,99.12,123.74,99.12,124.44z"/>
		<path class="st3" d="M81.6,82.13c-29.27,0-53.01,23.73-53.01,53.01s23.73,53.01,53.01,53.01c29.27,0,53.01-23.73,53.01-53.01
			S110.87,82.13,81.6,82.13z M81.6,95.75c16.09,0,29.92,9.64,36.03,23.47l-0.21-0.18c-23.88-5.08-47.76-5.08-71.64,0l-0.21,0.18
			C51.68,105.39,65.51,95.75,81.6,95.75z M102.2,124.53v3.37c0,1.52-0.8,2.41-2.3,2.41c-1.5,0-2.3-0.89-2.3-2.41v-3.37
			c0-1.52,0.8-2.41,2.3-2.41C101.4,122.11,102.2,123.01,102.2,124.53z M42.21,135.13c0-0.41,0.01-0.82,0.02-1.23
			c11.2,3.85,27.57,13.91,33.05,40.11C56.53,170.99,42.21,154.74,42.21,135.13z M76.09,139.95c0,3.67-1.93,5.77-5.47,5.77
			c-3.54,0-5.47-2.1-5.47-5.77v-12.06c0-3.67,1.93-5.77,5.47-5.77c3.54,0,5.47,2.1,5.47,5.77V139.95z M81.99,145.39h-3.48v-3.48
			h3.48V145.39z M84.42,139.95v-12.06c0-3.67,1.93-5.77,5.47-5.77c3.54,0,5.47,2.1,5.47,5.77v12.06c0,3.67-1.93,5.77-5.47,5.77
			C86.35,145.72,84.42,143.62,84.42,139.95z M87.91,174.01c5.48-26.2,21.85-36.26,33.05-40.11c0.01,0.41,0.02,0.82,0.02,1.23
			C120.98,154.74,106.66,170.99,87.91,174.01z"/>
		<path class="st3" d="M91.76,140.18v-12.52c0-1.64-0.72-2.26-1.87-2.26c-1.15,0-1.87,0.62-1.87,2.26v12.52
			c0,1.64,0.72,2.26,1.87,2.26C91.04,142.44,91.76,141.82,91.76,140.18z"/>
	</g>
	<path class="st3" d="M94.32,79.24V50.5l4.09-0.29c5.39-0.38,7.43,1.74,7.43,8.74v13.79c0,6.14,0.43,7.3,1.08,9.19l12.07-0.84
		c-1.18-2.72-1.29-5.4-1.29-9.07V58.78c0-8.51-1.94-13.98-7.86-15.39v-0.22c5.28-2.52,7.76-7.65,7.76-15.41v-4.63
		c0-11.63-5.28-16.97-17.56-16.12L82.47,8.24v69.58C86.54,77.88,90.5,78.37,94.32,79.24z M94.32,18.18l5.39-0.38
		c4.2-0.29,6.03,1.95,6.03,7.33v5.82c0,6.03-2.69,8.16-7.11,8.47l-4.31,0.3V18.18z"/>
</g>
</svg>
