<?xml version="1.0" encoding="utf-8"?>
<!-- Generator: Adobe Illustrator 27.0.0, SVG Export Plug-In . SVG Version: 6.00 Build 0)  -->
<svg version="1.1" id="Layer_1" xmlns="http://www.w3.org/2000/svg" xmlns:xlink="http://www.w3.org/1999/xlink" x="0px" y="0px"
	 viewBox="0 0 50 50" style="enable-background:new 0 0 50 50;" xml:space="preserve">
<style type="text/css">
	.st0{fill-rule:evenodd;clip-rule:evenodd;fill:#FFFFFF;}
</style>
<path class="st0" d="M3.6,25c0,11.8,9.6,21.4,21.4,21.4S46.4,36.8,46.4,25S36.8,3.6,25,3.6S3.6,13.2,3.6,25z M49.5,25
	c0,13.5-10.9,24.5-24.5,24.5S0.5,38.5,0.5,25S11.5,0.5,25,0.5S49.5,11.5,49.5,25z M26.5,35.7c0,0.8-0.7,1.5-1.5,1.5
	c-0.8,0-1.5-0.7-1.5-1.5V18l-6.6,6.6c-0.6,0.6-1.6,0.6-2.2,0c-0.6-0.6-0.6-1.6,0-2.2l9.2-9.2c0.6-0.6,1.6-0.6,2.2,0c0,0,0,0,0,0
	l9.2,9.2c0.6,0.6,0.6,1.6,0,2.2c-0.6,0.6-1.6,0.6-2.2,0L26.5,18V35.7z"/>
</svg>
