<?xml version="1.0" encoding="utf-8"?>
<!-- Generator: Adobe Illustrator 27.0.0, SVG Export Plug-In . SVG Version: 6.00 Build 0)  -->
<svg version="1.1" id="Layer_1" xmlns="http://www.w3.org/2000/svg" xmlns:xlink="http://www.w3.org/1999/xlink" x="0px" y="0px"
	 viewBox="0 0 822 491" style="enable-background:new 0 0 822 491;" xml:space="preserve">
<style type="text/css">
	.st0{fill:#FFEEDE;}
	.st1{fill:#FFFFFF;stroke:#000000;stroke-width:0.25;stroke-miterlimit:10;}
	.st2{fill:#554BA0;}
	.st3{opacity:0.41;}
	.st4{clip-path:url(#SVGID_00000075860060873749949100000011828748500647300529_);}
	.st5{clip-path:url(#SVGID_00000048460049523298450240000007375109564173639560_);}
	.st6{opacity:0.73;}
	.st7{clip-path:url(#SVGID_00000048460049523298450240000007375109564173639560_);fill:#FFEEDE;}
	.st8{clip-path:url(#SVGID_00000048460049523298450240000007375109564173639560_);fill:#F84143;}
	.st9{fill-rule:evenodd;clip-rule:evenodd;fill:#554BA0;}
	.st10{fill-rule:evenodd;clip-rule:evenodd;fill:#231F20;}
	.st11{fill:none;}
	.st12{fill:#F84143;}
	.st13{fill-rule:evenodd;clip-rule:evenodd;fill:#FFFFFF;}
	.st14{fill:#FFFFFF;}
	.st15{fill:#5E5E5E;}
	.st16{fill:#F2722C;}
	.st17{fill:#F7951F;}
	.st18{fill:#8FBD6D;}
	.st19{fill:#43A98A;}
	.st20{fill:#57758F;}
	.st21{fill:#F8C64F;}
	.st22{fill:#040213;}
	.st23{fill-rule:evenodd;clip-rule:evenodd;fill:#F0B505;}
	.st24{fill-rule:evenodd;clip-rule:evenodd;}
	.st25{fill:#F0B505;}
	.st26{fill-rule:evenodd;clip-rule:evenodd;fill:#FFEEDE;}
	.st27{opacity:0.51;}
	.st28{clip-path:url(#SVGID_00000085947141180348879940000012018372857266576047_);}
	.st29{clip-path:url(#SVGID_00000005263078482496250620000009166892886307185819_);}
	.st30{clip-path:url(#SVGID_00000005263078482496250620000009166892886307185819_);fill:#FFEEDE;}
	.st31{clip-path:url(#SVGID_00000005263078482496250620000009166892886307185819_);fill:#F84143;}
	.st32{opacity:0.75;}
	.st33{fill:url(#SVGID_00000054235386607136934360000011666243010136884363_);}
	.st34{fill:url(#SVGID_00000059310201012648633050000012489869163885613440_);}
	.st35{fill:url(#SVGID_00000049193336943326557220000001713987721903173025_);}
	.st36{fill:url(#SVGID_00000028305529489454041130000017095167049639589519_);}
	.st37{fill:url(#SVGID_00000101824406667737695890000007551655300997878421_);}
	.st38{fill:url(#SVGID_00000121275335593833630990000001547706015455395223_);}
	.st39{fill-rule:evenodd;clip-rule:evenodd;fill:#F84143;}
	.st40{opacity:0.3;}
	.st41{fill:#FFFEFF;}
</style>
<g>
	<path class="st41" d="M233.66,380.18c0-29.26,0.09-58.52-0.05-87.78c-0.05-10.04,3.67-17.64,12.41-22.79
		c4-2.35,6.14-6.11,6.6-10.72c2.84-28.76,5.65-57.52,8.48-86.28c0.09-0.87,0.17-1.74,0.32-2.59c0.23-1.32,0-2.17-1.38-2.91
		c-2.4-1.29-3.24-3.56-2.75-6.23c0.37-1.97,0.84-3.91,1.34-5.85c0.62-2.41,1.51-4.7-0.59-7.03c-0.65-0.72-0.47-2.53-0.14-3.69
		c0.5-1.73,1.17-3.6,2.33-4.91c1.1-1.23,2.91-2.56,4.43-2.58c15.32-0.19,30.65-0.19,45.98,0c1.51,0.02,3.32,1.36,4.41,2.6
		c1.16,1.31,1.93,3.17,2.3,4.91c0.3,1.39,0.21,3.29-0.55,4.38c-1.05,1.51-1.07,2.73-0.64,4.32c0.67,2.43,1.23,4.9,1.73,7.37
		c0.65,3.19-0.26,5.03-2.86,6.95c-0.65,0.48-1.22,1.65-1.14,2.43c2.25,23.48,4.6,46.95,6.92,70.43c0.59,5.98,1.22,11.95,1.74,17.93
		c0.46,5.24,2.84,9.19,7.37,11.92c7.71,4.65,11.66,11.53,11.67,20.54c0.02,59.83,0.03,119.65-0.01,179.48
		c-0.01,12.21-8.63,20.68-20.78,20.68c-22.03,0.01-44.06,0.01-66.09,0c-12.47,0-21.01-8.48-21.03-20.98
		C233.64,439.92,233.66,410.05,233.66,380.18z M260.84,409.63c0-13.66,0-27.33,0-40.99c0-1.91,0.01-3.83-0.03-5.74
		c-0.04-1.85-1.47-3.06-4.15-3.11c-2.92-0.06-4.35,1.23-4.5,3.17c-0.04,0.52-0.02,1.04-0.02,1.57c0,30.11-0.01,60.22,0,90.33
		c0,0.87-0.36,2,0.29,2.54c1.16,0.95,2.95,2.09,4.51,2.11c1.25,0.02,2.77-1.41,3.71-2.39c0.54-0.56,0.17-1.52,0.17-2.31
		C260.83,439.74,260.83,424.68,260.84,409.63z M260.83,322.91c0-5.22-0.02-10.44,0.01-15.66c0.01-1.98-0.88-3.47-4.13-3.67
		c-2.75-0.17-4.55,1.25-4.56,3.65c-0.04,10.44,0,20.88-0.03,31.32c-0.01,2.09,1,3.79,4.37,3.8c3.39,0.01,4.38-1.67,4.36-3.78
		C260.79,333.35,260.83,328.13,260.83,322.91z"/>
</g>
<g>
	<path class="st41" d="M139.99,449.2c-0.53-24.93-0.13-49.89-0.13-74.84c0-25.06-0.02-50.11,0.01-75.17
		c0.02-16.19-8.14-26.96-22.28-33.73c-2.26-1.08-4.69-1.86-7.12-2.54c-21.83-6.13-43.99-6.57-66.3-3.54
		c-9.82,1.33-19.53,3.39-28.23,8.38c-3.04,1.75-5.98,4.23-8.01,7.06c-2.37,3.31-4.01,7.26-5.36,11.14
		c-1.17,3.37-2.08,7.03-2.09,10.57c-0.13,51.87-0.1,103.74-0.06,155.61c0,6.29,1.83,12.09,5.23,17.43
		c5.76,9.05,14.77,13.27,24.48,16.08c18.18,5.26,36.85,6.06,55.53,4.27c9.76-0.94,19.61-2.76,28.98-5.62
		C129.95,479.62,140.37,467,139.99,449.2z M17.8,271.69c5.75-3.22,12.12-5.87,18.54-7.21c23.17-4.85,46.44-4.78,69.48,1.09
		c4.41,1.12,8.77,2.96,12.72,5.21c7.77,4.42,7.76,10.36,0.22,15.07c-6.73,4.21-14.31,6.19-22.03,7.28
		c-9.32,1.31-18.73,1.98-28.1,2.93c-13.73-0.64-27.27-1.74-40.33-6.02c-3.61-1.18-7.17-2.82-10.37-4.86
		C11.66,281.21,11.38,275.28,17.8,271.69z M125.36,466.76c-6.47,2.71-12.84,5.79-19.54,7.8c-30.77,9.2-60.71,6.58-89.73-7.14
		c-3.93-1.86-5.65-4.75-5.63-9.13c0.09-24.94,0.04-49.88,0.04-74.82c0-24.61,0-49.22,0-73.83c0-1.1-0.36-2.45,0.14-3.24
		c0.9-1.41,2.15-3.1,3.59-3.52c1.97-0.58,3.54,0.93,3.95,3.03c0.27,1.39,0.27,2.84,0.27,4.26c0.01,47.57,0.01,95.14,0.01,142.72
		c0,5.95,1.18,7.75,6.63,9.97c31.79,12.96,63.3,12.35,94.52-1.99c0.8-0.37,1.6-0.72,2.41-1.06c2.32-0.97,4.44-0.79,5.62,1.64
		C128.84,463.91,127.66,465.8,125.36,466.76z"/>
	<path class="st41" d="M65.11,276.74c-3.47-3-6.94-6-11-9.51c10.4-2.25,20.1-1.97,30.62,0.27c-4.65,3.42-8.66,6.37-13.24,9.74
		c4.18,0.32,7.72,0.43,11.21,0.91c2.36,0.33,4.74,0.96,6.91,1.9c1.13,0.49,2.52,1.94,2.53,2.98c0.02,1.02-1.37,2.53-2.48,2.99
		c-2.39,0.99-5,1.97-7.54,2.01c-8.97,0.15-17.95,0.01-26.92-0.26c-1.88-0.06-3.87-0.88-5.55-1.81c-2.91-1.62-3.02-4.55,0.02-5.75
		c3.5-1.38,7.36-1.86,11.1-2.57c1.33-0.25,2.75-0.04,4.13-0.04C64.97,277.32,65.04,277.03,65.11,276.74z"/>
</g>
<g>
	<path class="st41" d="M613.81,332.36c-52.82-0.78-106.95-4.36-159.68-19.34c-10.59-3.01-21.03-6.79-31.19-11.05
		c-15.58-6.52-18.4-19.03-8.15-32.23c1.35-1.74,1.62-4.65,1.64-7.02c0.29-24.65,0.41-49.29,0.61-73.94
		c0.03-3.45-0.1-6.96,0.44-10.35c1.26-7.85,1.43-14.6-5.02-21.31c-6.68-6.96-5.55-16.16,0.42-21.76c3.34-3.13,6.94-4.41,11.12-1.31
		c26.87,19.9,58.37,27.85,90.35,33.75c63.3,11.69,126.87,11.94,190.42,1.84c26.87-4.27,53.34-10.33,78.06-22.17
		c6.82-3.27,13.25-7.37,19.72-11.33c4.16-2.55,8.02-6.03,13.04-1.98c4.86,3.93,7.58,9.09,5.55,15.18
		c-1.41,4.21-4.54,7.83-6.65,11.84c-1.38,2.63-3.34,5.51-3.3,8.25c0.48,30.62,1.36,61.23,1.97,91.84c0.08,4.27,0.69,7.52,4.1,10.91
		c8.48,8.43,4.2,24.04-8.77,29.23c-15.33,6.13-31.06,11.65-47.08,15.59C713.52,328.79,664.58,331.74,613.81,332.36z"/>
	<path class="st41" d="M614.54,153.94c-45.27,0.66-90.18-2.78-133.76-16.28c-16.55-5.13-32.63-11.27-46.1-22.75
		c-3.77-3.21-5.32-6.25-2.93-11.22c3.88-8.08,7.01-16.51,10.65-24.7c4.06-9.12,9.69-17.28,11.86-27.58
		c2.69-12.76,13.59-19.86,24.45-25.8c20.68-11.31,43.29-16.78,66.33-20.35c51.21-7.92,102.36-7.44,153.28,2.57
		c19.03,3.74,37.62,9.09,54.5,19.01c12.72,7.48,22.25,16.95,24.7,32.91c1.16,7.53,7.15,14.24,10.55,21.51
		c3.51,7.49,6.37,15.28,9.84,22.79c1.98,4.28,0.9,7.22-2.42,10.2c-11.04,9.93-24.32,15.67-38.04,20.51
		c-33.73,11.89-68.78,16.88-104.26,19.04C640.37,154.6,627.44,153.94,614.54,153.94z M616.24,19.91
		c-33.32,0.46-64.85,2.36-95.3,11.33c-13.95,4.11-27.62,10.14-40.33,17.25c-10.7,5.99-10.5,14.85-0.46,21.87
		c7.07,4.95,15.02,8.99,23.1,12.09c21.4,8.2,43.83,11.97,66.59,14.27c45.25,4.57,90.24,3.46,134.42-7.72
		c14.95-3.78,29.63-10.03,43.22-17.4c12.78-6.93,12.28-16.25-0.04-24.32c-6.86-4.49-14.47-8.12-22.19-10.92
		C689.5,23.39,652.15,20.67,616.24,19.91z"/>
	<path class="st41" d="M794.3,387.02c-4.53,8.81-9.48,18.03-14.02,27.44c-1.63,3.39-3.38,7.32-3.18,10.91
		c0.87,15.86-6.73,26.74-19.21,35.09c-17.56,11.74-37.36,17.77-57.77,21.72c-63.47,12.29-126.73,11.97-189.5-4.62
		c-15.64-4.13-30.56-10.14-43.4-20.4c-9.74-7.78-15.25-17.37-14.77-30.36c0.16-4.25-1.72-8.85-3.6-12.85
		c-4.36-9.3-9.28-18.33-13.71-26.95C554.96,424.63,674.24,424.61,794.3,387.02z"/>
	<path class="st41" d="M419.94,326.88c130.14,36.53,259.48,36.46,389.69-0.02c-1.44,7.57-2.76,16.53-5.06,25.24
		c-0.62,2.36-4.03,4.24-6.49,5.82c-18.3,11.73-38.82,18.08-59.74,22.53c-79.83,17-159.92,17.16-239.99,1.59
		c-21.03-4.09-41.44-10.4-60.67-20.23c-9.04-4.62-15.33-10.4-15.59-21.34C421.97,335.5,420.56,330.57,419.94,326.88z"/>
	<path class="st41" d="M549.97,40.4c10.86,2.68,21.23,4.62,31.09,8.02c3.4,1.18,7.41,5.88,7.67,9.23c0.21,2.73-4.22,7.16-7.55,8.58
		c-20.62,8.84-41.6,8.77-62.19-0.12c-3.27-1.41-7.29-5.73-7.3-8.72c-0.01-3.02,3.97-7.68,7.17-8.78
		C528.94,45.17,539.47,43.06,549.97,40.4z"/>
</g>
</svg>
