<?xml version="1.0" encoding="utf-8"?>
<!-- Generator: Adobe Illustrator 27.0.0, SVG Export Plug-In . SVG Version: 6.00 Build 0)  -->
<svg version="1.1" id="Layer_1" xmlns="http://www.w3.org/2000/svg" xmlns:xlink="http://www.w3.org/1999/xlink" x="0px" y="0px"
	 viewBox="0 0 269 354" style="enable-background:new 0 0 269 354;" xml:space="preserve">
<style type="text/css">
	.st0{fill:#FFFFFF;}
</style>
<g id="XMLID_00000015344742912672000620000015383320605897500342_">
	<g>
		<path class="st0" d="M266.1,242c-1.2-0.3-2.3-0.6-3.3-0.8c-1.9-0.4-3.6-0.8-4.9-1.5c-4.5-2.5-7.8-6.7-10.4-13.3
			c-3.1-7.7-6-15.5-8.9-23.1c-2.2-5.9-4.5-12-6.9-18c-2.5-6.5-2.7-10.9-0.6-15.4c0.4-0.9,0.6-1.9,0.8-2.7l0.1-0.4
			c1.2-6.4,2-14.6-3.4-22.1c0-0.3,0-0.8,0.1-0.9c5.4-5,1.2-15.5,0.1-16.9l-1.3-1.7l-1.7,1.5c-2.9,2.5-4.2,2.7-4.5,2.8
			c-3.1-2-4.7-5.1-6.4-9l-0.8-1.7c-1.8-4-3.6-8.2-6.2-11.8c-1.9-2.7-4.4-4.9-6.7-7.1c-0.6-0.6-1.3-1.2-2-1.8
			c4.5-6.7,9-13.4,13.5-20.1c9.4-14,18.8-28,28.2-42.1c5.2-7.8,10.8-16.2,17.4-26.4c0.8-1.2,1.2-3.2,0.5-4.6C258,3.4,256,3,255,3
			c-0.3,0-0.5,0-0.8,0.1c-1.3,0.3-2.2,1.2-2.9,1.9l-0.2,0.3c-2.6,2.6-5.1,5.2-7.7,7.8c-4.5,4.6-9.2,9.4-13.9,14.1
			c-13.9,13.9-27.9,27.8-42.3,42c-1.5,1.5-3.1,3-4.7,4.4c0.3-2.8,0.6-5.4,0.4-8.1c-0.3-4.8-2.6-9.2-6.6-12.7l-2.4-2.1l-0.8,3.1
			c-1.1,4.1-1.7,6.5-2.2,8c-1.6-6.5-4.8-12.3-9.7-17.4l-2-2.1l-1.3,2.6c-0.1,0.2-0.2,0.4-0.3,0.6c-0.3,0.5-0.6,1.1-0.5,1.9
			c0.9,5-0.7,8.6-5.1,11.9c-2.3,1.8-4.1,4.1-5.8,6.4c-0.1,0.2-0.2,0.3-0.4,0.5c-2.8-6.4-3.7-13.3-4.1-19.3c-0.4-5-0.6-10.2-0.9-15.2
			c-0.1-2.5-0.3-5.1-0.4-7.6c0-0.8-0.1-1.6-0.2-2.4c0-0.4-0.1-0.7-0.1-1.2l-0.3-2.9l-2.6,1.3c-0.3,0.1-0.5,0.2-0.7,0.3
			c-0.4,0.2-0.8,0.4-1.2,0.7c-11,9.9-19,19.9-24.5,30.5c-4.3,8.3-6.9,17.4-7.8,26.9c-0.2,1.8-0.5,2-2,2c-2.9,0-5.8,0.4-8.2,0.8
			c-14.5,2.4-25.5,9-33.5,20c-3,4.1-6.9,8.6-10.7,13c-3.3,3.8-6.8,7.8-9.5,11.4l-0.7,1l0.6,1.1c0.6,1.2,1.6,1.2,3.5,1.2
			c2.6,0,7.5-0.2,11.6-0.3c-0.1,0.1-0.1,0.2-0.2,0.2c-1.5,2.3-3.2,4.6-3.8,6c-2,4-3.9,8.2-5.7,12.2c-1.5,3.3-3.1,6.7-4.7,10.1
			c-3.7,7.8-10.2,12.3-17.7,12.3c-3.9,0-8-1.3-11.9-3.7c-1.2-0.8-2.4-1.6-3.8-2.4c-0.7-0.5-1.5-1-2.4-1.5l-2.7-1.9l-0.3,3.3
			c-0.6,6.3,2.3,10.4,5.2,13.6c4.6,5,10.7,8.3,17.6,9.7c3.8,0.7,7.6,0.9,11.4,1.1c1.5,0.1,3.1,0.1,4.6,0.2c0.1,0,0.3,0,0.4,0
			c0.3,0,0.5,0,0.8,0c1.4,17-9.9,25.9-19.6,30.3c-0.6,0.3-0.9,0.4-1.2,0.6l-1.8,1.3l1.5,1.7c0,0.1,0.1,0.1,0.2,0.2
			c4,5.1,9.9,7.6,17.4,7.6c2.8,0,5.7-0.4,8.9-1.1c0.1,0,0.2,0,0.3-0.1c-1.9,8.5-7.6,12.7-18.1,13.5l-3.8,0.3l2.3,2.9
			c0.5,0.7,1,1.2,1.3,1.7c0.8,1,1.4,1.8,2.1,2.6c4,4.1,9.4,6.1,16.4,6.1h0.3c1.4,0,1.6,0.2,1.9,1.1c1.1,2.8,2.4,5.5,4,7.9
			c5.6,9,13.3,16.2,20.8,23.1c1.4,1.3,2.8,2.7,4.2,4c9.1,8.7,16.8,17.7,22.8,26.9c4.2,6.4,7.9,13.4,11.5,20.1c1.6,3,3.3,6.1,5,9.2
			c0.4,0.7,0.8,1.4,1.2,2.1c0.2,0.3,0.4,0.6,0.6,1l0.7,1.2l1.4-0.2l1-0.2l1.6-0.3v-3.4c0-1.2,0-2.3,0-3.5c0-19.4,0.4-36.8,4.3-54.4
			c3.6-15.9,8.4-27.3,15.7-37c1.7-2.3,3.3-3.2,5.6-3.2c0.3,0,0.5,0,0.8,0c0.8,0.1,1,0.1,1.1,0.1l0,0c0,0,0.1,0.1,0.2,0.6
			c1.1,6.2,4.4,11.6,9.8,15.9c3.5,2.8,7.3,5.3,10.6,7.5c5.1,3.4,8.3,7.2,9.9,12.1c1.1,3.2,2.5,6.5,4.7,10.6c5.2,9.8,13,14.7,23,14.7
			c0.5,0,1,0,1.4,0c8.3-0.4,15.4-4.3,20.6-11.3c1.4-1.8,2.1-2.2,3-2.2c0.5,0,1.2,0.1,2,0.4c1.6,0.5,3.1,0.8,4.7,0.8
			c5.6,0,10.2-3.6,12.2-9.3c1.3-3.8,1.9-7.8,2.3-11.4c0.2-1.7,0.7-2.6,1.8-3.4c6.9-5.1,9.4-11.7,7.3-19.7c-0.3-0.9,0.2-2.5,0.5-3.8
			l0.2-0.6c0.4-1.4,0.9-2.8,1.4-3.9c0.2-0.5,0.3-0.9,0.5-1.2l0.8-2L266.1,242z"/>
	</g>
</g>
</svg>