<?xml version="1.0" encoding="utf-8"?>
<!-- Generator: Adobe Illustrator 27.0.0, SVG Export Plug-In . SVG Version: 6.00 Build 0)  -->
<svg version="1.1" id="Layer_1" xmlns="http://www.w3.org/2000/svg" xmlns:xlink="http://www.w3.org/1999/xlink" x="0px" y="0px"
	 viewBox="0 0 269 354" style="enable-background:new 0 0 269 354;" xml:space="preserve">
<style type="text/css">
	.st0{fill:none;}
	.st1{fill:#FFFFFF;}
	.st2{fill-rule:evenodd;clip-rule:evenodd;}
	.st3{fill-rule:evenodd;clip-rule:evenodd;fill:#FFFFFF;}
	.st4{fill:#040213;}
	.st5{fill-rule:evenodd;clip-rule:evenodd;fill:#F0B505;}
	.st6{fill-rule:evenodd;clip-rule:evenodd;fill:#FFD043;}
	.st7{fill:#5E5E5E;}
	.st8{fill:#F0B505;}
	.st9{fill:#6B6B6B;}
	.st10{fill:#F84143;}
	.st11{fill:#F2722C;}
	.st12{fill:#F7951F;}
	.st13{fill:#8FBD6D;}
	.st14{fill:#43A98A;}
	.st15{fill:#57758F;}
	.st16{fill:#487587;}
	.st17{fill:#F8C64F;}
</style>
<g id="XMLID_00000015344742912672000620000015383320605897500342_">
	<g>
		<path class="st1" d="M242.41,23.12c-0.48,0.63-0.92,1.29-1.28,2c-0.22,0.43-0.12,1.06-0.39,1.43c-1.6,2.11-3.31,4.13-4.9,6.24
			c-1.56,2.08-2.92,4.31-4.57,6.32c-2.66,3.22-3.26,8.07-7.85,9.81c-0.5,0.19-0.89,1.33-0.91,2.04c-0.07,2.92-1.53,4.83-4.17,5.7
			c-1.88,0.63-2.47,1.63-2.37,3.58c0.14,2.76-1.5,4.74-4.01,5.43c-1.99,0.54-2.61,1.45-2.63,3.36c-0.02,3.08-1.57,5.05-4.56,6.07
			c-0.76,0.26-1.55,1.43-1.71,2.29c-0.66,3.5-1.95,6.33-5.57,7.72c-0.73,0.28-1.36,1.62-1.46,2.53c-0.45,4.15-2.09,7.12-6.54,8.03
			c-0.68,0.14-1.59,1.29-1.63,2.02c-0.25,4.4-2.18,7.25-6.65,8.24c-0.6,0.13-1.22,0.89-1.52,1.51c-1.35,2.7-2.59,5.45-3.95,8.35
			c2.8,2.18,5.02,1.86,7.55-1.52c1.68-2.23,3.43-4.42,5.29-6.51c1.94-2.19,4.1-0.77,5.79,0.27c5.63,3.46,9.48,8.49,11.89,14.61
			c2.05,5.19,4.76,9.89,9.63,12.93c1.67,1.05,4.51,2.26,8.15,1.49c0,0-7.1,5.51-9.15,7.12c1.33-1.04,2.55,1.87,3.73,2.75
			c5.76,4.29,7.95,10.71,4.47,17.07c-3.96,7.23-3.61,13.99-0.69,21.23c6.23,15.5,12.18,31.12,18.53,46.57
			c2.54,6.17,6.61,11.4,12.32,15.14c1.43,0.94,1.6,1.8,0.4,3.15c-5.98,6.77-6.94,14.57-6.44,23.13c0.15-0.24,0.31-0.53,0.47-0.85
			c0.94-1.92,1.4-4.03,1.49-6.17c0.14-3.29,0.97-9.51,5.28-11.2c0,0-0.08,1.47-0.86,2.76c-0.49,0.81-0.94,1.64-1.21,2.55
			c-0.4,1.37-0.78,3.31-0.4,5.12c0.26,1.27,0.31,2.57-0.08,3.8c-0.35,1.13-0.99,2.3-2.11,2.76c0,0-1.41,1.3-2.51,2.51
			c2.05,19.11-10.58,14.83-10.79,14.68c-4.01-2.86-8.5-1.53-12.84-1.56c-4.83-0.05-8.76-2.24-12.22-5.41
			c-5.64-5.16-9.56-11.49-12.52-18.47c-1.18-2.77-2.44-5.51-4-9.03c-0.3,1.34-0.61,1.89-0.5,2.35c2.66,11.63,7.03,22.49,15.36,31.27
			c3.46,3.64,14.3,7,15.05,7.31c-8.59,6.83-23.18,8.65-30.31-3.05c-1.72-2.82-2.94-6-3.98-9.15c-3.02-9.16-9.09-15.64-17.27-20.38
			c-1.58-0.92-3.11-1.91-4.72-2.77c-6.64-3.55-9.86-9.2-9.82-16.6c0.01-2.82-1.09-3.26-3.49-2.93
			c-17.63,2.39-38.24-7.82-46.93-23.39c-9.19-16.47-10.51-33.8-5.18-51.76c0.3-1.04,0.57-2.08,0.93-3.42
			c-4.95,2.8-9.66,19.29-8.8,32.29c1.73,26.21,16.23,42.59,40.45,50.92c-2.81,4.22-5.78,8.19-8.24,12.44
			c-6.04,10.44-9.12,21.96-10.58,33.77c-1.18,9.5-1.16,19.15-1.66,28.73c-0.05,1.07-0.01,2.14-0.01,3.21
			c-0.46,0.12-0.41,0.11-0.87,0.23c-0.87-1.46-1.85-2.87-2.57-4.4c-6.3-13.39-15.82-24.31-26.19-34.6
			c-7.34-7.28-14.83-14.39-21.95-21.88c-4.89-5.14-7.28-11.57-7.58-18.72c-0.12-2.78-1.86-3.75-4.4-2.69
			c-2.81,1.16-12.48,4.1-8.9,2.42c0.49-0.23,9.76-4.14,12.04-20.02c0.27-1.87,0.96-3.98,2.1-5.5c3.59-4.79,4.7-17.14,4.5-17.33
			c-5.06,5.06-11.34,22.52-28.12,18.97c1.93-2.03,15.48-8.15,15.93-32.71c0.07-3.66-0.57-5.51,2.92-7.52
			c6.41-3.67,11.54-10.46,13.75-17.38c0.47-1.49,0.92-4.3,1.32-5.81c-0.29-0.21-4.46,4.32-6.24,6.1
			c-3.43,3.41-6.57,7.21-10.41,10.08c-5.8,4.33-20.68,3.83-21.6,3.44c2.44-1.12,4.73-1.73,6.48-3.05c3.12-2.36,6.48-4.74,8.72-7.85
			c3.21-4.45,5.55-9.54,8.18-14.4c4.55-8.43,8.66-17.21,15.51-24.07c8.26-8.26,30.06-18.14,30.45-18.35
			c-0.05-0.33-9.45-0.76-13.78,0.47c-6.95,1.98-13.59,5.05-20.45,7.38c-2.44,0.82-10.39,3.49-12.97,3.88
			c-0.31-0.54,6.34-6.29,8.26-8.61c1.2-1.47,9.09-10.07,10.63-11.06c9.83-6.29,20.55-9.96,32.27-10.63
			c2.43-0.13,2.82,1.35,3.21,3.14c1.51,6.9,4.4,13.07,9.84,17.77c1.6,1.38,5.7,3.07,5.91,2.83c-1.09-1.5-2.23-2.97-3.24-4.52
			c-8.3-12.63-8.27-26.16-4.07-40.03c3.29-10.85,8.05-21,15.32-29.84c0.71-0.86,1.48-1.67,2.26-2.46c0.4-0.42,0.88-0.76,1.33-1.13
			c-1.77,9.44-1.03,18.58,0.9,27.63c0.49,2.28,2.78,4.17,3.34,6.46c1.08,4.47,2.11,9.09,2.1,13.65c-0.01,6.67-3.5,12.38-6.63,18.08
			c-1.42,2.58-2.71,5.22-4,7.86c-0.36,0.76-0.49,1.64-0.35,2.65c5.28-9.31,15.81-14.69,18.58-25.79c1.08-4.31,2.16-8.73,4.07-12.69
			c2.58-5.36,6.57-9.83,10.76-14.09c3.74,3.86,3.64,10.05,0.35,13.89c-2.88,3.36-5.61,6.87-8.1,10.52c-0.9,1.31-0.9,3.23-1.36,5.04
			c7.66-7.66,14.96-14.95,22.3-22.29c2.25,4.02,1.49,10.08-1.18,13.43c-1.11,1.39-1.53,3.32-2.29,5c-0.21,0.46-0.41,0.95-0.75,1.31
			c-3,3.2-6.15,6.28-9,9.61c-1.52,1.79-2.73,3.92-3.7,6.07c-0.34,0.75,0.12,2.44,0.79,2.91c0.65,0.46,2.37,0.33,3.01-0.24
			c2.47-2.2,4.75-4.63,7-7.07c3.69-3.99,7.23-8.12,10.96-12.08c4.64-4.92,9.35-9.77,14.13-14.56c3.26-3.26,6.74-6.3,10.01-9.55
			c1.2-1.19,1.99-2.78,3.13-4.04c2.7-2.95,5.28-6.05,8.3-8.64c4.26-3.65,7.39-8.26,11.28-12.19c3.25-3.28,6.86-6.21,10.08-9.51
			c3.04-3.12,5.77-6.54,8.65-9.81c0.31-0.35,0.75-0.59,1.12-0.88c0.28,0.22,0.56,0.43,0.84,0.65
			C245.56,19.05,243.97,21.07,242.41,23.12z"/>
		<path class="st1" d="M198.91,263.74c2.96,6.98,6.88,13.31,12.52,18.47c3.46,3.17,7.39,5.36,12.22,5.41
			c4.34,0.03,8.83-1.3,12.84,1.56c0.21,0.15,12.84,4.43,10.79-14.68c1.1-1.21,2.51-2.51,2.51-2.51c1.12-0.46,1.76-1.63,2.11-2.76
			c0.39-1.23,0.34-2.53,0.08-3.8c-0.38-1.81,0-3.75,0.4-5.12c0.27-0.91,0.72-1.74,1.21-2.55c0.78-1.29,0.86-2.76,0.86-2.76
			c-4.31,1.69-5.14,7.91-5.28,11.2c-0.09,2.14-0.55,4.25-1.49,6.17c-0.16,0.32-0.32,0.61-0.47,0.85c-0.5-8.56,0.46-16.36,6.44-23.13
			c1.2-1.35,1.03-2.21-0.4-3.15c-5.71-3.74-9.78-8.97-12.32-15.14c-6.35-15.45-12.3-31.07-18.53-46.57
			c-2.92-7.24-3.27-14,0.69-21.23c3.48-6.36,1.29-12.78-4.47-17.07c-1.18-0.88-2.4-3.79-3.73-2.75c2.05-1.61,9.15-7.12,9.15-7.12
			c-3.64,0.77-6.48-0.44-8.15-1.49c-4.87-3.04-7.58-7.74-9.63-12.93c-2.41-6.12-6.26-11.15-11.89-14.61
			c-1.69-1.04-3.85-2.46-5.79-0.27c-1.86,2.09-3.61,4.28-5.29,6.51c-2.53,3.38-4.75,3.7-7.55,1.52c1.36-2.9,2.6-5.65,3.95-8.35
			c0.3-0.62,0.92-1.38,1.52-1.51c4.47-0.99,6.4-3.84,6.65-8.24c0.04-0.73,0.95-1.88,1.63-2.02c4.45-0.91,6.09-3.88,6.54-8.03
			c0.1-0.91,0.73-2.25,1.46-2.53c3.62-1.39,4.91-4.22,5.57-7.72c0.16-0.86,0.95-2.03,1.71-2.29c2.99-1.02,4.54-2.99,4.56-6.07
			c0.02-1.91,0.64-2.82,2.63-3.36c2.51-0.69,4.15-2.67,4.01-5.43c-0.1-1.95,0.49-2.95,2.37-3.58c2.64-0.87,4.1-2.78,4.17-5.7
			c0.02-0.71,0.41-1.85,0.91-2.04c4.59-1.74,5.19-6.59,7.85-9.81c1.65-2.01,3.01-4.24,4.57-6.32c1.59-2.11,3.3-4.13,4.9-6.24
			c0.27-0.37,0.17-1,0.39-1.43c0.36-0.71,0.8-1.37,1.28-2c1.56-2.05,3.15-4.07,4.73-6.09c-0.28-0.22-0.56-0.43-0.84-0.65
			c-0.37,0.29-0.81,0.53-1.12,0.88c-2.88,3.27-5.61,6.69-8.65,9.81c-3.22,3.3-6.83,6.23-10.08,9.51
			c-3.89,3.93-7.02,8.54-11.28,12.19c-3.02,2.59-5.6,5.69-8.3,8.64c-1.14,1.26-1.93,2.85-3.13,4.04c-3.27,3.25-6.75,6.29-10.01,9.55
			c-4.78,4.79-9.49,9.64-14.13,14.56c-3.73,3.96-7.27,8.09-10.96,12.08c-2.25,2.44-4.53,4.87-7,7.07c-0.64,0.57-2.36,0.7-3.01,0.24
			c-0.67-0.47-1.13-2.16-0.79-2.91c0.97-2.15,2.18-4.28,3.7-6.07c2.85-3.33,6-6.41,9-9.61c0.34-0.36,0.54-0.85,0.75-1.31
			c0.76-1.68,1.18-3.61,2.29-5c2.67-3.35,3.43-9.41,1.18-13.43c-7.34,7.34-14.64,14.63-22.3,22.29c0.46-1.81,0.46-3.73,1.36-5.04
			c2.49-3.65,5.22-7.16,8.1-10.52c3.29-3.84,3.39-10.03-0.35-13.89c-4.19,4.26-8.18,8.73-10.76,14.09
			c-1.91,3.96-2.99,8.38-4.07,12.69c-2.77,11.1-13.3,16.48-18.58,25.79c-0.14-1.01-0.01-1.89,0.35-2.65c1.29-2.64,2.58-5.28,4-7.86
			c3.13-5.7,6.62-11.41,6.63-18.08c0.01-4.56-1.02-9.18-2.1-13.65c-0.56-2.29-2.85-4.18-3.34-6.46c-1.93-9.05-2.67-18.19-0.9-27.63
			c-0.45,0.37-0.93,0.71-1.33,1.13c-0.78,0.79-1.55,1.6-2.26,2.46c-7.27,8.84-12.03,18.99-15.32,29.84
			c-4.2,13.87-4.23,27.4,4.07,40.03c1.01,1.55,2.15,3.02,3.24,4.52c-0.21,0.24-4.31-1.45-5.91-2.83c-5.44-4.7-8.33-10.87-9.84-17.77
			c-0.39-1.79-0.78-3.27-3.21-3.14c-11.72,0.67-22.44,4.34-32.27,10.63c-1.54,0.99-9.43,9.59-10.63,11.06
			c-1.92,2.32-8.57,8.07-8.26,8.61c2.58-0.39,10.53-3.06,12.97-3.88c6.86-2.33,13.5-5.4,20.45-7.38c4.33-1.23,13.73-0.8,13.78-0.47
			c-0.39,0.21-22.19,10.09-30.45,18.35c-6.85,6.86-10.96,15.64-15.51,24.07c-2.63,4.86-4.97,9.95-8.18,14.4
			c-2.24,3.11-5.6,5.49-8.72,7.85c-1.75,1.32-4.04,1.93-6.48,3.05c0.92,0.39,15.8,0.89,21.6-3.44c3.84-2.87,6.98-6.67,10.41-10.08
			c1.78-1.78,5.95-6.31,6.24-6.1c-0.4,1.51-0.85,4.32-1.32,5.81c-2.21,6.92-7.34,13.71-13.75,17.38c-3.49,2.01-2.85,3.86-2.92,7.52
			c-0.45,24.56-14,30.68-15.93,32.71c16.78,3.55,23.06-13.91,28.12-18.97c0.2,0.19-0.91,12.54-4.5,17.33
			c-1.14,1.52-1.83,3.63-2.1,5.5c-2.28,15.88-11.55,19.79-12.04,20.02c-3.58,1.68,6.09-1.26,8.9-2.42c2.54-1.06,4.28-0.09,4.4,2.69
			c0.3,7.15,2.69,13.58,7.58,18.72c7.12,7.49,14.61,14.6,21.95,21.88c10.37,10.29,19.89,21.21,26.19,34.6
			c0.72,1.53,1.7,2.94,2.57,4.4c0.46-0.12,0.41-0.11,0.87-0.23c0-1.07-0.04-2.14,0.01-3.21c0.5-9.58,0.48-19.23,1.66-28.73
			c1.46-11.81,4.54-23.33,10.58-33.77c2.46-4.25,5.43-8.22,8.24-12.44c-24.22-8.33-38.72-24.71-40.45-50.92
			c-0.86-13,3.85-29.49,8.8-32.29c-0.36,1.34-0.63,2.38-0.93,3.42c-5.33,17.96-4.01,35.29,5.18,51.76
			c8.69,15.57,29.3,25.78,46.93,23.39c2.4-0.33,3.5,0.11,3.49,2.93c-0.04,7.4,3.18,13.05,9.82,16.6c1.61,0.86,3.14,1.85,4.72,2.77
			c8.18,4.74,14.25,11.22,17.27,20.38c1.04,3.15,2.26,6.33,3.98,9.15c7.13,11.7,21.72,9.88,30.31,3.05
			c-0.75-0.31-11.59-3.67-15.05-7.31c-8.33-8.78-12.7-19.64-15.36-31.27c-0.11-0.46,0.2-1.01,0.5-2.35
			C196.47,258.23,197.73,260.97,198.91,263.74z M255.89,8.1c-5.74,8.83-11.52,17.64-17.39,26.4
			c-14.09,21.05-28.24,42.08-42.36,63.12c-0.17,0.24-0.24,0.54-0.21,0.47c3.33,3.29,7.04,6.09,9.59,9.71
			c2.81,3.99,4.72,8.67,6.73,13.18c1.71,3.85,3.47,7.52,7.2,9.9c2.03,1.29,6.17-2.39,6.94-3.05c0.64,0.86,4.4,10.24,0.09,14.27
			c-0.8,0.75-0.93,2.73-0.42,3.42c4.66,6.4,4.58,13.43,3.17,20.7c-0.17,0.9-0.29,1.84-0.68,2.65c-2.8,5.76-1.74,11.28,0.49,16.97
			c5.35,13.68,10.28,27.52,15.75,41.15c2.31,5.76,5.64,11.17,11.29,14.34c2.3,1.3,5.18,1.58,8.59,2.55
			c-0.49,1.31-1.39,3.28-1.93,5.33c-0.48,1.78-1.15,3.81-0.71,5.46c1.96,7.49-0.56,13.15-6.53,17.53c-1.72,1.26-2.37,2.69-2.64,4.77
			c-0.47,3.7-1.03,7.47-2.22,10.98c-2.17,6.4-7.9,9.41-14.3,7.27c-3.52-1.18-5.23-0.21-7.24,2.5c-4.7,6.36-11.16,10.14-19.08,10.52
			c-10.42,0.49-17.8-4.67-22.61-13.64c-1.76-3.3-3.4-6.72-4.57-10.27c-1.91-5.82-5.69-9.91-10.68-13.18
			c-3.56-2.32-7.12-4.7-10.42-7.37c-4.71-3.79-8-8.64-9.06-14.7c-0.34-1.96-1.25-2.23-3.03-2.39c-3.65-0.33-6.03,1.1-8.19,3.97
			c-8.47,11.29-12.97,24.17-16.01,37.77c-4.05,18.08-4.33,36.42-4.37,54.8c-0.01,1.76,0,3.51,0,5.26c-0.33,0.06-0.65,0.13-0.98,0.19
			c-0.6-0.99-1.23-1.96-1.8-2.97c-5.48-9.81-10.44-19.97-16.58-29.36c-6.52-9.96-14.39-18.98-23.07-27.23
			c-8.8-8.37-18.14-16.26-24.69-26.7c-1.5-2.39-2.77-4.97-3.78-7.6c-0.77-1.98-1.9-2.36-3.85-2.35c-5.73,0.04-11.08-1.23-15.26-5.53
			c-1.01-1.05-1.83-2.27-3.36-4.2c11.83-0.91,18.96-6.25,20.4-18.25c-1.26,0.33-2.25,0.63-3.26,0.86
			c-17.63,3.99-23.42-4.96-24.44-6.14c1.21-0.83,23.8-8.49,21.64-33.05c-0.2-2.25-1.63-1.4-3.01-1.5
			c-5.25-0.37-10.58-0.31-15.72-1.29c-6.34-1.23-12.1-4.22-16.55-9.06c-2.86-3.12-5.18-6.69-4.7-12.02
			c2.35,1.52,4.23,2.78,6.15,3.98c12.56,7.85,26.02,3.9,32.52-9.55c3.56-7.39,6.86-14.9,10.47-22.26c1.06-2.14,5.27-7.92,6.01-9.33
			c-5.23,0.35-17.35,0.74-17.14,0.46c5.82-7.64,14.59-16.67,20.25-24.43c8.05-11.05,19.02-17,32.26-19.21
			c2.59-0.43,5.24-0.79,7.86-0.8c2.73,0,3.75-1.19,3.99-3.78c0.85-9.19,3.33-17.93,7.55-26.16c5.96-11.62,14.39-21.28,24.04-29.94
			c0.28-0.25,0.68-0.35,1.47-0.75c0.15,1.34,0.31,2.38,0.37,3.43c0.43,7.6,0.73,15.2,1.29,22.79c0.53,7.29,1.59,14.5,4.84,21.19
			c0.3,0.62,0.65,1.21,0.87,1.61c2.6-3.07,4.71-6.66,7.79-8.97c4.88-3.65,6.88-7.98,5.86-13.86c-0.04-0.23,0.22-0.52,0.58-1.27
			c5.64,5.93,8.89,12.7,10.01,20.57c2.38-1.08,2.38-1.08,5.28-12.01c3.58,3.12,5.61,7,5.9,11.28c0.29,4.21-0.64,8.5-1.06,13.12
			c2.91-2.72,5.88-5.37,8.7-8.16c14.12-13.98,28.23-27.96,42.28-42.01c7.25-7.24,14.37-14.62,21.56-21.92
			c0.63-0.63,1.33-1.44,2.11-1.6c0.75-0.15,2.09,0.22,2.37,0.77C256.58,6.14,256.34,7.4,255.89,8.1z"/>
	</g>
</g>
</svg>
