<?xml version="1.0" encoding="utf-8"?>
<!-- Generator: Adobe Illustrator 27.0.0, SVG Export Plug-In . SVG Version: 6.00 Build 0)  -->
<svg version="1.1" id="Layer_1" xmlns="http://www.w3.org/2000/svg" xmlns:xlink="http://www.w3.org/1999/xlink" x="0px" y="0px"
	 viewBox="0 0 118 50" style="enable-background:new 0 0 118 50;" xml:space="preserve">
<style type="text/css">
	.st0{fill:none;}
	.st1{fill:#FFFFFF;}
	.st2{fill-rule:evenodd;clip-rule:evenodd;}
	.st3{fill-rule:evenodd;clip-rule:evenodd;fill:#FFFFFF;}
	.st4{fill:#040213;}
	.st5{fill-rule:evenodd;clip-rule:evenodd;fill:#F0B505;}
	.st6{fill-rule:evenodd;clip-rule:evenodd;fill:#FFD043;}
	.st7{fill:#5E5E5E;}
	.st8{fill:#F0B505;}
	.st9{fill:#6B6B6B;}
	.st10{fill:#F84143;}
	.st11{fill:#F2722C;}
	.st12{fill:#F7951F;}
	.st13{fill:#8FBD6D;}
	.st14{fill:#43A98A;}
	.st15{fill:#57758F;}
	.st16{fill:#487587;}
	.st17{fill:#F8C64F;}
</style>
<g>
	<g>
		<polygon points="24.44,47.68 2.52,47.46 24.44,44.17 24.44,47.68 		"/>
	</g>
	<g>
		<polygon points="94.45,37.86 116.36,38.08 94.45,41.36 94.45,37.86 		"/>
	</g>
	<g>
		<path d="M30.29,47.8v-5.14c0-1.47,0.77-2.4,2.21-2.5c1.45-0.1,2.21,0.72,2.21,2.19v1.01l-1.42,0.1v-1.11
			c0-0.63-0.3-0.87-0.75-0.83c-0.45,0.03-0.75,0.31-0.75,0.94v5.34c0,0.63,0.3,0.85,0.75,0.82c0.45-0.03,0.75-0.3,0.75-0.93v-1.46
			l1.42-0.1v1.35c0,1.47-0.77,2.4-2.21,2.5C31.05,50.09,30.29,49.27,30.29,47.8z"/>
		<path d="M36.62,40.01l2.23-0.16c1.56-0.11,2.23,0.57,2.23,2.04v0.59c0,0.98-0.31,1.63-0.98,1.95v0.03c0.75,0.18,1,0.87,1,1.95
			v1.68c0,0.46,0.01,0.8,0.16,1.15l-1.53,0.11c-0.08-0.24-0.14-0.39-0.14-1.17v-1.75c0-0.89-0.26-1.16-0.94-1.11l-0.52,0.04v4.1
			l-1.5,0.11V40.01z M38.67,43.96c0.56-0.04,0.9-0.31,0.9-1.07v-0.74c0-0.68-0.23-0.97-0.77-0.93l-0.68,0.05V44L38.67,43.96z"/>
		<path d="M44.3,39.47l2.04-0.14l1.56,9.45l-1.5,0.11L46.12,47v0.03l-1.71,0.12l-0.27,1.89l-1.39,0.1L44.3,39.47z M45.94,45.75
			l-0.67-4.68l-0.03,0l-0.66,4.77L45.94,45.75z"/>
		<path d="M49.63,39.1l3.98-0.28v1.37l-2.47,0.17v2.66l1.94-0.14v1.37l-1.94,0.14v4.17l-1.5,0.1V39.1z"/>
		<path d="M56.65,39.97l-1.57,0.11v-1.37l4.65-0.32v1.37l-1.57,0.11v8.19l-1.5,0.11V39.97z"/>
		<path d="M64.65,38.05l2.27-0.16c1.56-0.11,2.23,0.57,2.23,2.04v0.38c0,0.98-0.3,1.62-0.97,1.94v0.03c0.81,0.22,1.12,0.9,1.12,1.92
			v0.82c0,1.47-0.78,2.32-2.28,2.43l-2.36,0.17V38.05z M66.74,41.79c0.56-0.04,0.9-0.31,0.9-1.07v-0.53c0-0.68-0.23-0.97-0.77-0.93
			l-0.72,0.05v2.53L66.74,41.79z M67.02,46.08c0.51-0.04,0.78-0.29,0.78-1v-0.83c0-0.89-0.29-1.14-0.97-1.09l-0.67,0.05v2.94
			L67.02,46.08z"/>
		<path d="M71.18,37.59l4.1-0.29v1.37l-2.6,0.18v2.53l2.06-0.14v1.37l-2.06,0.14v2.94l2.6-0.18v1.37l-4.1,0.29V37.59z"/>
		<path d="M77.15,37.17l4.1-0.29v1.37l-2.6,0.18v2.53l2.06-0.14v1.37l-2.06,0.14v2.94l2.6-0.18v1.37l-4.1,0.29V37.17z"/>
		<path d="M83.12,36.75l2.23-0.16c1.56-0.11,2.23,0.57,2.23,2.04v0.59c0,0.98-0.31,1.63-0.98,1.95v0.03c0.75,0.18,1,0.87,1,1.95
			v1.68c0,0.46,0.01,0.8,0.16,1.15l-1.53,0.11c-0.08-0.24-0.14-0.39-0.14-1.17v-1.75c0-0.89-0.26-1.16-0.94-1.11l-0.52,0.04v4.1
			l-1.5,0.11V36.75z M85.17,40.71c0.56-0.04,0.9-0.31,0.9-1.07V38.9c0-0.68-0.23-0.97-0.77-0.93l-0.68,0.05v2.73L85.17,40.71z"/>
	</g>
	<g>
		<path class="st0" d="M28.89,22.18c-0.03-0.1-0.05-0.21-0.09-0.3L28.89,22.18z"/>
	</g>
	<g>
		<path class="st0" d="M12.94,9.62c0.09,0.23,0.15,0.47,0.17,0.69c-0.18-0.08-0.35-0.14-0.5-0.19c-0.04,0.16-0.09,0.35-0.14,0.58
			l0.11,0.08l-0.3,2.25l0.11,1.03l-0.17,1.26l0.25,0.23l-0.18,0.9l0.1,0.58v1.03l-0.18,0.01l-0.04,0.26
			c0.03,0.89,0.61,1.72,1.78,2.55l0.67,0.47c0.61-0.87,1.65-1.74,1.35-2.72c-0.29-1.04-0.04-2.84,0.1-4.29
			c-0.3-0.25-0.54-0.36-0.13-0.67c-0.38-1.9,0.75-4.06-1.02-3.91v0.16l-0.48-0.08c-0.28,0.06-0.6,0.16-0.98,0.31
			c0.01-0.16,0.02-0.32,0.05-0.47l-0.47-0.08L12.94,9.62z"/>
	</g>
	<g>
		<path class="st0" d="M23.21,24.98l0.23,0.56l-0.14,0.73l0.1,1.14v0.41l-0.17,0.53l0.18,0.44l-0.11,1.41l0.13,0.39
			c0.13-0.01,0.27-0.01,0.44,0c1.55-0.1,0.61-2.13,0.87-3.01c-0.23-1.8,0.44-3.81-0.35-5.37c-0.35,0.4-0.66,0.79-0.92,1.18
			L23.21,24.98z"/>
	</g>
	<g>
		<path class="st0" d="M14.89,23.48c-0.7-0.52-0.8-1.02-0.63-1.52l-0.11,0.16c-0.6,0.9-0.96,1.3-1.25,1.51
			c-0.05,0.1-0.12,0.2-0.19,0.28l-0.43,0.95l0.09,0.13v0.62l-0.08,0.34l0.08,0.33v0.94l-0.02,0.02l0.19-0.01l-0.28,1.73l0.12,2.45
			l-0.18,0.28l0.16,0.73v0.68l-0.02,0.02c0.37,1.4,0.88,2.19,1.4,2.19l0.05,0l0.9-0.06c0.27-0.02,0.56-0.07,0.84-0.21
			c0.17-0.36,0.3-0.77,0.4-1.25C15.27,30.5,17.2,25.73,14.89,23.48z"/>
	</g>
	<g>
		<path class="st0" d="M70.94,17.98c-2.23,2.59-0.95,4.9-1.1,7.83c1.16,2.89,3.1-0.47,2.39-1.93C72.17,21.83,73,18.91,70.94,17.98z"
			/>
	</g>
	<g>
		<path class="st8" d="M4.43,19.22c-0.05-0.08-0.09-0.16-0.14-0.26l-0.08-0.18v-1.27c0-0.86,0.13-1.49,0.33-1.94l-0.22-0.58v-0.61
			l0.07-0.28l-0.18-0.46v-1.24l0.06,0c-0.1-1.29-0.24-1.88-0.34-2.14L3.17,10.3l-0.34,0.25l-1.34,0.09V9.11l0.1-0.2
			c0.1-0.2,0.22-0.38,0.34-0.57c-1.21,1.06-1.81,2.34-0.6,2.66c1.78-0.79,1.99-0.47,1.99,2.71c0.09,2.73,0.69,5.81-0.74,8.21
			l1.66-2.13C4.28,19.61,4.34,19.42,4.43,19.22z"/>
	</g>
	<g>
		<path class="st8" d="M15.91,13.69c-0.42,0.31-0.17,0.42,0.13,0.67c-0.14,1.45-0.39,3.25-0.1,4.29c0.3,0.98-0.74,1.85-1.35,2.72
			l0.05,0.04l-0.38,0.57c-0.17,0.49-0.07,0.99,0.63,1.52c2.31,2.25,0.38,7.02,1.06,10.32c-0.09,0.48-0.23,0.9-0.4,1.25
			c0.54-0.27,1.04-0.85,1.27-2.17l-0.12-0.95v-1.79l0.14-0.22l-0.19-0.16l0.29-2.57l-0.18-2.19l0.03,0l-0.16-0.95l0.13-0.11
			c-0.05-0.11-0.13-0.27-0.26-0.49l-0.58,0.04v-0.52l-0.23-0.28l-1.06-1.24l0.49-0.59c1.24-1.49,1.54-1.98,1.61-2.12l0.07-0.31
			l-0.27-0.65l0.18-0.16l-0.05-0.05l0.01-0.1l-0.42-0.93l0.54-0.04l0.05-0.42l-0.14-1.15l0.19-1.32l-0.59-0.5l0.45-0.48l-0.04-0.18
			v-2.08l0.17-0.16l-0.03-0.16V9.54l-0.27-0.29l-0.36,0.02c0,0-0.09,0.02-0.28,0.18l-0.23,0.2l-0.8,0.05v0.07
			C16.65,9.63,15.53,11.78,15.91,13.69z"/>
	</g>
	<g>
		<path class="st8" d="M13.85,41.23l-0.57-0.07l-0.43,0.16l-0.2-0.02c-2.15-0.19-3.8-0.65-5.04-1.4l-0.06-0.03L7.5,39.83
			c-1.37-1.13-2.28-2.49-2.68-4.06L4.7,35.29l0.15-0.16l-0.54-2.58l0.12-0.84l-0.12-1.1l0.18-0.6c-0.19-0.57-0.23-1.45-0.28-2.55
			L4.2,27.34l0.19-0.81l-0.19-0.55v-0.6l0.1-0.4C4.25,24.82,4,24.24,2.77,22.94L2.26,22.4C2.04,22.7,1.8,22.98,1.5,23.25
			c2.94,3.1,1.36,2.08,2.03,4.17c-2.41,12.47,6.5,16.77,12.68,13.54c-0.44,0.1-0.9,0.16-1.38,0.2L13.85,41.23z"/>
	</g>
	<g>
		<path class="st1" d="M14.64,21.39l-0.05-0.04c-0.14,0.2-0.26,0.41-0.33,0.61L14.64,21.39z"/>
	</g>
	<g>
		<path d="M6.26,6.23c0.79,0.14,1.51,0.51,2.16,1.11c0.66-0.81,1.23-1.23,1.71-1.27l0.11-0.01c0.94,0.16,1.66,0.57,2.16,1.22
			l-0.22,0.24l0.22-0.02l0.34-0.14l1.26,1.37v0.11L13.07,8.7l-0.67,0.05c-0.34,0.02-0.65,0.8-0.92,2.33l0.13,0.1l-0.25,1.84
			l0.11,1.03l-0.22,1.61l0.22,0.21l-0.11,0.57l0.11,0.67v0.11l-0.34,0.02l0.22,0.32l-0.11,0.7c0,1.21,0.72,2.33,2.16,3.35
			c-0.52,0.79-0.9,1.23-1.12,1.34l-0.11-0.1c0,0.37-0.15,0.57-0.45,0.59l0.11,0.1v0.11l-0.58,1.3l0.22,0.32v0.22l-0.11,0.46
			l0.11,0.44v0.47l-0.34,0.36c0.09,0.67,0.2,1,0.34,0.99l-0.11,0.7l0.11,2.26l-0.22,0.35l0.22,1v0.22l-0.11,0.12
			c0.52,2.31,1.36,3.43,2.52,3.35l0.9-0.06c1.65-0.12,2.64-1.2,2.97-3.26l-0.13-1.02v-0.67l0.25-0.35l-0.25-0.21v-0.22l0.25-0.38
			l-0.11-0.33l0.11-0.12l-0.25-0.21l0.25-2.17l-0.11-1.36l0.11-0.01L17.6,24.4l0.13-0.12v-0.11c0-0.31-0.23-0.83-0.7-1.55V22.4
			l-0.11,0.12l-0.11,0.01c0-0.3-0.15-0.44-0.45-0.42l-0.56-0.66c1.2-1.45,1.8-2.28,1.8-2.51l0.13-0.57l-0.13-0.33l0.13-0.12
			l0.11-0.01l-0.25-0.54l0.13-0.01l-0.13-0.13l0.13-1.13l-0.13-1.14l0.25-1.7l-0.25-0.21l0.13-0.14l-0.13-0.55v-0.11l0.13-0.12
			l-0.13-0.1v-1.26l0.25-0.24l-0.11-0.55V9.18l-0.81-0.86l-0.79,0.05c-0.25,0.02-0.52,0.15-0.81,0.39l-0.11,0.01V8.66
			c0.61-1.2,1.45-2.09,2.52-2.67l0.34,0.09l0.34-0.36l0.22-0.02c0.37-0.03,0.87,0.25,1.48,0.82c0.45-0.5,0.94-0.76,1.46-0.8
			l0.25-0.02c1.89,0.57,2.83,1.26,2.83,2.07l0.22,0.21V8.1l-0.11,0.01l-1.6-0.23c-0.52,0.22-0.79,0.73-0.79,1.54l0.11,0.44
			l-0.22,0.71l0.22,0.66v3.75l-0.11,0.68l0.11,0.67l-0.11,0.7l0.11,0.78l-0.11,0.34c0,0.37,0.64,1.2,1.93,2.47v0.34
			c-0.88,0.89-1.57,1.77-2.04,2.66l0.11,0.1l0.11-0.01l-0.22,1.36l0.22,0.55l-0.11,0.59l0.11,1.23v0.22l-0.22,0.71l0.22,0.55
			l-0.11,1.38l0.11,0.33l-0.22,0.24l0.22,0.21v0.11c0,0.55-0.11,0.86-0.34,0.92l-0.34-0.09c0,0.17,0.15,0.24,0.45,0.22l0.11,0.1
			v0.11c0,0.91-0.49,2.27-1.48,4.06c-1.41,2.3-3.45,3.54-6.13,3.73l-0.9,0.06l-0.7-0.09l-0.45,0.17c-1.99-0.18-3.54-0.6-4.65-1.27
			c-1.23-1.01-2.02-2.2-2.38-3.58l0.11-0.12v-0.11l-0.58-2.79l0.11-0.79L5.23,30.7l0.25-0.8c-0.17,0.01-0.28-0.81-0.36-2.47
			l0.22-0.94l-0.22-0.66V25.5l0.11-0.46c0-0.55-0.6-1.46-1.8-2.73l1.68-2.16c0-0.28,0.16-0.67,0.47-1.16
			c-0.18,0.01-0.34-0.13-0.47-0.42v-0.22l0.11-0.01l-0.11-0.8c0-1.44,0.34-2.18,1.03-2.23V15.2l-0.22,0.02l-0.45,0.26l-0.25-0.66
			v-0.34l0.11-0.46l-0.22-0.57v-0.22l0.11-0.01c-0.12-2.64-0.46-3.94-1.01-3.91l-1.37,0.1L2.51,9.66L2.39,9.67V9.33
			C3.05,8.06,4.34,7.03,6.26,6.23z M5,9.74v0.22l0.81,0.17l0.22-0.02V10L5,9.74z M5.92,23.51v0.11l0.45,0.19l0.11-0.01
			c0-0.1-0.15-0.21-0.45-0.31L5.92,23.51z M6.93,28.43v0.11l0.92,0.27c0-0.12-0.27-0.25-0.81-0.39L6.93,28.43z M7.52,14.66v0.11
			l0.11-0.01l0.56-0.15V14.5l-0.34,0.02L7.52,14.66z M7.74,10.44v0.11l0.56-0.04V10.4L7.74,10.44z M7.97,37.54v0.22l0.34-0.14v-0.11
			L7.97,37.54z M8.42,14.26v0.22l0.34-0.14v-0.11L8.42,14.26z M8.53,10.61v0.11L9.2,10.9l0.11-0.01v-0.11L8.64,10.6L8.53,10.61z
			 M8.53,37.28v0.11l0.56-0.04v-0.11L8.53,37.28z M9.31,25.54L9.2,25.66v0.11l0.47-0.03v-0.11L9.31,25.54z M9.56,29.5v0.11l0.11,0.1
			l0.34-0.02v-0.11L9.56,29.5z M10.23,29.79v0.11l0.67,0.18c0-0.13-0.19-0.23-0.56-0.3L10.23,29.79z M17.85,31.64l0.22,0.21
			l0.11-0.01l-0.22-0.21L17.85,31.64z M18.19,11.53v0.11l0.56-0.04v-0.11l-0.22,0.02V11.4L18.19,11.53z M18.41,32.05l0.22,0.21
			l0.11-0.01l-0.22-0.21L18.41,32.05z M18.75,31.35v0.22l0.45,0.08v-0.22L18.75,31.35z M18.97,27.81v0.11l0.22-0.24v-0.11
			L18.97,27.81z M19.31,32.46v0.11l0.7,0.4v-0.22L19.31,32.46z M19.42,21.78l0.36-0.14V21.4L19.42,21.78z M19.54,10.99
			c0.58-0.34,0.93-0.63,1.03-0.88l-0.11,0.01C19.87,10.41,19.57,10.7,19.54,10.99z M19.78,31.62v0.11l0.45,0.08
			c0-0.15-0.11-0.22-0.34-0.2L19.78,31.62z M20.34,33.17c0,0.15,0.15,0.21,0.45,0.19v0.22l0.34-0.02v-0.11L20.34,33.17z
			 M20.46,31.68v0.22l0.56-0.04v-0.11L20.46,31.68z M21.13,33.68v0.11l0.45,0.08c0-0.15-0.11-0.22-0.34-0.2L21.13,33.68z
			 M21.24,31.96v0.11l0.34,0.09l0.11-0.01v-0.11l-0.34-0.09L21.24,31.96z"/>
	</g>
	<g>
		<g>
			<path class="st0" d="M33.15,13.02c0.01-0.38-0.02-0.72-0.19-0.97l-0.17,0.12C32.9,12.37,33.01,12.64,33.15,13.02z"/>
		</g>
		<g>
			<path class="st0" d="M30.95,28.9l0.11-0.01c0.01-0.01,0.03-0.02,0.05-0.04c-0.15-0.35-0.29-0.72-0.43-1.09l-0.06,0.35
				C30.64,28.44,30.74,28.69,30.95,28.9z"/>
		</g>
		<g>
			<path class="st8" d="M31.13,28.84l0.23-0.2l0.77-0.05l0.1,0.09c-0.02-0.08-0.09-0.32-0.09-0.32c-0.15-0.21-0.23-0.46-0.24-0.75
				l-0.34-0.32l0.15-0.24l-0.28-0.83l-0.45,0.03l0.17-1.23c-0.21-0.28-0.36-0.68-0.45-1.2c-0.02-0.02-0.03-0.05-0.05-0.08
				l-0.01,0.16l0.06,0.05v0.83l-0.06,0.06l0.06,0.78v0.42c0,0.05,0,0.09-0.01,0.14l0.09,0.11l-0.14,0.59l0.07,0.73l-0.03,0.16
				c0.14,0.37,0.28,0.73,0.43,1.09C31.12,28.85,31.12,28.85,31.13,28.84z"/>
		</g>
		<g>
			<path class="st8" d="M29.09,32.15c-0.33,0-0.66-0.07-0.99-0.21l-0.52,0.24l-0.51,0.04l-0.05,0c-0.06,0-0.13-0.01-0.19-0.02
				l-0.33,0.24l-0.52-0.48c-0.05-0.02-0.24-0.1-0.71-0.18l-0.23-0.04l-1.49-1.16c-0.04,0-0.08,0-0.11,0l0.09,0.27L23.41,31v0.21
				c0,0.21-0.02,0.4-0.04,0.56c1.31,0.72,3.98,1.32,6.06,0.35c-0.06,0.01-0.11,0.02-0.17,0.02C29.2,32.15,29.14,32.15,29.09,32.15z"
				/>
		</g>
		<g>
			<path class="st8" d="M33.15,13.02c0.21,0.57,0.47,1.38,0.82,2.56v-0.36c0-0.55,0.04-0.96,0.12-1.29l-0.2-0.9l0.09-0.09l-0.02-0.1
				l0.08-0.39l-0.09-0.44l0.09-0.27c-0.03-0.16-0.06-0.27-0.08-0.34c-0.12,0.07-0.32,0.18-0.63,0.4l-0.35,0.24
				C33.14,12.3,33.17,12.65,33.15,13.02z"/>
		</g>
		<g>
			<path class="st8" d="M25.23,28.57l0.18-0.05l0.14-0.16l-0.09-0.3l0.14-0.36l-0.11-0.56l0.05-0.28l-0.15-0.43l0.11-0.12l0-0.01
				v-0.68l0.04-0.17l-0.05-0.19l0.07-0.78l-0.06-0.8v-0.28l0.05-0.31l-0.05-0.25v-0.5l0.01-0.01c-0.05-0.09-0.14-0.19-0.31-0.3
				l-0.03-0.02l-0.19,0.19c-0.17,0.17-0.32,0.34-0.47,0.5c0.66,1.3,0.11,2.97,0.29,4.48c-0.09,0.32,0,0.83,0.03,1.31l0.37,0.07
				L25.23,28.57z"/>
		</g>
		<g>
			<path class="st8" d="M25.33,18.74l0.18-0.05l0.14-0.16l-0.09-0.3l0.14-0.36l-0.11-0.56l0.05-0.28l-0.15-0.43l0.11-0.12l0-0.01
				v-0.68l0.04-0.17l-0.05-0.19l0.07-0.78l-0.06-0.8v-0.28l0.05-0.31l-0.05-0.25v-0.5l0.01-0.01c-0.05-0.09-0.14-0.19-0.31-0.3
				l-0.03-0.02l-0.19,0.19c-0.17,0.17-0.32,0.34-0.47,0.5c0.66,1.3,0.11,2.97,0.29,4.48c-0.09,0.32,0,0.83,0.03,1.31l0.37,0.07
				L25.33,18.74z"/>
		</g>
		<g>
			<path class="st8" d="M35.1,32.38c-0.27-0.07-0.46-0.17-0.61-0.29l-0.28-0.07l-0.11-0.07c-0.53-0.31-0.97-0.9-1.37-1.8l-0.11,0.12
				c-0.19,0.21-0.37,0.39-0.55,0.55c1.26,2.14,2.88,3.27,5.07,1.62c-0.37,0.02-0.71,0.04-0.99,0.04
				C35.7,32.47,35.36,32.44,35.1,32.38z"/>
		</g>
		<g>
			<path class="st8" d="M31.93,10.47c-0.01,0.01-0.03,0.02-0.04,0.04c0,0,0.01,0,0.01,0.01L31.93,10.47z"/>
		</g>
		<g>
			<path class="st1" d="M28.89,22.18c-0.03-0.1-0.05-0.21-0.09-0.3L28.89,22.18z"/>
		</g>
	</g>
	<g>
		<path d="M27.8,9.26l0.15,0.14l0.15-0.16l0.38,0.2V9.37c1.01,0.4,1.55,0.7,1.61,0.89c0.28-0.02,0.49,0.15,0.62,0.5
			c0.15-0.01,0.23,0.09,0.23,0.29c0.32-0.02,0.58,0.34,0.77,1.1l-0.08,0.24l0.08-0.08l0.08-0.01c0.31,0.32,0.85,1.88,1.61,4.66
			l0.38,0.97L33.72,18v0.08c0.21,0.27,0.56,1.32,1.08,3.15l0.08-0.01l0.15-1.86l-0.08-0.3v-0.31l0.15-0.16l-0.15-0.3l0.08-0.39
			l-0.08-0.61l0.08-0.08v-0.08l-0.15-0.45l0.23-0.25l-0.23,0.02v-1.23c0-0.6,0.05-1.02,0.15-1.24l-0.15-0.68l0.08-0.08l-0.08-0.38
			l0.08-0.39l-0.08-0.38l0.08-0.24c-0.1-0.97-0.44-1.43-1-1.39c-0.19,0.01-0.58,0.22-1.15,0.62L32.72,11v-0.08
			c0.67-0.87,1.28-1.4,1.85-1.59c0-0.1,0.08-0.16,0.23-0.17l0.23,0.06V9.14l0.23-0.25l0.31-0.02c0.35-0.02,0.68,0.13,1,0.47
			c0.36-0.33,0.67-0.51,0.92-0.53l0.31,0.06l0.46-0.11l1.23,0.53l-0.08,0.24l0.08-0.08l0.08-0.01c0.5,0.45,0.78,0.79,0.85,1.02
			l-0.08,0.08l-0.08,0.01c-0.22-0.29-0.65-0.42-1.31-0.37c-0.51,0.04-0.77,0.54-0.77,1.52l-0.08,0.01l0.08,0.38v0.85
			c0,0.1-0.08,0.16-0.23,0.17l0.23,0.37l-0.23,0.25v0.08l0.23,0.06V14L38.11,14l0.08,0.53v1.23c0,0.36-0.05,0.64-0.15,0.86
			l0.08,0.07v0.08l-0.08,0.08v0.08l0.08,0.3l-0.08,0.08l0.08,0.23c0.1-0.01,0.15,0.19,0.15,0.6c0.36,0.09,0.54,0.26,0.54,0.5v0.15
			l0.23-0.17l0.38,0.43v0.15c-0.92,1.08-1.38,1.8-1.38,2.17l0.15,0.14l-0.15,0.24l0.08,0.07l0.08-0.01l-0.08,0.39v0.15l0.08,0.3
			l-0.08,0.08v0.08l0.08,0.07V23l-0.08,0.08v0.08l0.08,0.23l-0.08,0.08v0.08l0.08,0.07v0.08l-0.08,0.08v0.08l0.08,0.07V24
			l-0.08,0.24l0.08,0.46l-0.15,0.16v0.23l0.15,0.22v0.15l-0.08,0.31l0.08,0.3l-0.15,0.47l0.15,0.14v0.08l-0.08,0.08l0.08,0.07v0.15
			l-0.08,0.08l0.08,0.07v0.31l-0.15,0.16l0.15,0.53l-0.08,0.08c0.04,0.51,0.22,0.96,0.54,1.35l0.92-0.06l0.69-0.66L40.34,29
			c-0.4,0.99-0.96,1.64-1.69,1.96l-1.15,0.54l-0.23,0.02c-1.49,0.1-2.23,0.03-2.23-0.23l-0.46-0.12c-0.58-0.34-1.09-1.33-1.54-2.97
			l0.08-0.08l0.08-0.01v-0.15c-0.26,0.02-0.38-0.13-0.38-0.43l0.08-0.24l-0.15-0.14l0.15-0.24c-0.21,0.01-0.31-0.21-0.31-0.67
			l-0.08,0.08l-0.08,0.01l-0.15-0.45l0.15-0.16c-0.17,0.01-0.27-0.13-0.31-0.44l-0.08,0.01l0.08-0.54v-0.15
			c-0.27,0.02-0.45-0.35-0.54-1.12c-0.31-0.31-0.72-1.49-1.23-3.53c-0.19-0.24-0.35-0.64-0.46-1.2l-0.08,0.01v1.92l-0.15,0.24
			l0.15,0.53l-0.15,0.7l0.15,0.45v0.23l-0.08,1.47l0.08,0.07v0.08l-0.08,0.08v0.08l0.08,1.07v0.38c0,0.1-0.08,0.16-0.23,0.17
			l0.23,0.29l-0.08,0.31l0.08,0.76l-0.08,0.47c0,0.85,0.38,1.49,1.15,1.92l0.08-0.01v-0.15l0.23-0.02c0.17-0.01,0.35-0.1,0.54-0.27
			l0.08-0.01l0.15,0.14c-0.59,0.66-1.1,1-1.54,1.03c-0.4,0.34-0.81,0.52-1.23,0.55c-0.35,0.02-0.71-0.08-1.08-0.31l-0.77,0.36
			l-0.31,0.02c-0.1,0.01-0.15-0.07-0.15-0.22L26.8,31.1l-0.23,0.17c-0.17-0.16-0.55-0.28-1.15-0.38l-1-0.78v-0.08l0.15-0.01
			l0.62,0.11l0.23-0.02l0.38-0.1l0.15,0.14l0.08-0.01l-0.08-0.07V30l0.69-0.82l-0.15-0.53l0.15-0.4l-0.15-0.76l0.08-0.39l-0.08-0.23
			l0.08-0.08l-0.08-0.38v-0.62l0.08-0.31l-0.08-0.3l0.08-0.85l-0.08-0.99v-0.23l0.08-0.47l-0.08-0.38v-0.15l0.08-0.08
			c0-0.56-0.28-1.03-0.85-1.4l-0.31-0.44v-0.23c0.77-0.76,1.15-1.4,1.15-1.93l-0.08-0.84v-1.15l0.08-0.7l-0.08-0.53
			c0-0.45,0.23-0.77,0.69-0.97v-0.08l-0.08,0.01l-0.46,0.34l-0.15-0.14v-0.92l0.15-0.01l-0.08-0.3l0.08-0.24
			c-0.12,0.01-0.19-0.29-0.23-0.91l-0.61-0.42l-0.31,0.02c-0.3,0.02-0.58,0.14-0.85,0.37l-0.15,0.01V11.5
			c0.92-0.99,1.46-1.49,1.61-1.5l0.69-0.43C26.94,9.45,27.28,9.35,27.8,9.26z M27.11,14.08l0.08-0.01l0.15-0.16l-0.08,0.01
			L27.11,14.08z M27.49,13.44v0.08l0.08,0.23l0.08-0.01V13.5l-0.08-0.07L27.49,13.44z M27.88,13.26v0.08l0.08,0.23l0.08-0.01v-0.08
			l-0.08-0.23L27.88,13.26z M27.88,26.56l0.08-0.01l0.15-0.16l-0.08,0.01L27.88,26.56z M28.42,25.99v0.23l0.15-0.01l0.31-0.33
			l-0.08-0.07l0.08-0.08L28.42,25.99z M32.11,24.19v0.15l0.23-0.09V24.1L32.11,24.19z M32.88,23.75l0.08-0.01l0.23-0.09V23.5
			L32.88,23.75z M33.57,23.24c0,0.1-0.08,0.16-0.23,0.17l-0.08,0.08v0.08l0.08-0.01l0.31-0.33L33.57,23.24z M34.26,22.81l-0.08,0.08
			v0.08l0.08-0.01l0.23-0.09v-0.08L34.26,22.81z M35.49,21.88l-0.77,0.67v0.08c0.56-0.39,0.85-0.64,0.85-0.75L35.49,21.88z
			 M35.11,10.45c0,0.12,0.13,0.18,0.38,0.2C35.49,10.53,35.36,10.47,35.11,10.45z M36.18,10.99v0.15l0.46,0.12l0.08-0.01v-0.08
			L36.18,10.99z M36.18,21.37l0.08-0.01l0.15-0.16l-0.08,0.01L36.18,21.37z M36.95,11.39l0.15,0.14l0.15-0.01v-0.15L36.95,11.39z
			 M37.11,21.69l-0.08,0.08v0.08l0.46-0.11v-0.08L37.11,21.69z M37.11,20.53v0.15l0.23-0.09v-0.08L37.11,20.53z M37.57,20.04
			l0.08-0.01l0.15-0.16l-0.08,0.01L37.57,20.04z M38.03,19.09l-0.08,0.24v0.15l0.08-0.01l0.08-0.31v-0.08L38.03,19.09z M38.11,19.77
			v0.08l0.31-0.02v-0.08L38.11,19.77z M38.65,18.81l-0.15,0.16l-0.23,0.32l0.08-0.01l0.38-0.41v-0.08L38.65,18.81z"/>
	</g>
	<g>
		<g>
			<path class="st8" d="M42.9,28.48v-0.95l0.09-0.13l-0.19-0.7l0.15-0.16l-0.05-0.59v-0.19c0-1.48,0.05-2.55,0.15-3.24l-0.17-0.45
				l0.1-0.61l-0.07-0.68l-1.43-1.72l0.43-0.57c0.88-1.16,1.04-1.56,1.07-1.65l0.09-1.29l-0.17-0.67v-0.39l0.21-1.83
				c-0.24-0.49-0.27-1.2-0.29-1.74l-0.01-0.16l0.01-0.02c-0.06-0.02-0.13-0.04-0.23-0.05c-0.04,0-0.12,0.02-0.25,0.16l-0.62,0.7
				c1.05,1.4,0.57,7.28-1,8.41c2.36,2.08,0.97,4.51,1.36,7.66c-0.08,0.23-0.06,0.51-0.04,0.8l0.59,0.25
				C42.76,28.59,42.84,28.53,42.9,28.48z"/>
		</g>
		<g>
			<path class="st8" d="M46.02,31.42c-0.43,0.16-0.91,0.22-1.23,0.25l-0.1,0.01l-0.1-0.01c-1.53-0.17-2.59-0.58-3.25-1.28
				l-0.37-0.41c-3.35-0.75,1.69,3.53,3.75,1.83c0.54,0.62,1.63,0.41,2.63-0.09c-0.04,0-0.08,0-0.12,0
				C46.79,31.72,46.38,31.62,46.02,31.42z"/>
		</g>
		<g>
			<path class="st8" d="M40.87,9.65c0-0.01,0.01-0.02,0.02-0.03c-0.74,0.67-1.16,1.57-1.01,2.71c0.33-0.48,0.62-0.77,0.88-0.94V9.85
				L40.87,9.65z"/>
		</g>
		<g>
			<path class="st8" d="M49.08,10.36L49.11,11c0.2,0.04,0.42,0.09,0.66,0.14c-0.04-0.28-0.12-0.53-0.23-0.77l-0.28-0.06
				C49.18,10.33,49.13,10.35,49.08,10.36z"/>
		</g>
	</g>
	<g>
		<path d="M44.92,7.95c0.28-0.02,0.68,0.19,1.19,0.63c0.33-0.45,0.65-0.68,0.94-0.7c1.72-0.12,2.83,0.46,3.33,1.75L49.26,9.4
			c-0.73,0.12-1.1,0.35-1.1,0.71l0.08,2.05v0.46l-0.08,0.64l0.08,0.63l-0.08,0.56l0.08,0.71v1.83l1.27,1.49v0.15
			c-0.37,0.55-0.67,0.84-0.88,0.85l0.1,0.09v0.08c-0.32,0.3-0.51,0.68-0.56,1.13l0.08,1.49v1.35l-0.15,0.01v0.73l0.08,0.46
			l-0.08,0.08v0.08l0.15,0.95l-0.08,1.83l0.08,0.23l-0.08,0.31c0.55,0.6,0.92,0.9,1.1,0.88c0.31-0.02,0.65-0.18,1.04-0.48l0.08-0.01
			c0,0.6-0.58,1.12-1.75,1.54l-0.08-0.07l-0.08,0.01c-0.46,0.4-0.83,0.62-1.1,0.63c-0.55,0.04-1-0.14-1.35-0.54
			c0,0.23-0.45,0.4-1.35,0.5c-1.29-0.14-2.19-0.47-2.69-1l-0.4-0.45l0.08-0.08l0.96,0.41c0.83-0.31,1.25-0.74,1.25-1.28l-0.08-0.07
			v-0.48l0.17-0.24l-0.17-0.62l0.08-0.08l-0.08-0.96v-0.15c0-1.62,0.06-2.73,0.17-3.34l-0.17-0.45l0.08-0.49L43.8,20.7v-0.25
			l-1.17-1.42c0.83-1.1,1.25-1.81,1.25-2.14l0.1-1.43l-0.17-0.7v-0.23l0.25-2.17c-0.18,0.01-0.29-0.48-0.33-1.48l0.08-0.24
			c0-0.47-0.39-0.77-1.17-0.88l-0.1,0.01c-0.32,0.02-0.61,0.18-0.87,0.46v-0.15C42.16,9.19,43.03,8.5,44.28,8L44.92,7.95z
			 M44.28,10.21c0,0.12,0.08,0.17,0.23,0.16l0.08-0.01v-0.1L44.28,10.21z M44.28,20.67v0.08l0.15-0.01l0.25-0.34v-0.08l-0.33,0.35
			L44.28,20.67z M44.69,20.16v0.08l0.15-0.01l0.23-0.32v-0.08c-0.08,0.01-0.15,0.11-0.23,0.32L44.69,20.16z M45.23,20.75v0.08
			l0.33-0.02v-0.15L45.23,20.75z M45.4,19.17l-0.08,0.24l0.15-0.01v-0.23L45.4,19.17z M45.78,18.5l-0.15,0.32v0.15l0.08-0.01
			l0.15-0.4V18.5L45.78,18.5z M45.71,9.95v0.08l0.56-0.12V9.84l-0.33,0.02L45.71,9.95z M46.11,26.86v0.08L46.42,27
			c0-0.1-0.08-0.15-0.23-0.14L46.11,26.86z M46.26,26.3v0.15l0.23-0.02v-0.08L46.26,26.3z M46.42,17.5l-0.08,0.26l0.15-0.01v-0.25
			L46.42,17.5z M46.42,9.75l0.15,0.14l0.08-0.01V9.73L46.42,9.75z M46.57,17.18l-0.08,0.24l0.15-0.01l0.1-0.24L46.57,17.18z
			 M46.74,26.51v0.08l0.31,0.06l0.08-0.01v-0.08l-0.31-0.06L46.74,26.51z M46.82,16.76v0.08l0.15-0.16v-0.08L46.82,16.76z
			 M46.9,9.56v0.15l0.31-0.1V9.54L46.9,9.56z M46.9,19.45v0.08l0.23-0.25l-0.08,0.01L46.9,19.45z M46.9,27.21v0.15l0.31,0.06
			L46.9,27.21z M47.21,16.02l-0.08,0.26v0.08l0.08-0.01l0.17-0.34L47.21,16.02z M47.38,15.53v0.17l0.23-0.09v-0.17L47.38,15.53z
			 M47.38,26.7v0.15l0.38-0.03l0.08,0.07l0.08-0.01v-0.15l-0.38,0.03l-0.08-0.07L47.38,26.7z"/>
	</g>
	<g>
		<g>
			<path class="st8" d="M58.22,30.96c-0.41,0-1.05-0.13-2.73-1.09l-0.12-0.07l-0.1-0.11c-0.71-0.78-1.27-1.49-1.68-2.12l-0.15-0.23
				v-0.32c-0.22-0.35-0.4-0.86-0.62-1.49l-0.04-0.12l-0.24-0.27l-0.45-1.81l-0.2-1.3l0.08-0.12c-0.08-0.38-0.4-0.78-0.96-1.18
				l-0.1-0.07l-0.75-0.95l1.36-1.73l0.11-0.6l-0.04-0.04l0.04-0.44c0.04-0.48,0.09-0.82,0.18-1.08l-0.08-0.31l0.13-0.27l-0.03-0.09
				l0.05-0.26c0.57-2.72,1-3.76,1.3-4.26c0.06-0.27,0.17-0.46,0.29-0.61c0.03-0.2,0.11-0.42,0.23-0.63
				c-1.45,1.67-2.44,4.13-2.73,6.63c-0.05,1.41-0.22,3.48-1.55,4.58c2.22,1.87,1.92,5.16,3.14,7.48c1.68,3.2,4.36,3.71,6.57,2.74
				c-0.26,0.04-0.52,0.08-0.8,0.1L58.22,30.96z"/>
		</g>
		<g>
			<path class="st8" d="M59.83,14.08l-0.05-0.05v-0.59l0.02-0.06l-0.02-0.02v-1.55l0.12-0.01l0.02-0.02
				c-0.07-0.88-0.42-1.09-0.54-1.16l-0.1-0.06c-0.12-0.02-0.35-0.06-0.75-0.09l-0.05,0.02c-0.15,0.17-0.26,0.37-0.33,0.59
				c0.69,0.54,1.2,2.07,0.75,4.81c0,0,0.35,1.02,0.35,1.02c0.04-0.25,0.47-0.39,1.01-0.46l-0.48-1.4L59.83,14.08z"/>
		</g>
		<g>
			<path class="st8" d="M59.94,25.12v-0.15c-0.05-0.16-0.08-0.34-0.08-0.53v-0.36l0.01-0.01l-0.02-0.11l0.08-0.91l-0.02-0.13
				c-0.02-0.01-0.04-0.01-0.06-0.02c-1.42-0.13-0.73,2.09-0.79,2.95c0.03,0.2,0,0.4-0.07,0.6C59.93,25.87,59.94,25.32,59.94,25.12z"
				/>
		</g>
		<g>
			<path class="st8" d="M60.84,16.39c0.69-0.05,1.39-0.05,1.59-0.09c0.12-0.09,0.24-0.23,0.32-0.38l-1.56,0.11L60.84,16.39z"/>
		</g>
		<g>
			<path class="st1" d="M60.39,16.87l0.45-0.48c-0.2,0.01-0.4,0.03-0.59,0.06L60.39,16.87z"/>
		</g>
	</g>
	<g>
		<path d="M58.49,6.93l0.98-0.07c0.38,0.13,0.74,0.18,1.06,0.16c0,0.15,0.22,0.23,0.67,0.24l1.13,0.77c0.62-0.49,1.02-0.92,1.21-1.3
			l0.08-0.01v0.83l0.08,0.07V7.7c-0.08,0.01-0.15,0.11-0.23,0.32c0.15-0.01,0.23,0.03,0.23,0.12v0.23l-0.08,0.08l0.08,0.07V8.6
			l-0.08,0.08l0.08,0.07v0.38l-0.08,0.45l0.08,0.07v0.08l-0.08,0.24l0.08,0.23l-0.15,0.14l0.15,0.14l-0.08,0.39l0.08,0.23l-0.15,0.3
			l0.15,0.14l-0.08,0.08l0.08,0.07v0.08l-0.08,1.45v0.08l-0.08,0.08v0.06l0.15,0.14v0.38l-0.23,0.32l0.23,0.35v0.15l-0.15,0.16
			l-2.04,0.14l-0.08-0.07l-0.08,0.08l-0.37,0.03l-0.08-0.07l-0.08,0.01l-0.08,0.08l-0.08-0.23l0.08-1.22l-0.08-0.07v-0.06l0.15-0.47
			l-0.15-0.14v-0.31l0.15-0.01v-0.08l-0.15-0.2v-0.08l0.15-0.16c0-1.12-0.33-1.87-0.98-2.28c0-0.13-0.46-0.22-1.37-0.29V9.5
			l-0.38,0.16V9.59c-0.65,0.56-0.98,1.31-0.98,2.26L57,12.01v0.15l0.06,0.53L57,12.78l0.13,0.13v0.85L57,13.76l0.06,0.36v0.23
			L57,14.82l0.13,0.43l-0.08,0.08l0.08,0.07v0.15L57,16.24l0.06,0.3l-0.06,0l0.13,0.59v0.31l-0.08,0.31c0,0.13,0.43,0.62,1.29,1.49
			c-0.19,0.35-0.54,0.75-1.06,1.21L57,21.6v0.38l0.06,0.28L57,22.58l0.13,0.3L57,23.49l0.13,0.53L57,24.18l-0.38-0.13l-0.08,0.01
			v0.08c0.35,0.01,0.52,0.12,0.52,0.33L57,24.93l0.13,0.59l-0.08,0.08v0.08c0.32,1.29,0.8,1.91,1.44,1.86l0.46-0.03
			c1.26-0.61,1.88-1.41,1.88-2.38l0.08-0.08l0.21,0.06l0.23-0.02v-0.08c-0.4,0.03-0.6-0.16-0.6-0.57l0.08-0.08l-0.08-0.44l0.08-0.91
			l-0.08-0.46l0.08-0.08l0.15-0.01l0.13,0.14l0.23-0.09l2.19-0.23v0.23l-0.08,0.01l0.15,1.28v0.9l-0.15,0.24l0.15,0.2l-0.08,0.39
			v0.23l-0.23,0.02v-0.15l-0.13,0.01c0,0.15,0.1,0.22,0.29,0.21l0.08,0.07v0.08c-0.37,1.13-1.03,2-1.96,2.62
			c-0.63,0.85-1.74,1.33-3.33,1.44c-0.37,0.03-1.15-0.3-2.33-0.97c-0.68-0.75-1.21-1.42-1.6-2v-0.15l0.08-0.24l-0.08,0.01
			c-0.1,0.01-0.33-0.48-0.67-1.45l0.08-0.08l-0.38-0.43l-0.38-1.55l-0.13-0.89l0.06-0.08v-0.08c0-0.74-0.45-1.44-1.35-2.1
			l-0.23-0.29l1.06-1.34l0.23-1.3l-0.08-0.07c0.05-0.61,0.13-0.96,0.23-1.07l-0.08-0.3l0.15-0.32l-0.08-0.21
			c0.46-2.19,0.88-3.55,1.27-4.11c0.04-0.3,0.14-0.45,0.31-0.46v-0.15c0-0.37,0.18-0.69,0.54-0.94c0.14-0.59,0.64-1.1,1.5-1.55
			c0.05-0.17,0.33-0.34,0.83-0.5C57.21,7.14,57.64,6.99,58.49,6.93z M53.82,24.69v0.23l0.29-0.17l-0.08-0.07V24.6L53.82,24.69z
			 M54.65,24.04c-0.1,0.24-0.21,0.37-0.31,0.41v-0.08l-0.23,0.09v0.13l0.08-0.06l0.15-0.01l0.08,0.05l0.08-0.01
			c0-0.19,0.13-0.32,0.38-0.39V24.1L54.65,24.04z M54.8,10.36l0.13-0.01v-0.15c0.15-0.01,0.23-0.07,0.23-0.17l-0.08,0.01L54.8,10.36
			z M55.63,23.22c0,0.13-0.15,0.26-0.46,0.4v0.15l0.54-0.48v-0.08L55.63,23.22z M55.63,9.24l-0.08,0.08V9.4l0.08-0.01l0.23-0.09
			V9.22L55.63,9.24z M55.78,23.65l-0.08,0.24l0.52-0.04v-0.08l-0.29-0.13L55.78,23.65z M56.53,23.67l-0.08,0.08v0.08l0.38,0.13
			l0.08-0.01v-0.08L56.53,23.67z M58.8,9.17l-0.08,0.08v0.08l0.23-0.02L58.8,9.17z M59.09,8.92L59.03,9v0.15l0.06,0l0.08-0.24
			L59.09,8.92z M59.09,8.69v0.08l0.31-0.02V8.67L59.09,8.69z M60.01,7.88v0.23l0.08-0.01l0.06-0.23L60.01,7.88z M60.69,7.83v0.08
			l0.08-0.01c0-0.15,0.08-0.24,0.23-0.25l0.08-0.24l-0.08,0.01C60.89,7.46,60.79,7.59,60.69,7.83z M60.76,9.86v0.08l0.37,0.13V9.91
			l-0.29-0.06L60.76,9.86z M61.28,10.81v0.15l0.23-0.02v-0.08L61.28,10.81z M61.59,24.92v0.08l0.23-0.02v-0.15L61.59,24.92z
			 M61.74,10.7l0.31,0.44v0.08l0.13-0.01l-0.06-0.07v-0.08l0.06-0.08V10.9C62.06,10.91,61.91,10.84,61.74,10.7z M61.9,25.18v0.08
			l0.23,0.06v-0.15L61.9,25.18z M62.19,25.24v0.15l0.38-0.03v-0.08L62.19,25.24z M62.26,11.28v0.13l0.15-0.01
			c0,0.15,0.08,0.23,0.23,0.21v0.15l0.15-0.01l-0.38-0.49L62.26,11.28z M63.24,11.88v0.31l0.15-0.01c0.1-0.01,0.15-0.09,0.15-0.24
			v-0.08l-0.08,0.01v0.15l-0.15,0.01v-0.15L63.24,11.88z"/>
	</g>
	<g>
		<g>
			<path class="st0" d="M72.23,23.88c-0.05-1.73,0.52-4.08-0.53-5.33c-0.09,0.14-0.13,0.22-0.15,0.26l-0.07,1.2l0.06,0.23l0.01,0.01
				v0.02l0.1,0.37l-0.1,0.11v0.6l-0.01,0.02l-0.03,0.15l0.09,0.23l-0.12,0.44l0.07,1.7l0,0.11c0,0.08-0.01,0.16-0.03,0.25
				c0.06,0.16,0.1,0.36,0.11,0.58c0.12,0.45,0.27,0.68,0.46,0.68l0.16-0.01C72.42,24.95,72.45,24.33,72.23,23.88z"/>
		</g>
		<g>
			<path class="st0" d="M71.6,10.59l0.03,0.24l-0.08,3.46l-0.01,0.09l0.02,0.01v0.86c0.1,0.14,0.31,0.39,0.7,0.77
				c0.19-1.24,0.19-4.75-0.55-5.81v0.27L71.6,10.59z"/>
		</g>
		<g>
			<path class="st8" d="M72.19,29.91c-0.09,0.01-0.19,0.01-0.28,0.01c-1.41,0-2.78-0.74-4.09-2.19l-0.05-0.06l-1.2-1.93v-0.26
				c0-0.23-0.08-0.44-0.25-0.66l-0.31-0.39l0.04-0.13l-0.37-0.34l0.22-0.32c-0.28-0.61-0.38-1.53-0.44-2.56
				c-0.08-0.19-0.14-0.43-0.17-0.75l0-0.07v-0.56l0.05-0.18l-0.05-0.19v-0.26l-1.17-1.16v-0.87l0.22-0.25
				c0.63-0.74,0.87-1.07,0.96-1.21c0.03-0.99,0.28-2.34,0.78-4.12l0.04-0.13l0.07-0.11c0.23-0.37,0.41-0.86,0.53-1.44l0.03-0.14
				l0.07-0.12c0.36-0.65,0.71-1.17,1.06-1.57c-1.65,1.56-2.97,4.44-3.46,8.65c-0.62,0.94-2.04,1.83,0.04,3.22
				c-0.21,2.66,0.67,4.77,1.23,6.68c1.95,3.81,4.43,4.43,6.63,3.37l-0.04,0.01L72.19,29.91z"/>
		</g>
		<g>
			<path class="st8" d="M72.26,16.02c0.02,0.02,0.04,0.04,0.06,0.06c0.46-0.55,0.69-0.87,0.81-1.04v-0.43l0.06-0.08
				c-0.05-0.16-0.06-0.3-0.06-0.42l0-0.06l0.07-1.03l-0.09-0.99l0.06-0.2l-0.05-0.29v-0.87l0.06-0.21
				c-0.04-0.17-0.13-0.44-0.31-0.86c-0.05-0.01-0.13-0.01-0.23-0.01c-0.07,0-0.15,0-0.24,0.01L72.33,9.6
				c-0.28,0.02-0.47,0.12-0.63,0.34l0.01,0.03v0.24C72.45,11.27,72.45,14.78,72.26,16.02z"/>
		</g>
		<g>
			<path class="st8" d="M73.09,22.99l0.11-0.41l-0.09-1.82l-0.01-0.02l0.09-0.79l-0.08-0.58l0.07-0.71c-0.08-0.13-0.29-0.43-0.81-1
				c-0.35,0.43-0.56,0.71-0.68,0.9c1.05,1.25,0.47,3.6,0.53,5.33c0.22,0.44,0.19,1.06,0.01,1.63l0.26-0.02
				c0.19-0.01,0.39-0.22,0.57-0.59l-0.34,0.03l0.5-1.47L73.09,22.99z"/>
		</g>
	</g>
	<g>
		<path d="M72.19,6.05l0.23-0.02c0.78-0.05,1.64,0.23,2.58,0.86l1.04,1.18l0.23-0.09v0.08c0.58,0.82,0.99,1.67,1.25,2.57
			c0.17,0.13,0.34,0.61,0.52,1.44l-0.08,0.24c0.15-0.01,0.28,0.4,0.37,1.22l-0.21,0.02c0.19,0.31,0.29,0.54,0.29,0.71l-0.08,0.45
			c0.09-0.01,0.21,0.21,0.37,0.65l-0.06-0.07l-0.08,0.01v0.08c0.35,0.03,0.52,0.16,0.52,0.41c0.24,0.1,0.49,0.3,0.73,0.6l-1.12,1.35
			l-0.21,0.38l0.08,0.21l-0.08,0.24l0.08,0.36l-0.67,3.58l0.08,0.3c-0.23,0.86-0.53,1.5-0.88,1.91c0,0.91-0.71,1.94-2.13,3.09
			c-0.87,0.77-1.49,1.18-1.85,1.24l-0.6-0.11l-0.37,0.1c-1.22,0.09-2.43-0.54-3.63-1.88l-1.02-1.64c0-0.44-0.15-0.84-0.44-1.22
			l0.08-0.22l-0.23-0.21l0.15-0.22v-0.08c-0.35,0.02-0.57-0.9-0.67-2.76c-0.08,0.01-0.13-0.16-0.15-0.51v-0.44l0.08-0.29l-0.08-0.3
			v-0.08l0.08-0.37l-1.25-1.24v-0.15c0.78-0.91,1.17-1.45,1.17-1.62c0-0.91,0.25-2.26,0.75-4.05c0.29-0.47,0.51-1.05,0.65-1.74
			c0.68-1.21,1.29-1.92,1.85-2.13L69.4,7.8V7.72c0.47-0.78,1.04-1.19,1.69-1.23C71.21,6.24,71.57,6.09,72.19,6.05z M67.55,17.44
			l0.06,0l0.44-0.18v-0.08l-0.06,0C67.7,17.25,67.55,17.34,67.55,17.44z M67.69,23.7l0.15,0.14l0.08-0.01v-0.15L67.69,23.7z
			 M68.57,16.93v0.08L68.65,17l0.37-0.1v-0.15L68.57,16.93z M69.4,23.97c0,0.09,0.07,0.13,0.21,0.12l0.15-0.01V24L69.4,23.97z
			 M69.61,16.63l0.08-0.01l0.15-0.14l-0.08,0.01L69.61,16.63z M69.98,24.14c0,0.1,0.08,0.15,0.23,0.14l0.08-0.01v-0.08L69.98,24.14z
			 M70.05,16.31v0.15l0.29-0.1v-0.08L70.05,16.31z M70.73,9.69l0.08,0.38v0.06l-0.15,0.16l0.08,0.59l-0.08,3.33l-0.08,0.51
			l0.08,0.07v0.08l-0.08,0.08v0.08l0.08,0.07v0.06l-0.08,0.08v0.08c0.08,0.32,0.49,0.83,1.25,1.55v0.06
			c-0.78,0.94-1.17,1.54-1.17,1.79l-0.08,1.41l0.08,0.28l-0.15,0.16l0.15,0.12V21l-0.08,0.08l0.08,0.05v0.08l-0.08,0.39l0.08,0.21
			l-0.08,0.29l0.08,1.84v0.08c0,0.1-0.1,0.16-0.31,0.18v0.15c0.26-0.02,0.38,0.19,0.38,0.63c0.24,1.02,0.73,1.51,1.46,1.46
			l0.38-0.03c0.77-0.05,1.33-0.76,1.69-2.12c-0.03-0.24-0.1-0.36-0.23-0.35l0.15-0.45l-0.15-0.51l0.08-0.29l-0.08-1.63l0.08-0.08
			l0.08-0.01l-0.15-0.35l0.08-0.66l-0.08-0.59l0.08-0.81c0-0.22-0.42-0.79-1.25-1.7c0.83-0.98,1.25-1.57,1.25-1.78l-0.08-0.07v-0.08
			l0.23-0.3c-0.15-0.17-0.23-0.34-0.23-0.5l0.08-1.1l-0.08-0.88l0.08-0.24l-0.08-0.44v-0.67l0.08-0.29
			c-0.05-0.39-0.27-0.99-0.65-1.8l-0.08,0.01L73.3,8.77c-0.22-0.09-0.54-0.12-0.96-0.09l-0.08,0.01c-0.65,0.05-1.14,0.37-1.46,0.99
			L70.73,9.69z M71.75,8.15v0.06l0.38,0.05l0.06,0V8.18l-0.37-0.03L71.75,8.15z M72.42,8.24v0.15l0.37,0.05l0.15-0.01V8.36
			L72.42,8.24z M73.01,27.33v0.08l0.13-0.01l0.31-0.1v-0.08l-0.15,0.01L73.01,27.33z M74.34,25.24l0.29,0.21l0.15-0.01v-0.08
			l-0.37-0.13L74.34,25.24z M74.86,25.43v0.13l0.08-0.01l0.13-0.14L74.86,25.43z M75.07,14.48l0.08-0.01l0.15-0.14l-0.08,0.01
			L75.07,14.48z M75.59,14.07v0.08l0.08,0.07v0.08l-0.08,0.06v0.15l0.08-0.01c0-0.14,0.07-0.22,0.21-0.23l0.23,0.04l-0.37-0.26
			L75.59,14.07z M76.03,13.97v0.08l0.23-0.02c0-0.1,0.07-0.16,0.21-0.17V13.8l-0.08,0.01L76.03,13.97z M76.03,25.79v0.06l0.31-0.02
			v-0.06L76.03,25.79z M76.4,13.58v0.15l0.08-0.01l0.31-0.25l-0.08,0.01L76.4,13.58z M77.23,13.52v0.08l0.29-0.02V13.5L77.23,13.52z
			 M77.59,13.42v0.08l0.13-0.01l0.31-0.1v-0.08l-0.15,0.01L77.59,13.42z M77.8,14.96v0.08l0.31,0.04l0.08-0.01v-0.06l-0.31-0.06
			L77.8,14.96z"/>
	</g>
	<g>
		<path d="M89.63,4.75c1.17-0.08,2.26,0.32,3.29,1.21c1.01,1.12,1.52,2.21,1.52,3.26c-0.03,0.51-0.08,0.77-0.15,0.78l0.15,0.28
			c0,1.2-0.41,2.38-1.23,3.53c-0.13,0.01-0.48,0.41-1.06,1.21v0.15c1.2,0.43,1.89,0.89,2.06,1.39l0.15,0.3l-0.08,0.24l0.08-0.01
			c0.15-0.01,0.23,0.26,0.23,0.81v0.31l-0.08,0.47l0.08,0.07l-0.08,0.54l0.08,0.82l-0.15,0.32l0.08,0.22l-0.15,1.01
			c0.15,0.51,0.28,1.47,0.38,2.86c0.32,0.34,0.6,0.5,0.83,0.48L95.65,25c0.19-0.01,0.4-0.13,0.62-0.35l0.08-0.01v0.08
			c0,0.27-0.08,0.43-0.23,0.48l-0.23,0.02l-0.46-0.05l-0.08,0.01v0.08l0.77,0.1c-0.3,0.74-1.19,1.46-2.67,2.17l-0.31,0.1l-0.21,0.01
			c-0.6,0.04-1.12-0.28-1.54-0.97c-0.22,0.02-0.54-0.34-0.98-1.07l0.08-0.08v-0.08l-0.08-0.46l0.23,0.06l0.08-0.01v-0.08
			c-0.1,0.01-0.15-0.07-0.15-0.22l-0.23-0.21l0.08-0.22L90.32,24l0.15-1.01l-0.15-0.14v-0.46l0.15-0.16l-0.08-0.51l0.08-0.24
			l-0.08-0.46v-0.23l0.08-0.31l-0.08-0.3V20.1l0.08-0.6l-0.08-0.61l0.08-0.08v-0.08c-0.12,0.01-0.19-0.32-0.23-0.98
			c0-0.4-0.69-0.57-2.06-0.53l-1,0.07v2.6l-0.08,1.45l0.08,0.38l-0.08,0.08l0.08,0.38v0.6l-0.15,0.16l0.15,0.53l-0.08,0.08
			l0.08,0.07l-0.08,0.08l-0.08,0.01l0.15,0.76l-0.08,0.08v0.06l0.08,0.3l-0.08,0.24c0.37,0.74,0.78,1.1,1.23,1.07
			c0.24-0.02,0.52-0.19,0.83-0.52l0.08-0.01v0.08c-0.18,0.49-0.43,0.83-0.75,1.03c-0.38,0.8-0.9,1.22-1.54,1.26
			c-0.68-0.03-1.31-0.32-1.9-0.87c-0.46,0.6-0.89,0.91-1.29,0.94l-0.15,0.01c-0.78,0.05-1.7-0.54-2.75-1.79v-0.08L82,26.49
			l0.46-0.11l0.23,0.06l-0.08-0.07v-0.08c0.12-0.01,0.27-0.33,0.46-0.96c-0.1,0.01-0.15-0.07-0.15-0.22L83,25.03l-0.08-0.36v-0.15
			L83,23.9l-0.08-0.46L83,23.21l-0.08-0.46v-0.37L83,22.3l-0.08-0.07v-2.36l0.15-0.24l-0.15-1.74L83,17.65l-1.13-1.15l-0.08-0.07
			v-0.08c0.81-0.98,1.21-1.64,1.21-1.99l0.08-0.54L83,13.75V13.6l0.08-0.29l-0.15-0.45v-0.08l0.15-0.16l-0.15-0.53L83,11.69
			l-0.08-0.69v-0.67L83,9.94l-0.08-0.53l0.15-1.84c-0.33-0.34-0.67-0.49-1-0.47l-1.21,0.7V7.73c0.58-0.89,1.26-1.49,2.06-1.82
			c0.13-0.21,0.46-0.34,1-0.38c0.35,0.04,0.75,0.29,1.21,0.74C86.3,5.44,87.11,5,87.57,4.97l0.08-0.01l0.08,0.07L89.63,4.75z
			 M84.07,16.5c0,0.14-0.31,0.29-0.92,0.45v0.08l0.23-0.02c0.44-0.24,0.76-0.36,0.98-0.38v-0.15l-0.08,0.08l-0.08,0.01l-0.06-0.07
			L84.07,16.5z M83.38,16.55v0.08l0.38-0.03v-0.08L83.38,16.55z M83.61,13.78v0.15l0.31,0.13v-0.08L83.61,13.78z M85.44,16.1v0.15
			l0.38-0.1v-0.08L85.44,16.1z M85.82,6.09v0.08l0.38-0.03V6.06L85.82,6.09z M88.03,7.23c0,0.15-0.05,0.23-0.15,0.24L87.8,7.4
			l-0.38,0.1l-0.23,0.02v0.77l-0.08,0.29l0.08,0.07v0.08l-0.08,0.62l0.08,1.07l-0.08,0.45l0.08,0.61v0.54l-0.15,0.24l0.15,0.45
			l-0.08,0.53l0.08,0.3l-0.08,0.31c0,0.46,0.15,0.68,0.46,0.66l1.06,0c1.03-0.37,1.54-0.91,1.54-1.65c0-0.4,0.13-0.61,0.38-0.62
			v-0.08c-0.21,0.01-0.31-0.06-0.31-0.21v-1.52l0.15-0.17c-0.19-1.72-0.45-2.56-0.77-2.54c0-0.19-0.38-0.32-1.13-0.38V7.27
			l-0.08,0.08l-0.31,0.02V7.22L88.03,7.23z M87.26,5.99v0.08l0.38,0.03l0.08-0.01V6.04l-0.38-0.05L87.26,5.99z M87.26,15.43v0.08
			l0.23-0.02l0.54-0.19v-0.06l-0.23,0.02L87.26,15.43z M87.34,16.66v0.15l0.23-0.02v-0.08L87.34,16.66z M87.88,6.08v0.08l0.38,0.05
			l0.23-0.02V6.04l-0.08,0.01l-0.31,0.1l-0.08-0.07L87.88,6.08z M88.5,14.98l0.08,0.07v0.08l0.29-0.1v-0.15L88.5,14.98z
			 M88.71,15.25v0.08l0.38-0.03v-0.08L88.71,15.25z M89.01,6.23v0.08l0.31,0.06V6.21L89.01,6.23z M89.32,14.61v0.15l0.38-0.18v-0.08
			l-0.15,0.01L89.32,14.61z M90.01,6.32v0.08l0.54,0.04l0.15-0.01V6.35L90.24,6.3L90.01,6.32z M90.24,14.09v0.15l0.23-0.09v-0.08
			L90.24,14.09z M90.32,15.45v0.08l0.38,0.05l0.13-0.01v-0.08l-0.44-0.05L90.32,15.45z M90.84,6.41v0.08l0.31-0.02V6.39L90.84,6.41z
			 M91.07,15.55c0,0.1,0.08,0.15,0.23,0.14l0.08-0.01V15.6L91.07,15.55z M91.23,13.64v0.08l0.23-0.02l0.08-0.08v-0.08l-0.08,0.01
			L91.23,13.64z M91.3,6.54v0.08l0.54,0.04l0.38-0.03V6.55l-0.85-0.02L91.3,6.54z M91.69,24.97v0.08l0.85,0.17l0.23-0.02
			c0-0.08-0.33-0.16-1-0.24L91.69,24.97z M91.99,15.79v0.08l0.31,0.06l0.15-0.01v-0.08l-0.38-0.05L91.99,15.79z M92.38,6.61v0.08
			l0.46,0.04l0.15-0.01V6.65L92.53,6.6L92.38,6.61z M92.38,12.94v0.08l0.15-0.01l0.31-0.25l-0.08,0.01L92.38,12.94z M92.99,25.1
			l-0.08,0.08v0.08l0.67-0.05v-0.08L92.99,25.1z M93.21,16.17v0.15l0.31-0.02v-0.08L93.21,16.17z M94.28,25.17
			c0,0.1,0.08,0.15,0.23,0.14l0.08-0.01v-0.08L94.28,25.17z"/>
	</g>
	<g>
		<g>
			<path class="st0" d="M103.04,22.7l0.11,0.13l-0.17,0.67l0.09,0.93l-0.1,0.63c0.01,0.52,0.19,0.92,0.55,1.25l0.32-0.02
				c-0.01,0,0.05-0.03,0.15-0.12l0.23-0.2l0.03,0c-0.42-1.2-0.81-2.53-1.18-3.86v0.35C103.07,22.54,103.06,22.62,103.04,22.7z"/>
		</g>
		<g>
			<path class="st0" d="M88.09,18.78l0,1.14l-0.07,1.33l0.15,0.72l-0.08,0.08l0,0.01v1.04l-0.05,0.05l0,0l0.42,0.39l-0.44,0.48
				l0.14,0.69L88.1,24.8l0.03,0.12l-0.04,0.11c0.08,0.13,0.15,0.2,0.19,0.23c0.04-0.03,0.11-0.09,0.2-0.18
				C88.38,23.42,89.4,19.83,88.09,18.78z"/>
		</g>
		<g>
			<path class="st0" d="M88.03,10.89l0.07,0.53v0.86l-0.06,0.1l0.08,0.25l-0.08,0.56l0.09,0.35L88.1,13.6l0.34,0
				c0.44-1.42,0.02-3.55-0.39-4.45l-0.03,0.22l0.08,1.09L88.03,10.89z"/>
		</g>
		<g>
			<path class="st0" d="M95.18,16.48l0.15,0.29l-0.02,0.05c0.11,0.25,0.18,0.6,0.18,1.07v0.38l-0.01,0.06l0.07,0.06l-0.13,0.91
				l0.09,0.97l-0.1,0.21l0.03,0.08l-0.16,1.04c0.13,0.53,0.24,1.32,0.33,2.4c0,0,0.25-0.25,0.25-0.25l0.3-0.02
				C96.24,21.29,96.9,18.4,95.18,16.48z"/>
		</g>
		<g>
			<path class="st0" d="M94.47,28.04V28c-0.03,0.02-0.06,0.04-0.1,0.06c0.05,0.01,0.09,0,0.13,0.01L94.47,28.04z"/>
		</g>
		<g>
			<path class="st0" d="M96.31,26.65c-0.01,0.01-0.03,0.02-0.04,0.04l0.03,0.01C96.31,26.68,96.31,26.67,96.31,26.65z"/>
		</g>
		<g>
			<path class="st8" d="M108.89,30.22c-0.32-0.08-0.54-0.21-0.7-0.35l-0.38-0.1l-0.11-0.07c-0.68-0.41-1.26-1.22-1.77-2.51
				l-0.39,0.43c-0.15,0.16-0.29,0.31-0.43,0.45c0.57,1.15,1.21,2,1.99,2.29c1.32,1.02,2.94,0.69,4.33-0.09
				c-0.48,0.03-0.9,0.05-1.26,0.05C109.62,30.33,109.2,30.29,108.89,30.22z"/>
		</g>
		<g>
			<path class="st8" d="M97.18,12.41l-0.1-1.05V9.82L97.18,9l-0.09-0.62V8.32c0-0.21,0.03-0.41,0.08-0.6l-0.08-0.07v-2.4l0.02,0
				c-0.04-0.16-0.06-0.33-0.08-0.48l-0.16-0.11L96.8,4.66c-0.18,0.01-0.36,0.1-0.55,0.26L96.02,5.1l-0.32,0.02
				c1.14,0.62,0.07,2.47,0.65,3.37c-0.21,2.35,0.12,3.99-0.61,5.92L96,14.16C97.02,13.16,97.17,12.62,97.18,12.41z"/>
		</g>
		<g>
			<path class="st8" d="M94.57,3.78c-1.24,1.22-1.34,2.41,1.01,1.35L94.57,5.2V3.78z"/>
		</g>
		<g>
			<path class="st8" d="M106.95,8.14c-0.02,0.08-0.02,0.17-0.04,0.26c0.2,0.65,0.42,1.41,0.67,2.31l0.08,0.19v-0.08l-0.13-0.37
				l0.13-0.14V8.84c0-0.7,0.05-1.22,0.16-1.62l-0.24-1.08l0.11-0.11l-0.04-0.2l0.1-0.49l-0.11-0.53l0.11-0.33
				c-0.08-0.54-0.21-0.72-0.24-0.76c-0.09,0.03-0.37,0.16-1.03,0.62l-0.01,0C107.26,5.01,106.48,7.25,106.95,8.14z"/>
		</g>
		<g>
			<path class="st8" d="M113.79,3.37c-0.03,0.06-0.11,0.23-0.14,0.61c0.2,0.07,0.42,0.16,0.67,0.29c0.27-0.26,0.33-0.54,0.27-0.82
				c-0.06-0.03-0.22-0.09-0.57-0.09C113.94,3.36,113.87,3.37,113.79,3.37z"/>
		</g>
		<g>
			<path class="st8" d="M97.11,23.15l-0.02-0.11v-0.98l0.07-0.28l-0.08-0.31l0.1-1.15l-0.09-1.21v-0.4l0.08-0.5l-0.08-0.4v-0.64
				l0.05-0.06c-0.07-0.21-0.23-0.45-0.61-0.7l-0.15-0.1l-0.65-0.93v-0.92c-0.19,0.49-0.44,0.99-0.79,1.53
				c0.03,0.07,0.07,0.13,0.09,0.2l0.15,0.29c1.72,1.91,1.05,4.81,0.97,7.26l0.93-0.07l-0.12-0.36L97.11,23.15z"/>
		</g>
		<g>
			<path class="st8" d="M99.29,29.97l-0.59,0.04l-0.05,0c-0.1,0-0.2-0.01-0.29-0.04l-0.34,0.25l-0.55-0.51c0,0,0,0,0,0
				c-0.01,0-0.22-0.12-0.98-0.25l-0.23-0.04l-1.76-1.36c-0.04,0-0.08,0-0.13-0.01c-0.18,0.09-0.36,0.19-0.55,0.28l-0.05,0.03
				l-0.06,0.02c1.12,2.29,4.71,2.58,7.52,1.54c-0.41,0-0.82-0.1-1.23-0.29L99.29,29.97z"/>
		</g>
		<g>
			<path class="st8" d="M105.13,28.09l0.83-0.91c0,0-0.49-1.34-0.6-1.75l-0.04-0.14c-0.19-0.25-0.28-0.57-0.28-0.94l-0.36-0.34
				l0.15-0.24l0,0l-0.45-1.33l-0.45,0.03l0.19-1.37c-0.38-0.43-0.53-1.1-0.59-1.54c-0.14-0.2-0.29-0.49-0.47-0.94l-0.07,1.24
				l0.08,0.07v0.85l-0.08,0.08l0.08,1.08v0.16c0.38,1.32,0.76,2.65,1.18,3.86L105.13,28.09z"/>
		</g>
		<g>
			<path class="st8" d="M89.39,24.44l-0.12-0.7l0.17,0.04l0.07-0.46l-0.09-0.09v-1.21l0.1-0.11l-0.04-0.29l0.07-0.23l-0.05-0.31
				v-0.42l0.05-0.2l-0.05-0.19v-0.25l0.07-0.54l-0.09-0.74c-0.05-0.2-0.08-0.4-0.1-0.59c-0.15-0.02-0.4-0.05-0.79-0.05
				c-0.12,0-0.24,0-0.36,0.01l-0.12,0.01l0,0.66c1.31,1.05,0.29,4.64,0.39,6.3c0.01-0.01,0.01-0.01,0.02-0.02l0.24-0.26l0.53-0.04
				L89.39,24.44z"/>
		</g>
		<g>
			<path class="st8" d="M83.83,29.02l-0.15,0.01c-0.05,0-0.11,0.01-0.16,0.01c-1.05,0-2.14-0.69-3.34-2.11l-0.08-0.09
				c-0.38-0.07-0.77-0.19-1.01-0.22c0.08,2.97,5.02,3.46,7.38,2.29c-0.45-0.08-0.89-0.25-1.3-0.5
				C84.73,28.78,84.29,28.99,83.83,29.02z"/>
		</g>
		<g>
			<path class="st8" d="M81.15,18.68c0.12,2.01-0.09,4.58,0,6.72l0.56,0.11v-0.06l0.34-0.02c-0.02-0.1-0.03-0.2-0.03-0.31v-0.65
				l0.07-0.54l-0.09-0.54l0.08-0.24l-0.05-0.31V19.6l0.13-0.2l-0.13-1.45l-0.8-0.81l-0.34-0.31v-0.8l0.21-0.25
				c0.81-0.99,0.97-1.37,1-1.46V14.3l0.02-0.14l-0.02-0.02v-0.67l0.04-0.14L82.01,13v-0.58l0.05-0.05l-0.07-0.24l0.09-0.47
				l-0.07-0.6v-0.81l0.06-0.32l-0.07-0.48l0.11-1.31l-1.19,0.68c0.89,0.72-0.23,4.65,0.33,6.09C81.43,15.86,78.79,17.3,81.15,18.68z
				"/>
		</g>
		<g>
			<path class="st8" d="M92.81,28.54c-0.56,0-1.34-0.2-2.01-1.12c-0.32-0.17-0.61-0.49-0.9-0.92c-0.19,0.36-0.42,0.66-0.7,0.89
				c-0.01,0.02-0.03,0.04-0.04,0.06c0.88,1.25,2.48,1.94,3.89,1.07l-0.07,0.01C92.92,28.54,92.87,28.54,92.81,28.54z"/>
		</g>
		<g>
			<path class="st8" d="M88.44,13.6l0.03,0c0.8-0.32,0.8-0.63,0.8-0.74c0-0.25,0.04-0.47,0.1-0.66c-0.02-0.08-0.03-0.17-0.03-0.25
				v-1.87l0.11-0.12c-0.09-0.67-0.17-1.07-0.24-1.3L88.72,8.7V8.28c-0.07-0.01-0.15-0.02-0.24-0.03l-0.15,0.01
				c-0.08,0.04-0.16,0.07-0.24,0.08v0.43l-0.05,0.37C88.46,10.05,88.88,12.18,88.44,13.6z"/>
		</g>
		<g>
			<path class="st8" d="M79.96,7.55c-0.56,0.56-0.89,1.21-0.88,1.94c0.34-0.28,0.63-0.48,0.88-0.61V7.55z"/>
		</g>
		<g>
			<path class="st1" d="M95.58,5.13l0.12-0.01c-0.02-0.01-0.03-0.02-0.04-0.03C95.63,5.11,95.61,5.11,95.58,5.13z"/>
		</g>
		<g>
			<path class="st1" d="M95.73,14.43v0.04c0.01-0.02,0.01-0.04,0.02-0.05L95.73,14.43z"/>
		</g>
	</g>
	<g>
		<path d="M99.64,1.32l0.19,0.18l0.19-0.21l0.48,0.26v-0.1c1.28,0.51,1.95,0.88,2.04,1.12c0.36-0.03,0.61,0.18,0.78,0.62
			c0.19-0.01,0.29,0.11,0.29,0.37c0.4-0.03,0.73,0.43,0.97,1.39l-0.1,0.3l0.1-0.1l0.1-0.01c0.39,0.41,1.07,2.37,2.04,5.87l0.48,1.23
			l-0.1,0.1v0.1c0.26,0.34,0.71,1.66,1.36,3.98l0.1-0.01l0.19-2.34l-0.1-0.38v-0.39l0.19-0.21l-0.19-0.37l0.1-0.49l-0.1-0.77
			l0.1-0.1v-0.1l-0.19-0.57l0.29-0.31l-0.29,0.02V8.84c0-0.76,0.06-1.28,0.19-1.57l-0.19-0.86l0.1-0.1l-0.1-0.48l0.1-0.49l-0.1-0.48
			l0.1-0.3c-0.13-1.22-0.55-1.8-1.26-1.75c-0.24,0.02-0.73,0.28-1.45,0.78l-0.1-0.09v-0.1c0.84-1.09,1.62-1.76,2.33-2
			c0-0.13,0.1-0.2,0.29-0.21l0.29,0.08v-0.1l0.29-0.31l0.39-0.03c0.44-0.03,0.86,0.17,1.26,0.59c0.45-0.42,0.84-0.64,1.16-0.66
			l0.39,0.07l0.58-0.14l1.55,0.67l-0.1,0.3l0.1-0.1l0.1-0.01c0.63,0.57,0.99,1,1.07,1.28l-0.1,0.1l-0.1,0.01
			c-0.28-0.37-0.82-0.52-1.65-0.47c-0.65,0.05-0.97,0.68-0.97,1.91l-0.1,0.01l0.1,0.48v1.07c0,0.13-0.1,0.2-0.29,0.21l0.29,0.46
			l-0.29,0.31v0.1l0.29,0.08v0.19l-0.1,0.01l0.1,0.67v1.55c0,0.45-0.06,0.81-0.19,1.08l0.1,0.09v0.1l-0.1,0.1v0.1l0.1,0.38l-0.1,0.1
			l0.1,0.28c0.13-0.01,0.19,0.24,0.19,0.76c0.45,0.11,0.68,0.32,0.68,0.63v0.19l0.29-0.21l0.48,0.55v0.19
			c-1.16,1.36-1.74,2.27-1.74,2.74l0.19,0.18l-0.19,0.3l0.1,0.09l0.1-0.01l-0.1,0.49v0.19l0.1,0.38l-0.1,0.1v0.1l0.1,0.09v0.1
			l-0.1,0.1v0.1l0.1,0.28l-0.1,0.1v0.1l0.1,0.09v0.1l-0.1,0.1v0.1l0.1,0.09v0.1l-0.1,0.3l0.1,0.57l-0.19,0.21v0.29l0.19,0.28v0.19
			l-0.1,0.4l0.1,0.38l-0.19,0.6l0.19,0.18v0.1l-0.1,0.1l0.1,0.09v0.19l-0.1,0.1l0.1,0.09v0.39l-0.19,0.21l0.19,0.66l-0.1,0.1
			c0.05,0.64,0.27,1.21,0.68,1.7l1.16-0.08l0.87-0.84l0.1,0.09c-0.5,1.25-1.21,2.07-2.13,2.47l-1.45,0.68l-0.29,0.02
			c-1.87,0.13-2.81,0.04-2.81-0.29l-0.58-0.15c-0.73-0.43-1.37-1.68-1.94-3.74l0.1-0.1l0.1-0.01v-0.19
			c-0.32,0.02-0.48-0.16-0.48-0.55l0.1-0.3l-0.19-0.18l0.19-0.3c-0.26,0.02-0.39-0.26-0.39-0.84l-0.1,0.1l-0.1,0.01l-0.19-0.57
			l0.19-0.21c-0.21,0.01-0.34-0.17-0.39-0.55l-0.1,0.01l0.1-0.69v-0.19c-0.34,0.02-0.57-0.45-0.68-1.41
			c-0.39-0.39-0.9-1.88-1.55-4.45c-0.24-0.31-0.44-0.81-0.58-1.51l-0.1,0.01v2.42l-0.19,0.3l0.19,0.67l-0.19,0.89l0.19,0.57v0.29
			l-0.1,1.85l0.1,0.09v0.1l-0.1,0.1v0.1l0.1,1.35v0.48c0,0.13-0.1,0.2-0.29,0.21l0.29,0.37l-0.1,0.39l0.1,0.96l-0.1,0.59
			c0,1.07,0.48,1.87,1.45,2.42l0.1-0.01v-0.19l0.29-0.02c0.21-0.02,0.44-0.13,0.68-0.34l0.1-0.01l0.19,0.18
			c-0.74,0.83-1.39,1.26-1.94,1.3c-0.5,0.42-1.02,0.65-1.55,0.69c-0.44,0.03-0.89-0.1-1.36-0.39l-0.97,0.46l-0.39,0.03
			c-0.13,0.01-0.19-0.08-0.19-0.28l-0.1,0.01l-0.29,0.21c-0.21-0.2-0.69-0.36-1.45-0.48l-1.26-0.98v-0.1l0.19-0.01l0.78,0.14
			l0.29-0.02l0.48-0.13l0.19,0.18l0.1-0.01l-0.1-0.09v-0.1l0.87-1.03l-0.19-0.67l0.19-0.5l-0.19-0.96l0.1-0.49l-0.1-0.28l0.1-0.1
			l-0.1-0.48v-0.78l0.1-0.39l-0.1-0.38l0.1-1.07l-0.1-1.25v-0.29l0.1-0.59l-0.1-0.48v-0.19l0.1-0.1c0-0.71-0.36-1.3-1.07-1.77
			l-0.39-0.55v-0.29c0.97-0.96,1.45-1.77,1.45-2.43l-0.1-1.06V9.87l0.1-0.88l-0.1-0.67c0-0.56,0.29-0.97,0.87-1.22v-0.1L98.77,7
			l-0.58,0.43l-0.19-0.18V6.09l0.19-0.01l-0.1-0.38l0.1-0.3c-0.15,0.01-0.24-0.37-0.29-1.14l-0.78-0.53l-0.39,0.03
			c-0.37,0.03-0.73,0.18-1.07,0.46l-0.19,0.01v-0.1c1.16-1.24,1.84-1.87,2.04-1.89l0.87-0.55C98.56,1.56,98.98,1.43,99.64,1.32z
			 M98.77,7.39l0.1-0.01l0.19-0.21l-0.1,0.01L98.77,7.39z M99.25,6.58v0.1l0.1,0.28l0.1-0.01V6.66l-0.1-0.09L99.25,6.58z
			 M99.74,6.35v0.1l0.1,0.28l0.1-0.01v-0.1l-0.1-0.28L99.74,6.35z M99.74,23.12l0.1-0.01l0.19-0.21l-0.1,0.01L99.74,23.12z
			 M100.42,22.39v0.29l0.19-0.01l0.39-0.41l-0.1-0.09l0.1-0.1L100.42,22.39z M105.07,20.13v0.19l0.29-0.12v-0.19L105.07,20.13z
			 M106.04,19.58l0.1-0.01l0.29-0.12v-0.19L106.04,19.58z M106.91,18.94c0,0.13-0.1,0.2-0.29,0.21l-0.1,0.1v0.1l0.1-0.01l0.39-0.41
			L106.91,18.94z M107.78,18.39l-0.1,0.1v0.1l0.1-0.01l0.29-0.12v-0.1L107.78,18.39z M109.33,17.22l-0.97,0.84v0.1
			c0.71-0.49,1.07-0.8,1.07-0.95L109.33,17.22z M108.85,2.81c0,0.15,0.16,0.23,0.48,0.26C109.33,2.92,109.17,2.83,108.85,2.81z
			 M110.21,3.49v0.19l0.58,0.15l0.1-0.01v-0.1L110.21,3.49z M110.21,16.57l0.1-0.01l0.19-0.21l-0.1,0.01L110.21,16.57z M111.18,4
			l0.19,0.18l0.19-0.01V3.97L111.18,4z M111.37,16.98l-0.1,0.1v0.1l0.58-0.14v-0.1L111.37,16.98z M111.37,15.52v0.19l0.29-0.12v-0.1
			L111.37,15.52z M111.95,14.9l0.1-0.01l0.19-0.21l-0.1,0.01L111.95,14.9z M112.53,13.7l-0.1,0.3v0.19l0.1-0.01l0.1-0.39v-0.1
			L112.53,13.7z M112.63,14.56v0.1l0.39-0.03v-0.1L112.63,14.56z M113.31,13.35l-0.19,0.21l-0.29,0.41l0.1-0.01l0.48-0.52v-0.1
			L113.31,13.35z"/>
	</g>
	<g>
		<path class="st8" d="M85.98,16.08l-1.04-1.68c-0.01-1.92-0.07-3.84-0.16-5.75c-0.12,1.91-0.21,3.83-0.25,5.75l-1.08,1.65
			l1.04,1.68c0,2.15,0.05,4.29,0.16,6.43c0.14-2.14,0.22-4.29,0.26-6.44L85.98,16.08z"/>
	</g>
	<g>
		<path class="st8" d="M56.57,18.96l-1.04-1.68c-0.01-2.03-0.06-4.06-0.16-6.09c-0.13,2.03-0.21,4.06-0.25,6.1l-1.07,1.64l1.04,1.68
			c0.01,2.03,0.06,4.06,0.16,6.09c0.13-2.03,0.21-4.06,0.25-6.1L56.57,18.96z"/>
	</g>
	<g>
		<path class="st8" d="M47.09,18.96l-1.04-1.68c-0.01-2.03-0.06-4.06-0.16-6.09c-0.13,2.03-0.21,4.06-0.25,6.1l-1.07,1.64l1.04,1.68
			c0.01,2.03,0.06,4.06,0.16,6.09c0.13-2.03,0.21-4.06,0.25-6.1L47.09,18.96z"/>
	</g>
	<g>
		<path class="st8" d="M38.11,19.39l-1.04-1.68c-0.01-2.03-0.06-4.06-0.16-6.09c-0.13,2.03-0.21,4.06-0.25,6.1l-1.07,1.64l1.04,1.68
			c0.01,2.03,0.06,4.06,0.16,6.09c0.13-2.03,0.21-4.06,0.25-6.1L38.11,19.39z"/>
	</g>
	<g>
		<path class="st8" d="M29.14,20.25l-1.04-1.68c-0.01-2.03-0.06-4.06-0.16-6.09c-0.13,2.03-0.21,4.06-0.25,6.1l-1.07,1.64l1.04,1.68
			c0.01,2.03,0.06,4.06,0.16,6.09c0.13-2.03,0.21-4.06,0.25-6.1L29.14,20.25z"/>
	</g>
	<g>
		<path class="st8" d="M21.55,21.32l-1.33-2.14c-0.01-2.24-0.06-4.47-0.16-6.7c-0.13,2.24-0.21,4.48-0.25,6.73l-1.36,2.07l1.33,2.14
			c0.01,2.24,0.06,4.47,0.16,6.7c0.13-2.24,0.21-4.48,0.25-6.73L21.55,21.32z"/>
	</g>
	<g>
		<path class="st8" d="M10.1,22.46l-1.69-2.14c-0.01-3.13-0.06-6.26-0.16-9.38C8.13,13.96,8.05,17,8.01,20.04l-1.71,2.45l1.69,2.38
			c0.01,3.05,0.06,6.1,0.16,9.14c0.13-3.11,0.22-6.23,0.25-9.36L10.1,22.46z"/>
	</g>
	<g>
		<path class="st8" d="M112.45,14.56l-1.06-1.69c0-3.22-0.05-6.45-0.16-9.66c-0.13,3.02-0.21,6.06-0.25,9.09l-1.41,2.19l1.39,2.22
			c0,3.2,0.05,6.4,0.16,9.59c0.14-3.35,0.23-6.71,0.26-10.07L112.45,14.56z"/>
	</g>
	<g>
		<path class="st8" d="M101.42,14.56l-1.22-1.95c-0.01-3.14-0.06-6.27-0.16-9.4c-0.13,3.11-0.22,6.23-0.25,9.35l-1.25,1.93
			l1.22,1.95c0,3.29,0.05,6.57,0.16,9.85c0.14-3.26,0.22-6.54,0.26-9.81L101.42,14.56z"/>
	</g>
	<g>
		<path class="st8" d="M75.19,24.82c0.92-1.99,1.29-4.18,1.29-6.42l0.93-1.42l-1.16-1.87c-0.29-2.12-0.83-4.2-1.46-6.1
			c0.44,2.1,0.85,4.25,1.09,6.41l-0.99,1.52l1.18,1.9c0,1.35-0.11,2.7-0.36,4.03C75.6,23.55,75.38,24.18,75.19,24.82z"/>
	</g>
</g>
</svg>
