<?xml version="1.0" encoding="utf-8"?>
<!-- Generator: Adobe Illustrator 27.0.0, SVG Export Plug-In . SVG Version: 6.00 Build 0)  -->
<svg version="1.1" id="Layer_1" xmlns="http://www.w3.org/2000/svg" xmlns:xlink="http://www.w3.org/1999/xlink" x="0px" y="0px"
	 viewBox="0 0 239 316" style="enable-background:new 0 0 239 316;" xml:space="preserve">
<style type="text/css">
	.st0{fill:none;}
	.st1{fill:#FFFFFF;}
	.st2{fill-rule:evenodd;clip-rule:evenodd;}
	.st3{fill-rule:evenodd;clip-rule:evenodd;fill:#FFFFFF;}
	.st4{fill:#040213;}
	.st5{fill-rule:evenodd;clip-rule:evenodd;fill:#F0B505;}
	.st6{fill-rule:evenodd;clip-rule:evenodd;fill:#FFD043;}
	.st7{fill:#5E5E5E;}
	.st8{fill:#F0B505;}
	.st9{fill:#6B6B6B;}
	.st10{fill:#F84143;}
	.st11{fill:#F2722C;}
	.st12{fill:#F7951F;}
	.st13{fill:#8FBD6D;}
	.st14{fill:#43A98A;}
	.st15{fill:#57758F;}
	.st16{fill:#487587;}
	.st17{fill:#F8C64F;}
</style>
<g id="XMLID_00000149375190010400792420000010480134081719400080_">
	<g>
		<path class="st1" d="M221.17,6.9c-0.49,0.65-0.94,1.32-1.31,2.05c-0.23,0.44-0.12,1.09-0.4,1.46c-1.64,2.16-3.39,4.23-5.02,6.39
			c-1.6,2.13-2.99,4.41-4.68,6.47c-2.72,3.3-3.34,8.26-8.04,10.05c-0.51,0.19-0.91,1.36-0.93,2.09c-0.07,2.99-1.57,4.95-4.27,5.84
			c-1.93,0.65-2.53,1.67-2.43,3.67c0.14,2.83-1.54,4.85-4.11,5.56c-2.04,0.55-2.67,1.49-2.69,3.44c-0.02,3.15-1.61,5.17-4.67,6.22
			c-0.78,0.27-1.59,1.46-1.75,2.35c-0.68,3.58-2,6.48-5.7,7.91c-0.75,0.29-1.39,1.66-1.5,2.59c-0.46,4.25-2.14,7.29-6.7,8.22
			c-0.7,0.14-1.63,1.32-1.67,2.07c-0.26,4.51-2.23,7.43-6.81,8.44c-0.61,0.13-1.25,0.91-1.56,1.55c-1.38,2.77-2.65,5.58-4.05,8.55
			c2.87,2.23,5.14,1.9,7.73-1.56c1.72-2.28,3.51-4.53,5.42-6.67c1.99-2.24,4.2-0.79,5.93,0.28c5.77,3.54,9.71,8.69,12.18,14.96
			c2.1,5.32,4.87,10.13,9.86,13.24c1.71,1.08,4.62,2.31,8.35,1.53c0,0-7.27,5.64-9.37,7.29c1.36-1.07,2.61,1.92,3.82,2.82
			c5.9,4.39,8.14,10.97,4.58,17.48c-4.06,7.4-3.7,14.33-0.71,21.74c6.38,15.87,12.47,31.87,18.98,47.69
			c2.6,6.32,6.77,11.68,12.62,15.51c1.46,0.96,1.64,1.84,0.41,3.23c-6.12,6.93-7.11,14.92-6.6,23.69c0.15-0.25,0.32-0.54,0.48-0.87
			c0.96-1.97,1.43-4.13,1.53-6.32c0.14-3.37,0.99-9.74,5.41-11.47c0,0-0.08,1.51-0.88,2.83c-0.5,0.83-0.96,1.68-1.24,2.61
			c-0.41,1.4-0.8,3.39-0.41,5.24c0.27,1.3,0.32,2.63-0.08,3.89c-0.36,1.16-1.01,2.36-2.16,2.83c0,0-1.44,1.33-2.57,2.57
			c2.1,19.57-10.84,15.19-11.05,15.03c-4.11-2.93-8.71-1.57-13.15-1.6c-4.95-0.05-8.97-2.29-12.52-5.54
			c-5.78-5.28-9.79-11.77-12.82-18.92c-1.21-2.84-2.5-5.64-4.1-9.25c-0.31,1.37-0.62,1.94-0.51,2.41
			c2.72,11.91,7.2,23.03,15.73,32.02c3.54,3.73,14.65,7.17,15.41,7.49c-8.8,6.99-23.74,8.86-31.04-3.12
			c-1.76-2.89-3.01-6.14-4.08-9.37c-3.09-9.38-9.31-16.02-17.69-20.87c-1.62-0.94-3.19-1.96-4.83-2.84c-6.8-3.64-10.1-9.42-10.06-17
			c0.01-2.89-1.12-3.34-3.57-3c-18.06,2.45-39.16-8.01-48.06-23.95c-9.41-16.87-10.76-34.62-5.31-53.01
			c0.31-1.07,0.58-2.13,0.95-3.5c-5.07,2.87-9.89,19.76-9.01,33.07c1.77,26.84,16.62,43.62,41.43,52.15
			c-2.88,4.32-5.92,8.39-8.44,12.74c-6.19,10.69-9.34,22.49-10.84,34.59c-1.21,9.73-1.19,19.61-1.7,29.42
			c-0.05,1.1-0.01,2.19-0.01,3.29c-0.47,0.12-0.42,0.11-0.89,0.24c-0.89-1.5-1.89-2.94-2.63-4.51c-6.45-13.71-16.2-24.9-26.82-35.44
			c-7.52-7.46-15.19-14.74-22.48-22.41c-5.01-5.26-7.46-11.85-7.76-19.17c-0.12-2.85-1.9-3.84-4.51-2.75
			c-2.88,1.19-12.78,4.2-9.11,2.48c0.5-0.24,10-4.24,12.33-20.5c0.28-1.92,0.98-4.08,2.15-5.63c3.68-4.91,4.81-17.55,4.61-17.75
			c-5.18,5.18-11.61,23.06-28.8,19.43c1.98-2.08,15.85-8.35,16.31-33.5c0.07-3.75-0.58-5.64,2.99-7.7
			c6.56-3.76,11.82-10.71,14.08-17.8c0.48-1.53,0.94-4.4,1.35-5.95c-0.3-0.22-4.57,4.42-6.39,6.25c-3.51,3.49-6.73,7.38-10.66,10.32
			c-5.94,4.43-21.18,3.92-22.12,3.52c2.5-1.15,4.84-1.77,6.64-3.12c3.2-2.42,6.64-4.85,8.93-8.04c3.29-4.56,5.68-9.77,8.38-14.75
			c4.66-8.63,8.87-17.63,15.88-24.65c8.46-8.46,30.79-18.58,31.19-18.79c-0.05-0.34-9.68-0.78-14.11,0.48
			c-7.12,2.03-13.92,5.17-20.94,7.56c-2.5,0.84-10.64,3.57-13.28,3.97c-0.32-0.55,6.49-6.44,8.46-8.82
			c1.23-1.51,9.31-10.31,10.89-11.33c10.07-6.44,21.05-10.2,33.05-10.89c2.49-0.13,2.89,1.38,3.29,3.22
			c1.55,7.07,4.51,13.39,10.08,18.2c1.64,1.41,5.84,3.14,6.05,2.9c-1.12-1.54-2.28-3.04-3.32-4.63c-8.5-12.93-8.47-26.79-4.17-41
			c3.37-11.11,8.24-21.51,15.69-30.56c0.73-0.88,1.52-1.71,2.31-2.52c0.41-0.43,0.9-0.78,1.36-1.16c-1.81,9.67-1.05,19.03,0.92,28.3
			c0.5,2.34,2.85,4.27,3.42,6.62c1.11,4.58,2.16,9.31,2.15,13.98c-0.01,6.83-3.58,12.68-6.79,18.52c-1.45,2.64-2.78,5.35-4.1,8.05
			c-0.37,0.78-0.5,1.68-0.36,2.71c5.41-9.53,16.19-15.04,19.03-26.41c1.11-4.41,2.21-8.94,4.17-13c2.64-5.49,6.73-10.07,11.02-14.43
			c3.83,3.95,3.73,10.29,0.36,14.23c-2.95,3.44-5.75,7.04-8.3,10.77c-0.92,1.34-0.92,3.31-1.39,5.16
			c7.84-7.84,15.32-15.31,22.84-22.83c2.3,4.12,1.53,10.32-1.21,13.75c-1.14,1.42-1.57,3.4-2.35,5.12
			c-0.22,0.47-0.42,0.97-0.77,1.34c-3.07,3.28-6.3,6.43-9.22,9.84c-1.56,1.83-2.8,4.01-3.79,6.22c-0.35,0.77,0.12,2.5,0.81,2.98
			c0.67,0.47,2.43,0.34,3.08-0.25c2.53-2.25,4.86-4.74,7.17-7.24c3.78-4.09,7.4-8.32,11.22-12.37c4.75-5.04,9.58-10.01,14.47-14.91
			c3.34-3.34,6.9-6.45,10.25-9.78c1.23-1.22,2.04-2.85,3.21-4.14c2.77-3.02,5.41-6.2,8.5-8.85c4.36-3.74,7.57-8.46,11.55-12.48
			c3.33-3.36,7.03-6.36,10.32-9.74c3.11-3.2,5.91-6.7,8.86-10.05c0.32-0.36,0.77-0.6,1.15-0.9c0.29,0.23,0.57,0.44,0.86,0.67
			C224.4,2.73,222.77,4.8,221.17,6.9z"/>
	</g>
</g>
</svg>