<?xml version="1.0" encoding="utf-8"?>
<!-- Generator: Adobe Illustrator 27.0.0, SVG Export Plug-In . SVG Version: 6.00 Build 0)  -->
<svg version="1.1" id="Layer_1" xmlns="http://www.w3.org/2000/svg" xmlns:xlink="http://www.w3.org/1999/xlink" x="0px" y="0px"
	 viewBox="0 0 255 338" style="enable-background:new 0 0 255 338;" xml:space="preserve">
<style type="text/css">
	.st0{fill:none;}
	.st1{fill:#FFFFFF;}
	.st2{fill-rule:evenodd;clip-rule:evenodd;}
	.st3{fill-rule:evenodd;clip-rule:evenodd;fill:#FFFFFF;}
	.st4{fill:#040213;}
	.st5{fill-rule:evenodd;clip-rule:evenodd;fill:#F0B505;}
	.st6{fill-rule:evenodd;clip-rule:evenodd;fill:#FFD043;}
	.st7{fill:#5E5E5E;}
	.st8{fill:#F0B505;}
	.st9{fill:#6B6B6B;}
	.st10{fill:#F84143;}
	.st11{fill:#F2722C;}
	.st12{fill:#F7951F;}
	.st13{fill:#8FBD6D;}
	.st14{fill:#43A98A;}
	.st15{fill:#57758F;}
	.st16{fill:#487587;}
	.st17{fill:#F8C64F;}
</style>
<g>
	<path class="st1" d="M254.48,233.99c-3.29-0.94-6.07-1.21-8.3-2.47c-5.45-3.06-8.67-8.29-10.9-13.85
		c-5.28-13.17-10.04-26.54-15.22-39.75c-2.15-5.5-3.18-10.83-0.47-16.4c0.38-0.78,0.49-1.69,0.66-2.56
		c1.36-7.02,1.44-13.82-3.07-19.99c-0.49-0.67-0.36-2.58,0.41-3.31c4.16-3.9,0.53-12.96-0.09-13.79c-0.75,0.63-4.74,4.2-6.71,2.95
		c-3.6-2.29-5.3-5.84-6.95-9.56c-1.94-4.36-3.78-8.88-6.51-12.74c-2.46-3.5-6.05-6.2-9.26-9.38c-0.03,0.07,0.04-0.22,0.2-0.46
		c13.64-20.33,27.31-40.64,40.93-60.98c5.66-8.46,11.25-16.97,16.79-25.5c0.44-0.68,0.67-1.9,0.35-2.54
		c-0.27-0.53-1.56-0.88-2.28-0.74c-0.76,0.15-1.44,0.93-2.04,1.54c-6.95,7.05-13.83,14.18-20.83,21.18
		c-13.57,13.57-27.2,27.08-40.84,40.58c-2.73,2.7-5.6,5.25-8.41,7.89c0.41-4.47,1.3-8.61,1.02-12.68c-0.28-4.13-2.24-7.88-5.7-10.9
		c-2.8,10.57-2.8,10.57-5.1,11.6c-1.08-7.6-4.22-14.14-9.67-19.86c-0.34,0.72-0.6,1-0.56,1.22c0.98,5.69-0.94,9.86-5.66,13.4
		c-2.98,2.23-5.02,5.7-7.53,8.66c-0.21-0.39-0.55-0.96-0.84-1.56c-3.14-6.46-4.16-13.42-4.68-20.47
		c-0.53-7.33-0.83-14.68-1.24-22.02c-0.06-1.01-0.22-2.02-0.36-3.31c-0.76,0.38-1.15,0.48-1.42,0.72
		c-9.33,8.37-17.46,17.7-23.22,28.93c-4.08,7.94-6.47,16.39-7.29,25.27c-0.23,2.5-1.21,3.65-3.85,3.65
		c-2.53,0.01-5.09,0.36-7.6,0.77c-12.79,2.13-23.38,7.88-31.16,18.55c-5.47,7.5-13.94,16.22-19.57,23.61
		c-0.2,0.27,11.5-0.11,16.56-0.45c-0.71,1.37-4.78,6.95-5.8,9.02c-3.49,7.11-6.68,14.37-10.12,21.5c-6.28,13-19.28,16.81-31.41,9.23
		c-1.86-1.16-3.68-2.38-5.94-3.85c-0.47,5.16,1.77,8.6,4.54,11.61c4.3,4.68,9.86,7.57,15.99,8.75c4.96,0.96,10.11,0.89,15.18,1.25
		c1.33,0.09,2.71-0.72,2.9,1.45c2.09,23.72-19.73,31.12-20.9,31.93c0.98,1.14,6.58,9.78,23.6,5.92c0.98-0.22,1.94-0.51,3.15-0.83
		c-1.39,11.59-8.28,16.75-19.71,17.64c1.48,1.86,2.27,3.04,3.25,4.05c4.03,4.16,9.21,5.39,14.74,5.35c1.89-0.01,2.98,0.36,3.72,2.27
		c0.98,2.54,2.21,5.03,3.66,7.34c6.32,10.09,15.35,17.71,23.85,25.79c8.39,7.98,15.99,16.69,22.28,26.31
		c5.93,9.07,10.72,18.88,16.02,28.36c0.55,0.98,1.16,1.91,1.74,2.87c0.31-0.06,0.63-0.12,0.94-0.19c0-1.69,0-3.39,0-5.08
		c0.04-17.76,0.31-35.48,4.22-52.94c2.94-13.13,7.29-25.58,15.47-36.49c2.08-2.78,4.38-4.16,7.9-3.84c1.72,0.16,2.6,0.42,2.93,2.31
		c1.02,5.86,4.21,10.54,8.75,14.21c3.19,2.58,6.63,4.87,10.06,7.12c4.82,3.16,8.47,7.1,10.32,12.73c1.12,3.42,2.71,6.73,4.42,9.92
		c4.64,8.67,11.78,13.65,21.84,13.18c7.66-0.36,13.9-4.02,18.44-10.16c1.94-2.62,3.59-3.56,6.99-2.42
		c6.18,2.07,11.71-0.84,13.81-7.02c1.15-3.39,1.69-7.03,2.15-10.6c0.26-2.01,0.89-3.39,2.55-4.61c5.77-4.23,8.2-9.7,6.31-16.94
		c-0.42-1.59,0.23-3.56,0.68-5.27C253.14,237.15,254.01,235.26,254.48,233.99z M242.61,249.86c-0.39,1.32-0.75,3.2-0.39,4.95
		c0.25,1.22,0.3,2.48-0.08,3.67c-0.34,1.09-0.95,2.22-2.04,2.66c0,0-1.36,1.26-2.43,2.43c1.98,18.47-10.22,14.33-10.43,14.18
		c-3.87-2.76-8.21-1.47-12.4-1.51c-4.67-0.04-8.46-2.16-11.81-5.23c-5.44-4.98-9.23-11.09-12.09-17.84
		c-1.14-2.68-2.36-5.32-3.87-8.72c-0.29,1.29-0.58,1.82-0.48,2.27c2.58,11.23,6.79,21.73,14.84,30.21
		c3.34,3.52,13.82,6.77,14.54,7.06c-8.3,6.6-22.39,8.36-29.28-2.95c-1.66-2.72-2.84-5.79-3.85-8.84
		c-2.92-8.85-8.78-15.11-16.68-19.69c-1.53-0.88-3.01-1.85-4.56-2.68c-6.42-3.43-9.53-8.89-9.49-16.04
		c0.01-2.72-1.05-3.14-3.37-2.83c-17.03,2.31-36.94-7.56-45.33-22.6c-8.88-15.91-10.15-32.65-5.01-50.01c0.3-1,0.55-2,0.9-3.3
		c-4.79,2.71-9.34,18.63-8.51,31.2c1.67,25.31,15.68,41.14,39.08,49.19c-2.72,4.08-5.58,7.9-7.96,12.01
		c-5.83,10.08-8.81,21.21-10.23,32.62c-1.14,9.18-1.12,18.5-1.6,27.75c-0.05,1.03-0.01,2.07-0.01,3.11c-0.45,0.12-0.4,0.1-0.85,0.22
		c-0.83-1.42-1.78-2.78-2.48-4.26c-6.08-12.93-15.29-23.48-25.3-33.42c-7.08-7.03-14.33-13.91-21.2-21.14
		c-4.72-4.97-7.03-11.18-7.33-18.09c-0.12-2.69-1.79-3.62-4.25-2.6c-2.71,1.12-12.06,3.97-8.6,2.35c0.47-0.22,9.43-4,11.63-19.34
		c0.26-1.81,0.92-3.85,2.02-5.32c3.47-4.62,4.54-16.56,4.35-16.74c-4.89,4.89-10.96,21.76-27.17,18.33
		c1.87-1.96,14.95-7.87,15.39-31.6c0.07-3.54-0.55-5.33,2.82-7.26c6.19-3.55,11.14-10.11,13.28-16.8c0.46-1.44,0.89-4.15,1.28-5.61
		c-0.29-0.2-4.31,4.18-6.03,5.9c-3.31,3.29-6.35,6.96-10.05,9.73c-5.6,4.18-19.98,3.7-20.87,3.32c2.36-1.07,4.57-1.67,6.26-2.95
		c3.01-2.28,6.25-4.58,8.42-7.58c3.1-4.3,5.37-9.22,7.91-13.92c4.4-8.14,8.36-16.62,14.98-23.25c7.98-7.98,29.04-17.53,29.42-17.74
		c-0.06-0.32-9.13-0.73-13.31,0.46c-6.72,1.91-13.13,4.87-19.76,7.12c-2.35,0.8-10.04,3.38-12.53,3.75
		c-0.3-0.53,6.13-6.08,7.98-8.32c1.17-1.42,8.78-9.73,10.27-10.68c9.49-6.08,19.86-9.62,31.17-10.27c2.35-0.13,2.72,1.3,3.1,3.03
		c1.46,6.66,4.25,12.63,9.5,17.16c1.54,1.33,5.51,2.97,5.71,2.73c-1.05-1.45-2.15-2.87-3.13-4.36c-8.01-12.2-7.99-25.27-3.93-38.67
		c3.18-10.48,7.77-20.29,14.8-28.83c0.68-0.83,1.43-1.61,2.18-2.38c0.39-0.4,0.86-0.73,1.29-1.09c-1.71,9.12-1,17.95,0.87,26.69
		c0.47,2.21,2.69,4.03,3.22,6.24c1.05,4.32,2.05,8.79,2.04,13.19c-0.02,6.44-3.38,11.96-6.41,17.47c-1.37,2.49-2.62,5.04-3.86,7.59
		c-0.36,0.73-0.48,1.58-0.34,2.56c5.1-8.99,15.28-14.19,17.95-24.92c1.04-4.16,2.08-8.43,3.92-12.26c2.49-5.17,6.35-9.49,10.4-13.61
		c3.62,3.72,3.52,9.71,0.33,13.42c-2.78,3.24-5.42,6.63-7.83,10.16c-0.86,1.27-0.87,3.12-1.31,4.87c7.4-7.4,14.44-14.44,21.54-21.53
		c2.18,3.88,1.44,9.74-1.14,12.97c-1.07,1.34-1.48,3.21-2.21,4.83c-0.2,0.44-0.4,0.92-0.72,1.26c-2.9,3.1-5.94,6.07-8.69,9.29
		c-1.47,1.72-2.64,3.78-3.58,5.86c-0.33,0.73,0.12,2.36,0.76,2.81c0.63,0.45,2.29,0.32,2.91-0.23c2.39-2.13,4.59-4.47,6.76-6.83
		c3.56-3.86,6.99-7.85,10.59-11.67c4.48-4.76,9.04-9.45,13.65-14.07c3.15-3.15,6.51-6.09,9.67-9.23c1.16-1.15,1.92-2.69,3.03-3.9
		c2.6-2.85,5.1-5.85,8.01-8.35c4.11-3.52,7.14-7.98,10.9-11.78c3.14-3.17,6.63-5.99,9.73-9.19c2.93-3.01,5.57-6.32,8.36-9.48
		c0.3-0.34,0.72-0.56,1.08-0.84c0.27,0.21,0.54,0.41,0.81,0.62c-1.53,1.96-3.06,3.91-4.57,5.89c-0.46,0.61-0.89,1.25-1.24,1.93
		c-0.21,0.42-0.11,1.03-0.38,1.38c-1.54,2.04-3.19,3.99-4.73,6.03c-1.51,2-2.83,4.17-4.42,6.1c-2.57,3.11-3.15,7.8-7.58,9.48
		c-0.49,0.18-0.86,1.29-0.88,1.98c-0.07,2.81-1.48,4.67-4.03,5.51c-1.82,0.6-2.39,1.57-2.29,3.45c0.14,2.67-1.45,4.59-3.87,5.25
		c-1.93,0.53-2.53,1.4-2.54,3.24c-0.02,2.98-1.52,4.88-4.41,5.87c-0.74,0.25-1.5,1.38-1.65,2.22c-0.63,3.38-1.88,6.11-5.38,7.46
		c-0.7,0.27-1.31,1.56-1.41,2.44c-0.44,4-2.02,6.88-6.32,7.75c-0.65,0.13-1.53,1.25-1.57,1.95c-0.24,4.26-2.11,7.01-6.42,7.96
		c-0.58,0.13-1.18,0.86-1.48,1.46c-1.3,2.61-2.5,5.27-3.81,8.07c2.71,2.11,4.86,1.79,7.3-1.47c1.62-2.16,3.31-4.27,5.1-6.29
		c1.88-2.12,3.96-0.75,5.6,0.26c5.43,3.34,9.16,8.2,11.49,14.11c1.98,5.01,4.6,9.55,9.3,12.49c1.62,1.01,4.35,2.18,7.88,1.43
		c0,0-6.86,5.32-8.84,6.88c1.28-1.01,2.46,1.8,3.6,2.65c5.56,4.14,7.68,10.35,4.31,16.49c-3.83,6.98-3.48,13.52-0.67,20.51
		c6.03,14.97,11.77,30.06,17.91,44.99c2.45,5.96,6.38,11.02,11.9,14.62c1.39,0.91,1.54,1.74,0.39,3.05
		c-5.78,6.54-6.7,14.07-6.22,22.35c0.15-0.24,0.3-0.51,0.45-0.83c0.91-1.86,1.36-3.9,1.44-5.96c0.13-3.18,0.94-9.19,5.1-10.82
		c0,0-0.08,1.42-0.83,2.67C243.31,248.18,242.87,248.99,242.61,249.86z"/>
</g>
</svg>