<?xml version="1.0" encoding="utf-8"?>
<!-- Generator: Adobe Illustrator 27.0.0, SVG Export Plug-In . SVG Version: 6.00 Build 0)  -->
<svg version="1.1" id="Layer_1" xmlns="http://www.w3.org/2000/svg" xmlns:xlink="http://www.w3.org/1999/xlink" x="0px" y="0px"
	 viewBox="0 0 118 50" style="enable-background:new 0 0 118 50;" xml:space="preserve">
<style type="text/css">
	.st0{fill:#FFFFFF;}
	.st1{fill:none;}
</style>
<g>
	<polygon class="st0" points="24.44,47.68 2.52,47.46 24.44,44.17 	"/>
</g>
<g>
	<polygon class="st0" points="94.45,37.86 116.36,38.08 94.45,41.36 	"/>
</g>
<g>
	<path class="st0" d="M30.29,47.8v-5.14c0-1.47,0.77-2.4,2.21-2.5c1.45-0.1,2.21,0.72,2.21,2.19v1.01l-1.42,0.1v-1.11
		c0-0.63-0.3-0.87-0.75-0.83c-0.45,0.03-0.75,0.31-0.75,0.94v5.34c0,0.63,0.3,0.85,0.75,0.82s0.75-0.3,0.75-0.93v-1.46l1.42-0.1
		v1.35c0,1.47-0.77,2.4-2.21,2.5C31.05,50.09,30.29,49.27,30.29,47.8z"/>
	<path class="st0" d="M36.62,40.01l2.23-0.16c1.56-0.11,2.23,0.57,2.23,2.04v0.59c0,0.98-0.31,1.63-0.98,1.95v0.03
		c0.75,0.18,1,0.87,1,1.95v1.68c0,0.46,0.01,0.8,0.16,1.15l-1.53,0.11c-0.08-0.24-0.14-0.39-0.14-1.17v-1.75
		c0-0.89-0.26-1.16-0.94-1.11l-0.52,0.04v4.1l-1.5,0.11v-9.56H36.62z M38.67,43.96c0.56-0.04,0.9-0.31,0.9-1.07v-0.74
		c0-0.68-0.23-0.97-0.77-0.93l-0.68,0.05V44L38.67,43.96z"/>
	<path class="st0" d="M44.3,39.47l2.04-0.14l1.56,9.45l-1.5,0.11L46.12,47v0.03l-1.71,0.12l-0.27,1.89l-1.39,0.1L44.3,39.47z
		 M45.94,45.75l-0.67-4.68h-0.03l-0.66,4.77L45.94,45.75z"/>
	<path class="st0" d="M49.63,39.1l3.98-0.28v1.37l-2.47,0.17v2.66l1.94-0.14v1.37l-1.94,0.14v4.17l-1.5,0.1L49.63,39.1L49.63,39.1z"
		/>
	<path class="st0" d="M56.65,39.97l-1.57,0.11v-1.37l4.65-0.32v1.37l-1.57,0.11v8.19l-1.5,0.11v-8.2H56.65z"/>
	<path class="st0" d="M64.65,38.05l2.27-0.16c1.56-0.11,2.23,0.57,2.23,2.04v0.38c0,0.98-0.3,1.62-0.97,1.94v0.03
		c0.81,0.22,1.12,0.9,1.12,1.92v0.82c0,1.47-0.78,2.32-2.28,2.43l-2.36,0.17v-9.57H64.65z M66.74,41.79c0.56-0.04,0.9-0.31,0.9-1.07
		v-0.53c0-0.68-0.23-0.97-0.77-0.93l-0.72,0.05v2.53L66.74,41.79z M67.02,46.08c0.51-0.04,0.78-0.29,0.78-1v-0.83
		c0-0.89-0.29-1.14-0.97-1.09l-0.67,0.05v2.94L67.02,46.08z"/>
	<path class="st0" d="M71.18,37.59l4.1-0.29v1.37l-2.6,0.18v2.53l2.06-0.14v1.37l-2.06,0.14v2.94l2.6-0.18v1.37l-4.1,0.29V37.59z"/>
	<path class="st0" d="M77.15,37.17l4.1-0.29v1.37l-2.6,0.18v2.53l2.06-0.14v1.37l-2.06,0.14v2.94l2.6-0.18v1.37l-4.1,0.29V37.17z"/>
	<path class="st0" d="M83.12,36.75l2.23-0.16c1.56-0.11,2.23,0.57,2.23,2.04v0.59c0,0.98-0.31,1.63-0.98,1.95v0.03
		c0.75,0.18,1,0.87,1,1.95v1.68c0,0.46,0.01,0.8,0.16,1.15l-1.53,0.11c-0.08-0.24-0.14-0.39-0.14-1.17v-1.75
		c0-0.89-0.26-1.16-0.94-1.11l-0.52,0.04v4.1l-1.5,0.11v-9.56H83.12z M85.17,40.71c0.56-0.04,0.9-0.31,0.9-1.07V38.9
		c0-0.68-0.23-0.97-0.77-0.93l-0.68,0.05v2.73L85.17,40.71z"/>
</g>
<g>
	<path class="st1" d="M28.89,22.18c-0.03-0.1-0.05-0.21-0.09-0.3L28.89,22.18z"/>
</g>
<g>
	<path class="st1" d="M12.94,9.62c0.09,0.23,0.15,0.47,0.17,0.69c-0.18-0.08-0.35-0.14-0.5-0.19c-0.04,0.16-0.09,0.35-0.14,0.58
		l0.11,0.08l-0.3,2.25l0.11,1.03l-0.17,1.26l0.25,0.23l-0.18,0.9l0.1,0.58v1.03l-0.18,0.01l-0.04,0.26
		c0.03,0.89,0.61,1.72,1.78,2.55l0.67,0.47c0.61-0.87,1.65-1.74,1.35-2.72c-0.29-1.04-0.04-2.84,0.1-4.29
		c-0.3-0.25-0.54-0.36-0.13-0.67c-0.38-1.9,0.75-4.06-1.02-3.91v0.16l-0.48-0.08c-0.28,0.06-0.6,0.16-0.98,0.31
		c0.01-0.16,0.02-0.32,0.05-0.47L13.04,9.6L12.94,9.62z"/>
</g>
<g>
	<path class="st1" d="M23.21,24.98l0.23,0.56l-0.14,0.73l0.1,1.14v0.41l-0.17,0.53l0.18,0.44L23.3,30.2l0.13,0.39
		c0.13-0.01,0.27-0.01,0.44,0c1.55-0.1,0.61-2.13,0.87-3.01c-0.23-1.8,0.44-3.81-0.35-5.37c-0.35,0.4-0.66,0.79-0.92,1.18
		L23.21,24.98z"/>
</g>
<g>
	<path class="st1" d="M14.89,23.48c-0.7-0.52-0.8-1.02-0.63-1.52l-0.11,0.16c-0.6,0.9-0.96,1.3-1.25,1.51
		c-0.05,0.1-0.12,0.2-0.19,0.28l-0.43,0.95l0.09,0.13v0.62l-0.08,0.34l0.08,0.33v0.94l-0.02,0.02l0.19-0.01l-0.28,1.73l0.12,2.45
		l-0.18,0.28l0.16,0.73v0.68l-0.02,0.02c0.37,1.4,0.88,2.19,1.4,2.19h0.05l0.9-0.06c0.27-0.02,0.56-0.07,0.84-0.21
		c0.17-0.36,0.3-0.77,0.4-1.25C15.27,30.5,17.2,25.73,14.89,23.48z"/>
</g>
<g>
	<path class="st1" d="M70.94,17.98c-2.23,2.59-0.95,4.9-1.1,7.83c1.16,2.89,3.1-0.47,2.39-1.93C72.17,21.83,73,18.91,70.94,17.98z"
		/>
</g>
<g>
	<path class="st0" d="M4.43,19.22c-0.05-0.08-0.09-0.16-0.14-0.26l-0.08-0.18v-1.27c0-0.86,0.13-1.49,0.33-1.94l-0.22-0.58v-0.61
		l0.07-0.28l-0.18-0.46V12.4h0.06c-0.1-1.29-0.24-1.88-0.34-2.14L3.17,10.3l-0.34,0.25l-1.34,0.09V9.11l0.1-0.2
		c0.1-0.2,0.22-0.38,0.34-0.57C0.72,9.4,0.12,10.68,1.33,11c1.78-0.79,1.99-0.47,1.99,2.71c0.09,2.73,0.69,5.81-0.74,8.21l1.66-2.13
		C4.28,19.61,4.34,19.42,4.43,19.22z"/>
</g>
<g>
	<path class="st0" d="M15.91,13.69c-0.42,0.31-0.17,0.42,0.13,0.67c-0.14,1.45-0.39,3.25-0.1,4.29c0.3,0.98-0.74,1.85-1.35,2.72
		l0.05,0.04l-0.38,0.57c-0.17,0.49-0.07,0.99,0.63,1.52c2.31,2.25,0.38,7.02,1.06,10.32c-0.09,0.48-0.23,0.9-0.4,1.25
		c0.54-0.27,1.04-0.85,1.27-2.17l-0.12-0.95v-1.79l0.14-0.22l-0.19-0.16l0.29-2.57l-0.18-2.19h0.03l-0.16-0.95l0.13-0.11
		c-0.05-0.11-0.13-0.27-0.26-0.49l-0.58,0.04v-0.52l-0.23-0.28l-1.06-1.24l0.49-0.59c1.24-1.49,1.54-1.98,1.61-2.12l0.07-0.31
		l-0.27-0.65l0.18-0.16l-0.05-0.05l0.01-0.1l-0.42-0.93l0.54-0.04l0.05-0.42l-0.14-1.15l0.19-1.32l-0.59-0.5l0.45-0.48l-0.04-0.18
		v-2.08l0.17-0.16l-0.03-0.16V9.54l-0.27-0.29l-0.36,0.02c0,0-0.09,0.02-0.28,0.18l-0.23,0.2l-0.8,0.05v0.07
		C16.65,9.63,15.53,11.78,15.91,13.69z"/>
</g>
<g>
	<path class="st0" d="M14.64,21.39l-0.05-0.04c-0.14,0.2-0.26,0.41-0.33,0.61L14.64,21.39z"/>
</g>
<g>
	<g>
		<path class="st0" d="M13.85,41.23l-0.57-0.07l-0.43,0.16l-0.2-0.02c-2.15-0.19-3.8-0.65-5.04-1.4l-0.06-0.03L7.5,39.83
			c-1.37-1.13-2.28-2.49-2.68-4.06L4.7,35.29l0.15-0.16l-0.54-2.58l0.12-0.84l-0.12-1.1l0.18-0.6c-0.19-0.57-0.23-1.45-0.28-2.55
			L4.2,27.34l0.19-0.81L4.2,25.98v-0.6l0.1-0.4c-0.05-0.16-0.3-0.74-1.53-2.04L2.26,22.4c-0.22,0.3-0.46,0.58-0.76,0.85
			c2.94,3.1,1.36,2.08,2.03,4.17c-2.41,12.47,6.5,16.77,12.68,13.54c-0.44,0.1-0.9,0.16-1.38,0.2L13.85,41.23z"/>
	</g>
	<g>
		<g>
			<path class="st0" d="M33.15,13.02c0.01-0.38-0.02-0.72-0.19-0.97l-0.17,0.12C32.9,12.37,33.01,12.64,33.15,13.02z"/>
		</g>
		<g>
			<path class="st0" d="M30.95,28.9l0.11-0.01c0.01-0.01,0.03-0.02,0.05-0.04c-0.15-0.35-0.29-0.72-0.43-1.09l-0.06,0.35
				C30.64,28.44,30.74,28.69,30.95,28.9z"/>
		</g>
		<g>
			<path class="st0" d="M31.13,28.84l0.23-0.2l0.77-0.05l0.1,0.09c-0.02-0.08-0.09-0.32-0.09-0.32c-0.15-0.21-0.23-0.46-0.24-0.75
				l-0.34-0.32l0.15-0.24l-0.28-0.83l-0.45,0.03l0.17-1.23c-0.21-0.28-0.36-0.68-0.45-1.2c-0.02-0.02-0.03-0.05-0.05-0.08
				l-0.01,0.16l0.06,0.05v0.83l-0.06,0.06l0.06,0.78v0.42c0,0.05,0,0.09-0.01,0.14l0.09,0.11l-0.14,0.59l0.07,0.73l-0.03,0.16
				c0.14,0.37,0.28,0.73,0.43,1.09C31.12,28.85,31.12,28.85,31.13,28.84z"/>
		</g>
		<g>
			<path class="st0" d="M29.09,32.15c-0.33,0-0.66-0.07-0.99-0.21l-0.52,0.24l-0.51,0.04h-0.05c-0.06,0-0.13-0.01-0.19-0.02
				l-0.33,0.24l-0.52-0.48c-0.05-0.02-0.24-0.1-0.71-0.18l-0.23-0.04l-1.49-1.16c-0.04,0-0.08,0-0.11,0l0.09,0.27L23.41,31v0.21
				c0,0.21-0.02,0.4-0.04,0.56c1.31,0.72,3.98,1.32,6.06,0.35c-0.06,0.01-0.11,0.02-0.17,0.02C29.2,32.15,29.14,32.15,29.09,32.15z"
				/>
		</g>
		<g>
			<path class="st0" d="M33.15,13.02c0.21,0.57,0.47,1.38,0.82,2.56v-0.36c0-0.55,0.04-0.96,0.12-1.29l-0.2-0.9l0.09-0.09l-0.02-0.1
				l0.08-0.39l-0.09-0.44l0.09-0.27c-0.03-0.16-0.06-0.27-0.08-0.34c-0.12,0.07-0.32,0.18-0.63,0.4l-0.35,0.24
				C33.14,12.3,33.17,12.65,33.15,13.02z"/>
		</g>
		<g>
			<path class="st0" d="M25.23,28.57l0.18-0.05l0.14-0.16l-0.09-0.3l0.14-0.36l-0.11-0.56l0.05-0.28l-0.15-0.43l0.11-0.12V26.3
				v-0.68l0.04-0.17l-0.05-0.19l0.07-0.78l-0.06-0.8V23.4l0.05-0.31l-0.05-0.25v-0.5l0.01-0.01c-0.05-0.09-0.14-0.19-0.31-0.3
				l-0.03-0.02l-0.19,0.19c-0.17,0.17-0.32,0.34-0.47,0.5c0.66,1.3,0.11,2.97,0.29,4.48c-0.09,0.32,0,0.83,0.03,1.31l0.37,0.07
				L25.23,28.57z"/>
		</g>
		<g>
			<path class="st0" d="M25.33,18.74l0.18-0.05l0.14-0.16l-0.09-0.3l0.14-0.36l-0.11-0.56l0.05-0.28l-0.15-0.43l0.11-0.12v-0.01
				v-0.68l0.04-0.17l-0.05-0.19l0.07-0.78l-0.06-0.8v-0.28l0.05-0.31l-0.05-0.25v-0.5l0.01-0.01c-0.05-0.09-0.14-0.19-0.31-0.3
				l-0.03-0.02l-0.19,0.19c-0.17,0.17-0.32,0.34-0.47,0.5c0.66,1.3,0.11,2.97,0.29,4.48c-0.09,0.32,0,0.83,0.03,1.31l0.37,0.07
				L25.33,18.74z"/>
		</g>
		<g>
			<path class="st0" d="M35.1,32.38c-0.27-0.07-0.46-0.17-0.61-0.29l-0.28-0.07l-0.11-0.07c-0.53-0.31-0.97-0.9-1.37-1.8l-0.11,0.12
				c-0.19,0.21-0.37,0.39-0.55,0.55c1.26,2.14,2.88,3.27,5.07,1.62c-0.37,0.02-0.71,0.04-0.99,0.04
				C35.7,32.47,35.36,32.44,35.1,32.38z"/>
		</g>
		<g>
			<path class="st0" d="M31.93,10.47c-0.01,0.01-0.03,0.02-0.04,0.04c0,0,0.01,0,0.01,0.01L31.93,10.47z"/>
		</g>
		<g>
			<path class="st0" d="M28.89,22.18c-0.03-0.1-0.05-0.21-0.09-0.3L28.89,22.18z"/>
		</g>
	</g>
	<g>
		<g>
			<path class="st0" d="M42.9,28.48v-0.95l0.09-0.13l-0.19-0.7l0.15-0.16l-0.05-0.59v-0.19c0-1.48,0.05-2.55,0.15-3.24l-0.17-0.45
				l0.1-0.61l-0.07-0.68l-1.43-1.72l0.43-0.57c0.88-1.16,1.04-1.56,1.07-1.65l0.09-1.29l-0.17-0.67v-0.39l0.21-1.83
				c-0.24-0.49-0.27-1.2-0.29-1.74l-0.01-0.16l0.01-0.02c-0.06-0.02-0.13-0.04-0.23-0.05c-0.04,0-0.12,0.02-0.25,0.16l-0.62,0.7
				c1.05,1.4,0.57,7.28-1,8.41c2.36,2.08,0.97,4.51,1.36,7.66c-0.08,0.23-0.06,0.51-0.04,0.8l0.59,0.25
				C42.76,28.59,42.84,28.53,42.9,28.48z"/>
		</g>
		<g>
			<path class="st0" d="M46.02,31.42c-0.43,0.16-0.91,0.22-1.23,0.25l-0.1,0.01l-0.1-0.01c-1.53-0.17-2.59-0.58-3.25-1.28
				l-0.37-0.41c-3.35-0.75,1.69,3.53,3.75,1.83c0.54,0.62,1.63,0.41,2.63-0.09c-0.04,0-0.08,0-0.12,0
				C46.79,31.72,46.38,31.62,46.02,31.42z"/>
		</g>
		<g>
			<path class="st0" d="M40.87,9.65c0-0.01,0.01-0.02,0.02-0.03c-0.74,0.67-1.16,1.57-1.01,2.71c0.33-0.48,0.62-0.77,0.88-0.94V9.85
				L40.87,9.65z"/>
		</g>
		<g>
			<path class="st0" d="M49.08,10.36L49.11,11c0.2,0.04,0.42,0.09,0.66,0.14c-0.04-0.28-0.12-0.53-0.23-0.77l-0.28-0.06
				C49.18,10.33,49.13,10.35,49.08,10.36z"/>
		</g>
	</g>
	<g>
		<g>
			<path class="st0" d="M58.22,30.96c-0.41,0-1.05-0.13-2.73-1.09l-0.12-0.07l-0.1-0.11c-0.71-0.78-1.27-1.49-1.68-2.12l-0.15-0.23
				v-0.32c-0.22-0.35-0.4-0.86-0.62-1.49l-0.04-0.12l-0.24-0.27l-0.45-1.81l-0.2-1.3l0.08-0.12c-0.08-0.38-0.4-0.78-0.96-1.18
				l-0.1-0.07l-0.75-0.95l1.36-1.73l0.11-0.6l-0.04-0.04l0.04-0.44c0.04-0.48,0.09-0.82,0.18-1.08l-0.08-0.31l0.13-0.27l-0.03-0.09
				l0.05-0.26c0.57-2.72,1-3.76,1.3-4.26c0.06-0.27,0.17-0.46,0.29-0.61c0.03-0.2,0.11-0.42,0.23-0.63
				c-1.45,1.67-2.44,4.13-2.73,6.63c-0.05,1.41-0.22,3.48-1.55,4.58c2.22,1.87,1.92,5.16,3.14,7.48c1.68,3.2,4.36,3.71,6.57,2.74
				c-0.26,0.04-0.52,0.08-0.8,0.1L58.22,30.96z"/>
		</g>
		<g>
			<path class="st0" d="M59.83,14.08l-0.05-0.05v-0.59l0.02-0.06l-0.02-0.02v-1.55l0.12-0.01l0.02-0.02
				c-0.07-0.88-0.42-1.09-0.54-1.16l-0.1-0.06c-0.12-0.02-0.35-0.06-0.75-0.09l-0.05,0.02c-0.15,0.17-0.26,0.37-0.33,0.59
				c0.69,0.54,1.2,2.07,0.75,4.81l0.35,1.02c0.04-0.25,0.47-0.39,1.01-0.46l-0.48-1.4L59.83,14.08z"/>
		</g>
		<g>
			<path class="st0" d="M59.94,25.12v-0.15c-0.05-0.16-0.08-0.34-0.08-0.53v-0.36l0.01-0.01l-0.02-0.11l0.08-0.91l-0.02-0.13
				c-0.02-0.01-0.04-0.01-0.06-0.02c-1.42-0.13-0.73,2.09-0.79,2.95c0.03,0.2,0,0.4-0.07,0.6C59.93,25.87,59.94,25.32,59.94,25.12z"
				/>
		</g>
		<g>
			<path class="st0" d="M60.84,16.39c0.69-0.05,1.39-0.05,1.59-0.09c0.12-0.09,0.24-0.23,0.32-0.38l-1.56,0.11L60.84,16.39z"/>
		</g>
		<g>
			<path class="st0" d="M60.39,16.87l0.45-0.48c-0.2,0.01-0.4,0.03-0.59,0.06L60.39,16.87z"/>
		</g>
	</g>
	<g>
		<g>
			<path class="st0" d="M72.23,23.88c-0.05-1.73,0.52-4.08-0.53-5.33c-0.09,0.14-0.13,0.22-0.15,0.26l-0.07,1.2l0.06,0.23l0.01,0.01
				v0.02l0.1,0.37l-0.1,0.11v0.6l-0.01,0.02l-0.03,0.15l0.09,0.23l-0.12,0.44l0.07,1.7V24c0,0.08-0.01,0.16-0.03,0.25
				c0.06,0.16,0.1,0.36,0.11,0.58c0.12,0.45,0.27,0.68,0.46,0.68l0.16-0.01C72.42,24.95,72.45,24.33,72.23,23.88z"/>
		</g>
		<g>
			<path class="st0" d="M71.6,10.59l0.03,0.24l-0.08,3.46l-0.01,0.09l0.02,0.01v0.86c0.1,0.14,0.31,0.39,0.7,0.77
				c0.19-1.24,0.19-4.75-0.55-5.81v0.27L71.6,10.59z"/>
		</g>
		<g>
			<path class="st0" d="M72.19,29.91c-0.09,0.01-0.19,0.01-0.28,0.01c-1.41,0-2.78-0.74-4.09-2.19l-0.05-0.06l-1.2-1.93v-0.26
				c0-0.23-0.08-0.44-0.25-0.66l-0.31-0.39l0.04-0.13l-0.37-0.34l0.22-0.32c-0.28-0.61-0.38-1.53-0.44-2.56
				c-0.08-0.19-0.14-0.43-0.17-0.75v-0.07V19.7l0.05-0.18l-0.05-0.19v-0.26l-1.17-1.16v-0.87l0.22-0.25
				c0.63-0.74,0.87-1.07,0.96-1.21c0.03-0.99,0.28-2.34,0.78-4.12l0.04-0.13l0.07-0.11c0.23-0.37,0.41-0.86,0.53-1.44l0.03-0.14
				l0.07-0.12c0.36-0.65,0.71-1.17,1.06-1.57c-1.65,1.56-2.97,4.44-3.46,8.65c-0.62,0.94-2.04,1.83,0.04,3.22
				c-0.21,2.66,0.67,4.77,1.23,6.68c1.95,3.81,4.43,4.43,6.63,3.37l-0.04,0.01L72.19,29.91z"/>
		</g>
		<g>
			<path class="st0" d="M72.26,16.02c0.02,0.02,0.04,0.04,0.06,0.06c0.46-0.55,0.69-0.87,0.81-1.04v-0.43l0.06-0.08
				c-0.05-0.16-0.06-0.3-0.06-0.42v-0.06l0.07-1.03l-0.09-0.99l0.06-0.2l-0.05-0.29v-0.87l0.06-0.21c-0.04-0.17-0.13-0.44-0.31-0.86
				c-0.05-0.01-0.13-0.01-0.23-0.01c-0.07,0-0.15,0-0.24,0.01h-0.07c-0.28,0.02-0.47,0.12-0.63,0.34l0.01,0.03v0.24
				C72.45,11.27,72.45,14.78,72.26,16.02z"/>
		</g>
		<g>
			<path class="st0" d="M73.09,22.99l0.11-0.41l-0.09-1.82l-0.01-0.02l0.09-0.79l-0.08-0.58l0.07-0.71c-0.08-0.13-0.29-0.43-0.81-1
				c-0.35,0.43-0.56,0.71-0.68,0.9c1.05,1.25,0.47,3.6,0.53,5.33c0.22,0.44,0.19,1.06,0.01,1.63l0.26-0.02
				c0.19-0.01,0.39-0.22,0.57-0.59l-0.34,0.03l0.5-1.47L73.09,22.99z"/>
		</g>
	</g>
	<g>
		<g>
			<path class="st0" d="M103.04,22.7l0.11,0.13l-0.17,0.67l0.09,0.93l-0.1,0.63c0.01,0.52,0.19,0.92,0.55,1.25l0.32-0.02
				c-0.01,0,0.05-0.03,0.15-0.12l0.23-0.2h0.03c-0.42-1.2-0.81-2.53-1.18-3.86v0.35C103.07,22.54,103.06,22.62,103.04,22.7z"/>
		</g>
		<g>
			<path class="st0" d="M88.09,18.78v1.14l-0.07,1.33l0.15,0.72l-0.08,0.08v0.01v1.04l-0.05,0.05l0,0l0.42,0.39l-0.44,0.48
				l0.14,0.69L88.1,24.8l0.03,0.12l-0.04,0.11c0.08,0.13,0.15,0.2,0.19,0.23c0.04-0.03,0.11-0.09,0.2-0.18
				C88.38,23.42,89.4,19.83,88.09,18.78z"/>
		</g>
		<g>
			<path class="st0" d="M88.03,10.89l0.07,0.53v0.86l-0.06,0.1l0.08,0.25l-0.08,0.56l0.09,0.35L88.1,13.6h0.34
				c0.44-1.42,0.02-3.55-0.39-4.45l-0.03,0.22l0.08,1.09L88.03,10.89z"/>
		</g>
		<g>
			<path class="st0" d="M95.18,16.48l0.15,0.29l-0.02,0.05c0.11,0.25,0.18,0.6,0.18,1.07v0.38l-0.01,0.06l0.07,0.06l-0.13,0.91
				l0.09,0.97l-0.1,0.21l0.03,0.08l-0.16,1.04c0.13,0.53,0.24,1.32,0.33,2.4l0.25-0.25l0.3-0.02C96.24,21.29,96.9,18.4,95.18,16.48z
				"/>
		</g>
		<g>
			<path class="st0" d="M94.47,28.04V28c-0.03,0.02-0.06,0.04-0.1,0.06c0.05,0.01,0.09,0,0.13,0.01L94.47,28.04z"/>
		</g>
		<g>
			<path class="st0" d="M96.31,26.65c-0.01,0.01-0.03,0.02-0.04,0.04l0.03,0.01C96.31,26.68,96.31,26.67,96.31,26.65z"/>
		</g>
		<g>
			<path class="st0" d="M108.89,30.22c-0.32-0.08-0.54-0.21-0.7-0.35l-0.38-0.1l-0.11-0.07c-0.68-0.41-1.26-1.22-1.77-2.51
				l-0.39,0.43c-0.15,0.16-0.29,0.31-0.43,0.45c0.57,1.15,1.21,2,1.99,2.29c1.32,1.02,2.94,0.69,4.33-0.09
				c-0.48,0.03-0.9,0.05-1.26,0.05C109.62,30.33,109.2,30.29,108.89,30.22z"/>
		</g>
		<g>
			<path class="st0" d="M97.18,12.41l-0.1-1.05V9.82L97.18,9l-0.09-0.62V8.32c0-0.21,0.03-0.41,0.08-0.6l-0.08-0.07v-2.4h0.02
				c-0.04-0.16-0.06-0.33-0.08-0.48l-0.16-0.11l-0.07,0c-0.18,0.01-0.36,0.1-0.55,0.26L96.02,5.1L95.7,5.12
				c1.14,0.62,0.07,2.47,0.65,3.37c-0.21,2.35,0.12,3.99-0.61,5.92L96,14.16C97.02,13.16,97.17,12.62,97.18,12.41z"/>
		</g>
		<g>
			<path class="st0" d="M94.57,3.78C93.33,5,93.23,6.19,95.58,5.13L94.57,5.2V3.78z"/>
		</g>
		<g>
			<path class="st0" d="M106.95,8.14c-0.02,0.08-0.02,0.17-0.04,0.26c0.2,0.65,0.42,1.41,0.67,2.31l0.08,0.19v-0.08l-0.13-0.37
				l0.13-0.14V8.84c0-0.7,0.05-1.22,0.16-1.62l-0.24-1.08l0.11-0.11l-0.04-0.2l0.1-0.49l-0.11-0.53l0.11-0.33
				c-0.08-0.54-0.21-0.72-0.24-0.76c-0.09,0.03-0.37,0.16-1.03,0.62h-0.01C107.26,5.01,106.48,7.25,106.95,8.14z"/>
		</g>
		<g>
			<path class="st0" d="M113.79,3.37c-0.03,0.06-0.11,0.23-0.14,0.61c0.2,0.07,0.42,0.16,0.67,0.29c0.27-0.26,0.33-0.54,0.27-0.82
				c-0.06-0.03-0.22-0.09-0.57-0.09C113.94,3.36,113.87,3.37,113.79,3.37z"/>
		</g>
		<g>
			<path class="st0" d="M97.11,23.15l-0.02-0.11v-0.98l0.07-0.28l-0.08-0.31l0.1-1.15l-0.09-1.21v-0.4l0.08-0.5l-0.08-0.4v-0.64
				l0.05-0.06c-0.07-0.21-0.23-0.45-0.61-0.7l-0.15-0.1l-0.65-0.93v-0.92c-0.19,0.49-0.44,0.99-0.79,1.53
				c0.03,0.07,0.07,0.13,0.09,0.2l0.15,0.29c1.72,1.91,1.05,4.81,0.97,7.26l0.93-0.07l-0.12-0.36L97.11,23.15z"/>
		</g>
		<g>
			<path class="st0" d="M99.29,29.97l-0.59,0.04h-0.05c-0.1,0-0.2-0.01-0.29-0.04l-0.34,0.25l-0.55-0.51l0,0
				c-0.01,0-0.22-0.12-0.98-0.25l-0.23-0.04l-1.76-1.36c-0.04,0-0.08,0-0.13-0.01c-0.18,0.09-0.36,0.19-0.55,0.28l-0.05,0.03
				l-0.06,0.02c1.12,2.29,4.71,2.58,7.52,1.54c-0.41,0-0.82-0.1-1.23-0.29L99.29,29.97z"/>
		</g>
		<g>
			<path class="st0" d="M105.13,28.09l0.83-0.91c0,0-0.49-1.34-0.6-1.75l-0.04-0.14c-0.19-0.25-0.28-0.57-0.28-0.94l-0.36-0.34
				l0.15-0.24l0,0l-0.45-1.33l-0.45,0.03l0.19-1.37c-0.38-0.43-0.53-1.1-0.59-1.54c-0.14-0.2-0.29-0.49-0.47-0.94l-0.07,1.24
				l0.08,0.07v0.85l-0.08,0.08l0.08,1.08v0.16c0.38,1.32,0.76,2.65,1.18,3.86L105.13,28.09z"/>
		</g>
		<g>
			<path class="st0" d="M89.39,24.44l-0.12-0.7l0.17,0.04l0.07-0.46l-0.09-0.09v-1.21l0.1-0.11l-0.04-0.29l0.07-0.23l-0.05-0.31
				v-0.42l0.05-0.2l-0.05-0.19v-0.25l0.07-0.54l-0.09-0.74c-0.05-0.2-0.08-0.4-0.1-0.59c-0.15-0.02-0.4-0.05-0.79-0.05
				c-0.12,0-0.24,0-0.36,0.01l-0.12,0.01v0.66c1.31,1.05,0.29,4.64,0.39,6.3c0.01-0.01,0.01-0.01,0.02-0.02l0.24-0.26l0.53-0.04
				L89.39,24.44z"/>
		</g>
		<g>
			<path class="st0" d="M83.83,29.02l-0.15,0.01c-0.05,0-0.11,0.01-0.16,0.01c-1.05,0-2.14-0.69-3.34-2.11l-0.08-0.09
				c-0.38-0.07-0.77-0.19-1.01-0.22c0.08,2.97,5.02,3.46,7.38,2.29c-0.45-0.08-0.89-0.25-1.3-0.5
				C84.73,28.78,84.29,28.99,83.83,29.02z"/>
		</g>
		<g>
			<path class="st0" d="M81.15,18.68c0.12,2.01-0.09,4.58,0,6.72l0.56,0.11v-0.06l0.34-0.02c-0.02-0.1-0.03-0.2-0.03-0.31v-0.65
				l0.07-0.54L82,23.39l0.08-0.24l-0.05-0.31V19.6l0.13-0.2l-0.13-1.45l-0.8-0.81l-0.34-0.31v-0.8l0.21-0.25
				c0.81-0.99,0.97-1.37,1-1.46V14.3l0.02-0.14l-0.02-0.02v-0.67l0.04-0.14L82.01,13v-0.58l0.05-0.05l-0.07-0.24l0.09-0.47
				l-0.07-0.6v-0.81l0.06-0.32L82,9.45l0.11-1.31l-1.19,0.68c0.89,0.72-0.23,4.65,0.33,6.09C81.43,15.86,78.79,17.3,81.15,18.68z"/>
		</g>
		<g>
			<path class="st0" d="M92.81,28.54c-0.56,0-1.34-0.2-2.01-1.12c-0.32-0.17-0.61-0.49-0.9-0.92c-0.19,0.36-0.42,0.66-0.7,0.89
				c-0.01,0.02-0.03,0.04-0.04,0.06c0.88,1.25,2.48,1.94,3.89,1.07l-0.07,0.01C92.92,28.54,92.87,28.54,92.81,28.54z"/>
		</g>
		<g>
			<path class="st0" d="M88.44,13.6h0.03c0.8-0.32,0.8-0.63,0.8-0.74c0-0.25,0.04-0.47,0.1-0.66c-0.02-0.08-0.03-0.17-0.03-0.25
				v-1.87l0.11-0.12c-0.09-0.67-0.17-1.07-0.24-1.3L88.72,8.7V8.28c-0.07-0.01-0.15-0.02-0.24-0.03l-0.15,0.01
				c-0.08,0.04-0.16,0.07-0.24,0.08v0.43l-0.05,0.37C88.46,10.05,88.88,12.18,88.44,13.6z"/>
		</g>
		<g>
			<path class="st0" d="M79.96,7.55c-0.56,0.56-0.89,1.21-0.88,1.94c0.34-0.28,0.63-0.48,0.88-0.61V7.55z"/>
		</g>
		<g>
			<path class="st0" d="M95.58,5.13l0.12-0.01c-0.02-0.01-0.03-0.02-0.04-0.03C95.63,5.11,95.61,5.11,95.58,5.13z"/>
		</g>
		<g>
			<path class="st0" d="M95.73,14.43v0.04c0.01-0.02,0.01-0.04,0.02-0.05L95.73,14.43z"/>
		</g>
	</g>
</g>
<g>
	<path class="st0" d="M96.27,24.65c-0.22,0.22-0.43,0.34-0.62,0.35h-0.07c-0.23,0.02-0.51-0.14-0.83-0.48
		c-0.1-1.39-0.23-2.35-0.38-2.86l0.15-1.01l-0.08-0.22l0.15-0.32l-0.08-0.82l0.08-0.54l-0.08-0.07l0.08-0.47V17.9
		c0-0.55-0.08-0.82-0.23-0.81l-0.08,0.01l0.08-0.24l-0.15-0.3c-0.17-0.5-0.86-0.96-2.06-1.39v-0.15c0.58-0.8,0.93-1.2,1.06-1.21
		c0.82-1.15,1.23-2.33,1.23-3.53L94.29,10c0.07-0.01,0.12-0.27,0.15-0.78c0-1.05-0.51-2.14-1.52-3.26
		c-1.03-0.89-2.12-1.29-3.29-1.21l-1.9,0.28l-0.08-0.07l-0.08,0.01C87.11,5,86.3,5.44,85.13,6.27c-0.46-0.45-0.86-0.7-1.21-0.74
		c-0.54,0.04-0.87,0.17-1,0.38c-0.8,0.33-1.48,0.93-2.06,1.82V7.8l1.21-0.7c0.33-0.02,0.67,0.13,1,0.47l-0.15,1.84L83,9.94
		l-0.08,0.39V11L83,11.69l-0.07,0.4l0.15,0.53l-0.15,0.16v0.08l0.15,0.45L83,13.6v0.15l0.08,0.07L83,14.36
		c0,0.35-0.4,1.01-1.21,1.99v0.08l0.08,0.07L83,17.65l-0.08,0.24l0.15,1.74l-0.15,0.24v2.36L83,22.3l-0.08,0.08v0.37L83,23.21
		l-0.08,0.23L83,23.9l-0.08,0.62v0.15L83,25.03l-0.08,0.08c0,0.15,0.05,0.23,0.15,0.22c-0.19,0.63-0.34,0.95-0.46,0.96v0.08
		l0.08,0.07l-0.23-0.06L82,26.49l-1.15-0.22v0.08c1.05,1.25,1.97,1.84,2.75,1.79l0.15-0.01c0.4-0.03,0.83-0.34,1.29-0.94
		c0.59,0.55,1.22,0.84,1.9,0.87c0.64-0.04,1.16-0.46,1.54-1.26c0.32-0.2,0.57-0.54,0.75-1.03v-0.08l-0.08,0.01
		c-0.31,0.33-0.59,0.5-0.83,0.52c-0.45,0.03-0.86-0.33-1.23-1.07l0.08-0.24l-0.08-0.3v-0.06l0.08-0.08l-0.15-0.76l0.08-0.01
		l0.08-0.08l-0.08-0.07l0.08-0.08l-0.15-0.53l0.15-0.16v-0.6L87.1,21.8l0.08-0.08l-0.08-0.38l0.08-1.45v-2.6l1-0.07
		c1.37-0.04,2.06,0.13,2.06,0.53c0.04,0.66,0.11,0.99,0.23,0.98v0.08l-0.08,0.08l0.08,0.61l-0.08,0.6v0.08l0.08,0.3l-0.08,0.31v0.23
		l0.08,0.46l-0.08,0.24l0.08,0.51l-0.15,0.16v0.46l0.15,0.14L90.32,24l0.1,0.3l-0.08,0.22l0.23,0.21c0,0.15,0.05,0.23,0.15,0.22
		v0.08l-0.08,0.01l-0.23-0.06l0.08,0.46v0.08l-0.08,0.08c0.44,0.73,0.76,1.09,0.98,1.07c0.42,0.69,0.94,1.01,1.54,0.97l0.21-0.01
		l0.31-0.1c1.48-0.71,2.37-1.43,2.67-2.17l-0.77-0.1v-0.08l0.08-0.01l0.46,0.05l0.23-0.02c0.15-0.05,0.23-0.21,0.23-0.48v-0.08
		L96.27,24.65z M83.61,13.78l0.31,0.2v0.08l-0.31-0.13V13.78z M84.91,17.72c-0.04,2.15-0.12,4.3-0.26,6.44
		c-0.11-2.14-0.16-4.28-0.16-6.43l-0.6-0.96c-0.15,0.06-0.32,0.14-0.51,0.24l-0.23,0.02v-0.08c0.32-0.08,0.55-0.17,0.71-0.24
		l-0.1-0.16v0.05l-0.38,0.03v-0.08l0.36-0.03l-0.29-0.47l1.08-1.65c0.04-1.92,0.13-3.84,0.25-5.75c0.09,1.91,0.15,3.83,0.16,5.75
		l1.04,1.68L84.91,17.72z M86.2,6.14l-0.38,0.03V6.09l0.38-0.03V6.14z M93.21,16.17l0.31,0.05v0.08l-0.31,0.02V16.17z M92.45,15.84
		v0.08l-0.15,0.01l-0.31-0.06v-0.08h0.08L92.45,15.84z M92.38,6.61l0.15-0.01l0.46,0.05v0.07l-0.15,0.01l-0.46-0.04V6.61z
		 M92.38,12.94l0.38-0.17l0.08-0.01l-0.31,0.25l-0.15,0.01V12.94z M91.3,6.54l0.07-0.01l0.85,0.02v0.08l-0.38,0.03L91.3,6.62V6.54z
		 M90.01,6.32l0.23-0.02l0.46,0.05v0.08l-0.15,0.01L90.01,6.4V6.32z M89.01,6.23l0.31-0.02v0.16l-0.31-0.06V6.23z M87.88,6.08h0.14
		l0.08,0.07l0.31-0.1l0.08-0.01v0.15l-0.23,0.02l-0.38-0.05V6.08z M87.26,5.99h0.08l0.38,0.05v0.05L87.64,6.1l-0.38-0.03V5.99z
		 M87.57,16.79l-0.23,0.02v-0.15l0.23,0.05V16.79z M88.03,15.3l-0.54,0.19l-0.23,0.02v-0.08l0.54-0.17l0.23-0.02V15.3z M88.58,15.13
		v-0.08l-0.08-0.07l0.37-0.1v0.15L88.58,15.13z M89.09,15.3l-0.38,0.03v-0.08l0.38-0.03V15.3z M89.7,14.58l-0.38,0.18v-0.15
		l0.23-0.1l0.15-0.01V14.58z M90.17,12.86c0,0.74-0.51,1.28-1.54,1.65h-1.06c-0.31,0.02-0.46-0.2-0.46-0.66l0.08-0.31l-0.08-0.3
		l0.08-0.53l-0.15-0.45l0.15-0.24v-0.54l-0.08-0.61l0.08-0.45l-0.08-1.07l0.08-0.62V8.65l-0.08-0.07l0.08-0.29V7.52l0.23-0.02
		l0.38-0.1l0.08,0.07c0.1-0.01,0.15-0.09,0.15-0.24l0.07-0.01v0.15l0.31-0.02l0.08-0.08v0.07c0.75,0.06,1.13,0.19,1.13,0.38
		c0.32-0.02,0.58,0.82,0.77,2.54l-0.15,0.17v1.52c0,0.15,0.1,0.22,0.31,0.21v0.08C90.3,12.25,90.17,12.46,90.17,12.86z M90.24,14.09
		l0.23-0.02v0.08l-0.23,0.09V14.09z M90.83,15.57l-0.13,0.01l-0.38-0.05v-0.08l0.07-0.01l0.44,0.05V15.57z M90.84,6.49V6.41
		l0.31-0.02v0.08L90.84,6.49z M91.38,15.68l-0.08,0.01c-0.15,0.01-0.23-0.04-0.23-0.14l0.31,0.05V15.68z M91.54,13.62l-0.08,0.08
		l-0.23,0.02v-0.08l0.23-0.09l0.08-0.01V13.62z M92.54,25.22l-0.85-0.17v-0.08l0.08-0.01c0.67,0.08,1,0.16,1,0.24L92.54,25.22z
		 M93.58,25.21l-0.67,0.05v-0.08l0.08-0.08l0.59,0.03V25.21z M94.59,25.3l-0.08,0.01c-0.15,0.01-0.23-0.04-0.23-0.14l0.31,0.05V25.3
		z"/>
	<path class="st0" d="M63.7,7.7V7.62l-0.08-0.07V6.72l-0.08,0.01c-0.19,0.38-0.59,0.81-1.21,1.3L61.2,7.26
		c-0.45-0.01-0.67-0.09-0.67-0.24c-0.32,0.02-0.68-0.03-1.06-0.16l-0.98,0.07c-0.85,0.06-1.28,0.21-1.3,0.51
		c-0.5,0.16-0.78,0.33-0.83,0.5C55.5,8.39,55,8.9,54.86,9.49c-0.36,0.25-0.54,0.57-0.54,0.94v0.15c-0.17,0.01-0.27,0.16-0.31,0.46
		c-0.39,0.56-0.81,1.92-1.27,4.11l0.08,0.21l-0.15,0.32l0.08,0.3c-0.1,0.11-0.18,0.46-0.23,1.07l0.08,0.07l-0.23,1.3l-1.06,1.34
		l0.23,0.29c0.9,0.66,1.35,1.36,1.35,2.1v0.08l-0.06,0.08l0.13,0.89l0.38,1.55l0.38,0.43l-0.08,0.08c0.34,0.97,0.57,1.46,0.67,1.45
		l0.08-0.01l-0.08,0.24v0.15c0.39,0.58,0.92,1.25,1.6,2c1.18,0.67,1.96,1,2.33,0.97c1.59-0.11,2.7-0.59,3.33-1.44
		C62.5,28,63.16,27.13,63.53,26v-0.08l-0.08-0.07c-0.19,0.01-0.29-0.06-0.29-0.21l0.13-0.01v0.15l0.23-0.02v-0.23l0.08-0.39
		l-0.15-0.2l0.15-0.24v-0.9l-0.15-1.28l0.08-0.01v-0.23l-2.19,0.23l-0.23,0.09l-0.13-0.14l-0.15,0.01l-0.08,0.08l0.08,0.46
		l-0.08,0.91l0.08,0.44l-0.08,0.08c0,0.41,0.2,0.6,0.6,0.57v0.08l-0.23,0.02l-0.21-0.06l-0.08,0.08c0,0.97-0.62,1.77-1.88,2.38
		l-0.46,0.03c-0.64,0.05-1.12-0.57-1.44-1.86V25.6l0.08-0.08L57,24.93l0.06-0.46c0-0.21-0.17-0.32-0.52-0.33v-0.08l0.08-0.01
		L57,24.18l0.13-0.16L57,23.49l0.13-0.61L57,22.58l0.06-0.32L57,21.98V21.6l0.28-1.15c0.52-0.46,0.87-0.86,1.06-1.21
		c-0.86-0.87-1.29-1.36-1.29-1.49l0.08-0.31v-0.31L57,16.54h0.06L57,16.24l0.13-0.69V15.4l-0.08-0.07l0.08-0.08L57,14.82l0.06-0.47
		v-0.23L57,13.76h0.13v-0.85L57,12.78l0.06-0.09L57,12.16v-0.15l0.09-0.16c0-0.95,0.33-1.7,0.98-2.26v0.07l0.38-0.16v0.04
		c0.91,0.07,1.37,0.16,1.37,0.29c0.65,0.41,0.98,1.16,0.98,2.28l-0.15,0.16v0.08l0.15,0.2v0.08l-0.15,0.01v0.31l0.15,0.14
		l-0.15,0.47v0.06l0.08,0.07l-0.08,1.22l0.08,0.23l0.08-0.08l0.08-0.01l0.08,0.07l0.37-0.03l0.08-0.08l0.08,0.07l2.04-0.14
		l0.15-0.16v-0.15l-0.23-0.35l0.23-0.32v-0.38l-0.15-0.14v-0.06l0.08-0.08v-0.08l0.08-1.45v-0.08l-0.08-0.07l0.08-0.08l-0.15-0.14
		l0.15-0.3l-0.08-0.23l0.08-0.39l-0.15-0.14l0.15-0.14l-0.08-0.23l0.08-0.24V9.65l-0.08-0.07l0.08-0.45V8.75l-0.08-0.07L63.7,8.6
		V8.52l-0.08-0.07l0.08-0.08V8.14c0-0.09-0.08-0.13-0.23-0.12C63.55,7.81,63.62,7.71,63.7,7.7z M62.19,25.24l0.38,0.04v0.08
		l-0.38,0.03V25.24z M61.9,25.18l0.23-0.01v0.15l-0.23-0.06V25.18z M61.59,24.92l0.23-0.09v0.15L61.59,25V24.92z M55.55,9.32
		l0.08-0.08l0.23-0.02V9.3l-0.23,0.09L55.55,9.4V9.32z M55.16,10.03c0,0.1-0.08,0.15-0.22,0.17l0.14-0.16L55.16,10.03z M54.93,10.21
		v0.14l-0.13,0.01L54.93,10.21z M53.82,24.92v-0.23l0.21-0.09v0.08l0.08,0.07L53.82,24.92z M54.88,24.17
		c-0.25,0.07-0.38,0.2-0.38,0.39l-0.08,0.01l-0.08-0.05l-0.15,0.01l-0.08,0.06v-0.13l0.23-0.09v0.08c0.1-0.04,0.21-0.17,0.31-0.41
		l0.23,0.06V24.17z M55.09,20.61l-1.04-1.68l1.07-1.64c0.04-2.04,0.12-4.07,0.25-6.1c0.1,2.03,0.15,4.06,0.16,6.09l1.04,1.68
		L55.5,20.6c-0.02,0.96-0.05,1.93-0.09,2.89c0.14-0.09,0.22-0.18,0.22-0.27l0.08-0.01v0.08l-0.3,0.27c-0.04,1.05-0.09,2.1-0.16,3.14
		C55.15,24.67,55.1,22.64,55.09,20.61z M56.22,23.85l-0.52,0.04l0.08-0.24l0.15-0.01l0.29,0.13V23.85z M56.91,23.95l-0.08,0.01
		l-0.38-0.13v-0.08l0.08-0.08l0.38,0.2V23.95z M58.72,9.33V9.25l0.08-0.08l0.15,0.14L58.72,9.33z M59.09,9.15h-0.06V9l0.06-0.08
		l0.08-0.01L59.09,9.15z M59.4,8.75l-0.31,0.02V8.69l0.31-0.02V8.75z M60.09,8.1l-0.08,0.01V7.88l0.14-0.01L60.09,8.1z M60.69,7.83
		c0.1-0.24,0.2-0.37,0.31-0.41l0.08-0.01L61,7.65c-0.15,0.01-0.23,0.1-0.23,0.25l-0.08,0.01V7.83z M61.13,10.07l-0.37-0.13V9.86
		l0.08-0.01l0.29,0.06V10.07z M61.51,10.94l-0.23,0.02v-0.15l0.23,0.05V10.94z M62.18,10.98l-0.06,0.08v0.08l0.06,0.07l-0.13,0.01
		v-0.08l-0.31-0.44c0.17,0.14,0.32,0.21,0.44,0.2V10.98z M62.64,11.76v-0.15c-0.15,0.02-0.23-0.06-0.23-0.21l-0.15,0.01v-0.13
		l0.15-0.02l0.38,0.49L62.64,11.76z M63.54,11.86v0.08c0,0.15-0.05,0.23-0.15,0.24l-0.15,0.01v-0.31h0.07v0.15l0.15-0.01v-0.15
		L63.54,11.86z"/>
	<path class="st0" d="M50.31,28.7c-0.39,0.3-0.73,0.46-1.04,0.48c-0.18,0.02-0.55-0.28-1.1-0.88l0.08-0.31l-0.08-0.23l0.08-1.83
		l-0.15-0.95V24.9l0.08-0.08l-0.08-0.46v-0.73l0.15-0.01v-1.35l-0.08-1.49c0.05-0.45,0.24-0.83,0.56-1.13v-0.08l-0.1-0.09
		c0.21-0.01,0.51-0.3,0.88-0.85v-0.15l-1.27-1.49v-1.83l-0.08-0.71l0.08-0.56l-0.08-0.63l0.08-0.64v-0.46l-0.08-2.05
		c0-0.36,0.37-0.59,1.1-0.71l1.12,0.23c-0.5-1.29-1.61-1.87-3.33-1.75c-0.29,0.02-0.61,0.25-0.94,0.7
		c-0.51-0.44-0.91-0.65-1.19-0.63L44.28,8c-1.25,0.5-2.12,1.19-2.61,2.08v0.15c0.26-0.28,0.55-0.44,0.87-0.46l0.1-0.01
		c0.78,0.11,1.17,0.41,1.17,0.88l-0.08,0.24c0.04,1,0.15,1.49,0.33,1.48l-0.25,2.17v0.23l0.17,0.7l-0.1,1.43
		c0,0.33-0.42,1.04-1.25,2.14l1.17,1.42v0.25l0.08,0.78l-0.08,0.49l0.17,0.45c-0.11,0.61-0.17,1.72-0.17,3.34v0.15l0.08,0.96
		l-0.08,0.08l0.17,0.62l-0.17,0.24v0.48l0.08,0.07c0,0.54-0.42,0.97-1.25,1.28l-0.96-0.41l-0.08,0.08l0.4,0.45
		c0.5,0.53,1.4,0.86,2.69,1c0.9-0.1,1.35-0.27,1.35-0.5c0.35,0.4,0.8,0.58,1.35,0.54c0.27-0.01,0.64-0.23,1.1-0.63l0.08-0.01
		l0.08,0.07c1.17-0.42,1.75-0.94,1.75-1.54L50.31,28.7z M47.38,15.53l0.23-0.09v0.17l-0.23,0.09V15.53z M46.9,9.56l0.31-0.02v0.07
		l-0.31,0.1V9.56z M46.82,16.76l0.15-0.16v0.08l-0.15,0.16V16.76z M46.65,9.73v0.15l-0.08,0.01l-0.15-0.14L46.65,9.73z M46.74,17.17
		l-0.1,0.24l-0.15,0.01l0.08-0.24L46.74,17.17z M45.71,9.95l0.23-0.09l0.33-0.02v0.07l-0.56,0.12V9.95z M44.59,10.26v0.1l-0.08,0.01
		c-0.15,0.01-0.23-0.04-0.23-0.16L44.59,10.26z M44.68,20.4l-0.25,0.34l-0.15,0.01v-0.08h0.07l0.33-0.35V20.4z M45.07,19.91
		l-0.23,0.32l-0.15,0.01v-0.08l0.15-0.01c0.08-0.21,0.15-0.31,0.23-0.32V19.91z M45.56,20.81l-0.33,0.02v-0.08l0.33-0.09V20.81z
		 M46.02,20.6c-0.04,2.04-0.12,4.07-0.25,6.1c-0.1-2.03-0.15-4.06-0.16-6.09l-1.04-1.68l1.07-1.64c0.04-2.04,0.12-4.07,0.25-6.1
		c0.1,2.03,0.15,4.06,0.16,6.09l0.29,0.47l0.08-0.25h0.07v0.25l-0.14,0.01l0.74,1.2L46.02,20.6z M47.13,19.28l-0.23,0.25v-0.08
		l0.15-0.16L47.13,19.28z M46.11,26.94v-0.08h0.08c0.15-0.01,0.23,0.04,0.23,0.14L46.11,26.94z M46.49,26.43l-0.23,0.02V26.3
		l0.23,0.05V26.43z M46.74,26.51l0.08-0.01l0.31,0.06v0.08l-0.08,0.01l-0.31-0.06V26.51z M46.9,27.36v-0.15l0.31,0.21L46.9,27.36z
		 M47.21,16.35l-0.08,0.01v-0.08l0.08-0.26l0.17-0.01L47.21,16.35z M47.92,26.88l-0.08,0.01l-0.08-0.07l-0.38,0.03V26.7l0.08-0.01
		l0.08,0.07l0.38-0.03V26.88z"/>
	<path class="st0" d="M38.95,10.18c0.66-0.05,1.09,0.08,1.31,0.37l0.08-0.01l0.08-0.08c-0.07-0.23-0.35-0.57-0.85-1.02l-0.08,0.01
		l-0.08,0.08l0.08-0.24l-1.23-0.53L37.8,8.87l-0.31-0.06c-0.25,0.02-0.56,0.2-0.92,0.53c-0.32-0.34-0.65-0.49-1-0.47l-0.31,0.02
		l-0.23,0.25v0.08L34.8,9.16c-0.15,0.01-0.23,0.07-0.23,0.17c-0.57,0.19-1.18,0.72-1.85,1.59V11l0.09,0.06
		c0.57-0.4,0.96-0.61,1.15-0.62c0.56-0.04,0.9,0.42,1,1.39l-0.08,0.24l0.08,0.38l-0.08,0.39l0.08,0.38l-0.08,0.08l0.15,0.68
		c-0.1,0.22-0.15,0.64-0.15,1.24v1.23l0.23-0.02l-0.23,0.25l0.15,0.45v0.08l-0.08,0.08l0.08,0.61l-0.08,0.39l0.15,0.3l-0.15,0.16
		v0.31l0.08,0.3l-0.15,1.86l-0.08,0.01c-0.52-1.83-0.87-2.88-1.08-3.15V18l0.06-0.07l-0.38-0.97c-0.76-2.78-1.3-4.34-1.61-4.66
		l-0.08,0.01l-0.08,0.08l0.08-0.24c-0.19-0.76-0.45-1.12-0.77-1.1c0-0.2-0.08-0.3-0.23-0.29c-0.13-0.35-0.34-0.52-0.62-0.5
		c-0.06-0.19-0.6-0.49-1.61-0.89v0.07l-0.38-0.2L27.95,9.4L27.8,9.26c-0.52,0.09-0.86,0.19-1.02,0.31L26.09,10
		c-0.15,0.01-0.69,0.51-1.61,1.5v0.07l0.15-0.01c0.27-0.23,0.55-0.35,0.85-0.37l0.31-0.02l0.61,0.42c0.04,0.62,0.11,0.92,0.23,0.91
		l-0.08,0.24l0.08,0.3l-0.15,0.01v0.92l0.15,0.14l0.46-0.34l0.08-0.01v0.08c-0.46,0.2-0.69,0.52-0.69,0.97l0.08,0.53l-0.08,0.7v1.15
		l0.08,0.84c0,0.53-0.38,1.17-1.15,1.93v0.23l0.31,0.44c0.57,0.37,0.85,0.84,0.85,1.4l-0.08,0.08v0.15l0.08,0.38l-0.08,0.47v0.23
		l0.08,0.99l-0.08,0.85l0.08,0.3l-0.08,0.31v0.62l0.08,0.38l-0.08,0.08l0.08,0.23l-0.08,0.39l0.15,0.76l-0.15,0.4l0.15,0.53
		L25.95,30v0.07l0.08,0.07l-0.08,0.01l-0.15-0.14l-0.38,0.1l-0.23,0.02l-0.62-0.11l-0.15,0.01v0.08l1,0.78
		c0.6,0.1,0.98,0.22,1.15,0.38l0.23-0.17l0.08-0.01c0,0.15,0.05,0.23,0.15,0.22l0.31-0.02l0.77-0.36c0.37,0.23,0.73,0.33,1.08,0.31
		c0.42-0.03,0.83-0.21,1.23-0.55c0.44-0.03,0.95-0.37,1.54-1.03l-0.15-0.14l-0.08,0.01c-0.19,0.17-0.37,0.26-0.54,0.27l-0.23,0.02
		v0.15l-0.08,0.01c-0.77-0.43-1.15-1.07-1.15-1.92l0.08-0.47l-0.08-0.76l0.08-0.31l-0.23-0.29c0.15-0.01,0.23-0.07,0.23-0.17v-0.38
		l-0.08-1.07v-0.08l0.08-0.08v-0.08l-0.08-0.07l0.08-1.47V22.6l-0.15-0.45l0.15-0.7l-0.15-0.53l0.15-0.24v-1.92l0.08-0.01
		c0.11,0.56,0.27,0.96,0.46,1.2c0.51,2.04,0.92,3.22,1.23,3.53c0.09,0.77,0.27,1.14,0.54,1.12v0.15l-0.08,0.54l0.08-0.01
		c0.04,0.31,0.14,0.45,0.31,0.44l-0.15,0.16l0.15,0.45l0.08-0.01l0.08-0.08c0,0.46,0.1,0.68,0.31,0.67l-0.15,0.24l0.15,0.14
		l-0.08,0.24c0,0.3,0.12,0.45,0.38,0.43v0.15l-0.08,0.01l-0.08,0.08c0.45,1.64,0.96,2.63,1.54,2.97l0.46,0.12
		c0,0.26,0.74,0.33,2.23,0.23l0.23-0.02l1.15-0.54c0.73-0.32,1.29-0.97,1.69-1.96l-0.07-0.08l-0.69,0.66l-0.92,0.06
		c-0.32-0.39-0.5-0.84-0.54-1.35l0.08-0.08l-0.15-0.53l0.15-0.16v-0.31l-0.08-0.07l0.08-0.08v-0.15l-0.08-0.07l0.08-0.08v-0.08
		l-0.15-0.14l0.15-0.47l-0.08-0.3l0.08-0.31v-0.15l-0.15-0.22v-0.23l0.15-0.16l-0.08-0.46L38.2,24v-0.07l-0.08-0.07v-0.08l0.08-0.08
		v-0.08l-0.08-0.07v-0.08l0.08-0.08l-0.08-0.23v-0.08L38.2,23v-0.12l-0.08-0.07v-0.08l0.08-0.08l-0.08-0.3V22.2l0.08-0.39
		l-0.08,0.01l-0.08-0.07l0.15-0.24l-0.15-0.14c0-0.37,0.46-1.09,1.38-2.17v-0.15l-0.38-0.43l-0.23,0.17v-0.15
		c0-0.24-0.18-0.41-0.54-0.5c0-0.41-0.05-0.61-0.15-0.6l-0.08-0.23l0.08-0.08l-0.08-0.3v-0.08l0.08-0.08v-0.08l-0.08-0.07
		c0.1-0.22,0.15-0.5,0.15-0.86v-1.23L38.11,14h0.07v-0.13l-0.23-0.06v-0.08l0.23-0.25l-0.23-0.37c0.15-0.01,0.23-0.07,0.23-0.17
		v-0.85l-0.08-0.38l0.08-0.01C38.18,10.72,38.44,10.22,38.95,10.18z M27.49,13.44l0.08-0.01l0.08,0.07v0.24l-0.08,0.01l-0.08-0.23
		V13.44z M27.26,13.92l0.08-0.01l-0.15,0.16l-0.08,0.01L27.26,13.92z M28.88,25.88l-0.31,0.33l-0.15,0.01v-0.23l0.46-0.26
		l-0.08,0.08L28.88,25.88z M28.07,21.89c-0.03,1.56-0.09,3.11-0.17,4.65l0.13-0.14l0.08-0.01l-0.15,0.16l-0.07,0.01
		c-0.03,0.48-0.04,0.95-0.07,1.43c-0.1-2.03-0.15-4.06-0.16-6.09l-1.04-1.68l1.07-1.64c0.03-1.74,0.1-3.47,0.2-5.2l-0.01-0.04v-0.08
		l0.02,0c0.02-0.26,0.02-0.52,0.04-0.78c0.01,0.27,0.02,0.53,0.03,0.8l0.07,0.2v0.08l-0.06,0.01c0.07,1.67,0.11,3.34,0.12,5
		l1.04,1.68L28.07,21.89z M32.34,24.25l-0.23,0.09v-0.15l0.23-0.09V24.25z M33.19,23.65l-0.23,0.09l-0.08,0.01l0.31-0.25V23.65z
		 M33.34,23.56l-0.08,0.01v-0.08l0.08-0.08c0.15-0.01,0.23-0.07,0.23-0.17l0.08-0.01L33.34,23.56z M34.49,22.87l-0.23,0.09
		l-0.08,0.01v-0.08l0.08-0.08l0.23-0.02V22.87z M35.49,10.65c-0.25-0.02-0.38-0.08-0.38-0.2C35.36,10.47,35.49,10.53,35.49,10.65z
		 M34.72,22.63v-0.08l0.77-0.67h0.08C35.57,21.99,35.28,22.24,34.72,22.63z M37.25,11.37v0.15l-0.15,0.01l-0.15-0.14L37.25,11.37z
		 M36.18,10.99l0.54,0.18v0.08l-0.08,0.01l-0.46-0.12V10.99z M36.26,21.36l-0.08,0.01l0.15-0.16l0.08-0.01L36.26,21.36z
		 M37.49,21.74l-0.46,0.11v-0.08l0.08-0.08l0.38-0.03V21.74z M38.5,18.97l0.15-0.16l0.08-0.02v0.08l-0.38,0.41l-0.08,0.01
		L38.5,18.97z M38.42,19.75v0.08l-0.31,0.02v-0.08L38.42,19.75z M38.03,19.09l0.08-0.01v0.08l-0.04,0.16l0.04,0.07l-0.31,0.48l0,0
		l-0.01,0.01l-0.45,0.69v0.02l-0.02,0.01l-0.28,0.43c-0.04,2.04-0.12,4.07-0.25,6.1c-0.1-2.03-0.15-4.06-0.16-6.09l-1.04-1.68
		l1.07-1.64c0.04-2.04,0.12-4.07,0.25-6.1c0.1,2.03,0.15,4.06,0.16,6.09l0.92,1.49L38.03,19.09z"/>
	<path class="st0" d="M24.65,7.77c0-0.81-0.94-1.5-2.83-2.07l-0.25,0.02c-0.52,0.04-1.01,0.3-1.46,0.8C19.5,5.95,19,5.67,18.63,5.7
		l-0.22,0.02l-0.34,0.36l-0.34-0.09c-1.07,0.58-1.91,1.47-2.52,2.67v0.11l0.11-0.01c0.29-0.24,0.56-0.37,0.81-0.39l0.79-0.05
		l0.81,0.86v0.8l0.11,0.55l-0.25,0.24v1.26l0.13,0.1l-0.13,0.12v0.11l0.13,0.55l-0.13,0.14l0.25,0.21l-0.25,1.7l0.13,1.14
		l-0.13,1.13l0.13,0.13l-0.13,0.01l0.25,0.54l-0.11,0.01l-0.13,0.12l0.13,0.33l-0.13,0.57c0,0.23-0.6,1.06-1.8,2.51l0.56,0.66
		c0.3-0.02,0.45,0.12,0.45,0.42l0.11-0.01l0.11-0.12v0.22c0.47,0.72,0.7,1.24,0.7,1.55v0.11L17.6,24.4l0.27,1.44l-0.11,0.01
		l0.11,1.36l-0.25,2.17l0.25,0.21l-0.11,0.12l0.11,0.33l-0.25,0.38v0.22l0.25,0.21l-0.25,0.35v0.67l0.13,1.02
		c-0.33,2.06-1.32,3.14-2.97,3.26l-0.9,0.06c-1.16,0.08-2-1.04-2.52-3.35l0.11-0.12v-0.22l-0.22-1l0.22-0.35l-0.11-2.26l0.11-0.7
		c-0.14,0.01-0.25-0.32-0.34-0.99l0.34-0.36v-0.47l-0.11-0.44l0.11-0.46v-0.22l-0.22-0.32l0.58-1.3v-0.11l-0.11-0.1
		c0.3-0.02,0.45-0.22,0.45-0.59l0.11,0.1c0.22-0.11,0.6-0.55,1.12-1.34c-1.44-1.02-2.16-2.14-2.16-3.35l0.11-0.7l-0.22-0.32
		l0.34-0.02v-0.11l-0.11-0.67l0.11-0.57l-0.22-0.21l0.22-1.61l-0.11-1.03l0.25-1.84l-0.13-0.1c0.27-1.53,0.58-2.31,0.92-2.33
		l0.67-0.05L14,8.84V8.73l-1.26-1.37L12.4,7.5l-0.22,0.02l0.22-0.24c-0.5-0.65-1.22-1.06-2.16-1.22l-0.11,0.01
		C9.65,6.11,9.08,6.53,8.42,7.34c-0.65-0.6-1.37-0.97-2.16-1.11c-1.92,0.8-3.21,1.83-3.87,3.1v0.34l0.12-0.01l0.33-0.25l1.37-0.1
		c0.55-0.03,0.89,1.27,1.01,3.91l-0.11,0.01v0.22l0.22,0.57l-0.11,0.46v0.34l0.25,0.66l0.45-0.26l0.22-0.02v0.11
		c-0.69,0.05-1.03,0.79-1.03,2.23l0.11,0.8l-0.11,0.01v0.22C5.24,18.86,5.4,19,5.58,18.99c-0.31,0.49-0.47,0.88-0.47,1.16
		l-1.68,2.16c1.2,1.27,1.8,2.18,1.8,2.73L5.12,25.5v0.33l0.22,0.66l-0.22,0.94c0.08,1.66,0.19,2.48,0.36,2.47l-0.25,0.8l0.08,1.02
		L5.2,32.51l0.58,2.79v0.11l-0.11,0.12c0.36,1.38,1.15,2.57,2.38,3.58c1.11,0.67,2.66,1.09,4.65,1.27l0.45-0.17l0.7,0.09l0.9-0.06
		c2.68-0.19,4.72-1.43,6.13-3.73c0.99-1.79,1.48-3.15,1.48-4.06v-0.11l-0.11-0.1c-0.3,0.02-0.45-0.05-0.45-0.22l0.34,0.09
		c0.23-0.06,0.34-0.37,0.34-0.92v-0.11l-0.22-0.21l0.22-0.24l-0.11-0.33l0.11-1.38l-0.22-0.55l0.22-0.71v-0.22l-0.11-1.23l0.11-0.59
		l-0.22-0.55l0.22-1.36l-0.11,0.01l-0.11-0.1c0.47-0.89,1.16-1.77,2.04-2.66v-0.34c-1.29-1.27-1.93-2.1-1.93-2.47l0.11-0.34
		l-0.11-0.78l0.11-0.7l-0.11-0.67l0.11-0.68v-3.75l-0.22-0.66l0.22-0.71l-0.11-0.44c0-0.81,0.27-1.32,0.79-1.54l1.6,0.23l0.11-0.01
		V7.98L24.65,7.77z M6.03,10.11l-0.22,0.02L5,9.96V9.74L6.03,10V10.11z M8.53,10.61l0.11-0.01l0.67,0.18v0.11L9.2,10.9l-0.67-0.18
		V10.61z M8.42,14.26l0.34-0.03v0.11l-0.34,0.14V14.26z M7.74,10.44L8.3,10.4v0.11l-0.56,0.04V10.44z M6.37,23.81l-0.45-0.19v-0.11
		l0.11-0.02c0.3,0.1,0.45,0.21,0.45,0.31L6.37,23.81z M6.93,28.54v-0.11l0.11-0.01c0.54,0.14,0.81,0.27,0.81,0.39L6.93,28.54z
		 M8.31,37.62l-0.34,0.14v-0.22l0.34-0.03V37.62z M9.09,37.35l-0.56,0.04v-0.11l0.56-0.04V37.35z M10.01,29.69l-0.34,0.02l-0.11-0.1
		V29.5l0.45,0.08V29.69z M9.2,25.77v-0.11l0.11-0.12l0.36,0.09v0.11L9.2,25.77z M8.4,24.65c-0.03,3.13-0.12,6.25-0.25,9.36
		c-0.1-3.04-0.15-6.09-0.16-9.14L6.3,22.49l1.71-2.45c0.02-1.81,0.07-3.61,0.12-5.41l-0.5,0.13l-0.11,0.01v-0.11l0.33-0.14
		l0.28-0.02c0.03-1.19,0.07-2.38,0.12-3.56c0.1,3.12,0.15,6.25,0.16,9.38l1.69,2.14L8.4,24.65z M10.23,29.9v-0.11l0.11-0.01
		c0.37,0.07,0.56,0.17,0.56,0.3L10.23,29.9z M20.19,23.39c-0.04,2.25-0.12,4.49-0.25,6.73c-0.1-2.23-0.15-4.46-0.16-6.7l-1.33-2.14
		l1.36-2.07c0.04-2.25,0.12-4.49,0.25-6.73c0.1,2.23,0.15,4.46,0.16,6.7l1.33,2.14L20.19,23.39z M21.02,31.75v0.11l-0.56,0.04v-0.22
		L21.02,31.75z M19.19,27.57v0.11l-0.22,0.24v-0.11L19.19,27.57z M20.46,10.12l0.11-0.01c-0.1,0.25-0.45,0.54-1.03,0.88
		C19.57,10.7,19.87,10.41,20.46,10.12z M18.07,31.85l-0.22-0.21l0.11-0.01l0.22,0.21L18.07,31.85z M18.19,11.53l0.34-0.13v0.11
		l0.22-0.02v0.11l-0.56,0.04V11.53z M18.63,32.26l-0.22-0.21l0.11-0.01l0.22,0.21L18.63,32.26z M19.2,31.65l-0.45-0.08v-0.22
		l0.45,0.08V31.65z M20.01,32.97l-0.7-0.4v-0.11l0.7,0.29V32.97z M19.78,31.73v-0.11l0.11-0.01c0.23-0.02,0.34,0.05,0.34,0.2
		L19.78,31.73z M20.79,33.58v-0.22c-0.3,0.02-0.45-0.04-0.45-0.19l0.79,0.28v0.11L20.79,33.58z M21.13,33.79v-0.11l0.11-0.01
		c0.23-0.02,0.34,0.05,0.34,0.2L21.13,33.79z M21.69,32.15l-0.11,0.01l-0.34-0.09v-0.11l0.11-0.01l0.34,0.09V32.15z"/>
	<path class="st0" d="M113.7,2.47c0.83-0.05,1.37,0.1,1.65,0.47l0.1-0.01l0.1-0.1c-0.08-0.28-0.44-0.71-1.07-1.28l-0.1,0.01
		l-0.1,0.1l0.1-0.3l-1.55-0.67l-0.58,0.14l-0.39-0.07c-0.32,0.02-0.71,0.24-1.16,0.66c-0.4-0.42-0.82-0.62-1.26-0.59l-0.39,0.03
		l-0.29,0.31v0.1l-0.29-0.08c-0.19,0.01-0.29,0.08-0.29,0.21c-0.71,0.24-1.49,0.91-2.33,2v0.1l0.1,0.09
		c0.72-0.5,1.21-0.76,1.45-0.78c0.71-0.05,1.13,0.53,1.26,1.75l-0.1,0.3l0.1,0.48l-0.1,0.49l0.1,0.48l-0.1,0.1l0.19,0.86
		c-0.13,0.29-0.19,0.81-0.19,1.57v1.56l0.29-0.02l-0.29,0.31l0.19,0.57v0.1l-0.1,0.1l0.1,0.77l-0.1,0.49l0.19,0.37l-0.19,0.21v0.39
		l0.1,0.38l-0.19,2.34l-0.1,0.01c-0.65-2.32-1.1-3.64-1.36-3.98v-0.1l0.1-0.1l-0.48-1.23c-0.97-3.5-1.65-5.46-2.04-5.87l-0.1,0.01
		l-0.1,0.1l0.1-0.3c-0.24-0.96-0.57-1.42-0.97-1.39c0-0.26-0.1-0.38-0.29-0.37c-0.17-0.44-0.42-0.65-0.78-0.62
		c-0.09-0.24-0.76-0.61-2.04-1.12v0.1l-0.48-0.26L99.83,1.5l-0.19-0.18c-0.66,0.11-1.08,0.24-1.26,0.37l-0.87,0.55
		c-0.2,0.02-0.88,0.65-2.04,1.89v0.1l0.19-0.01c0.34-0.28,0.7-0.43,1.07-0.46l0.39-0.03l0.78,0.53c0.05,0.77,0.14,1.15,0.29,1.14
		l-0.1,0.3l0.1,0.38L98,6.09v1.16l0.19,0.18L98.77,7h0.09v0.1c-0.58,0.25-0.87,0.66-0.87,1.22l0.1,0.67l-0.1,0.88v1.43l0.1,1.06
		c0,0.66-0.48,1.47-1.45,2.43v0.29l0.39,0.55c0.71,0.47,1.07,1.06,1.07,1.77L98,17.5v0.19l0.1,0.48L98,18.76v0.29l0.1,1.25L98,21.37
		l0.1,0.38L98,22.14v0.78l0.1,0.48L98,23.5l0.1,0.28L98,24.27l0.19,0.96L98,25.73l0.19,0.67l-0.87,1.03v0.1l0.1,0.09l-0.1,0.01
		l-0.19-0.18l-0.48,0.13l-0.29,0.02l-0.78-0.14l-0.19,0.01v0.1l1.26,0.98c0.76,0.12,1.24,0.28,1.45,0.48l0.29-0.21l0.1-0.01
		c0,0.2,0.06,0.29,0.19,0.28l0.39-0.03l0.97-0.46c0.47,0.29,0.92,0.42,1.36,0.39c0.53-0.04,1.05-0.27,1.55-0.69
		c0.55-0.04,1.2-0.47,1.94-1.3l-0.19-0.18l-0.1,0.01c-0.24,0.21-0.47,0.32-0.68,0.34l-0.29,0.02v0.19l-0.1,0.01
		c-0.97-0.55-1.45-1.35-1.45-2.42l0.1-0.59l-0.1-0.96l0.1-0.39l-0.29-0.37c0.19-0.01,0.29-0.08,0.29-0.21v-0.48l-0.1-1.35v-0.1
		l0.1-0.1v-0.1l-0.1-0.09l0.1-1.85v-0.29l-0.19-0.57l0.19-0.89l-0.19-0.67l0.19-0.3v-2.42l0.1-0.01c0.14,0.7,0.34,1.2,0.58,1.51
		c0.65,2.57,1.16,4.06,1.55,4.45c0.11,0.96,0.34,1.43,0.68,1.41v0.19l-0.1,0.69l0.1-0.01c0.05,0.38,0.18,0.56,0.39,0.55l-0.19,0.21
		l0.19,0.57l0.1-0.01l0.1-0.1c0,0.58,0.13,0.86,0.39,0.84l-0.19,0.3l0.19,0.18l-0.1,0.3c0,0.39,0.16,0.57,0.48,0.55v0.19l-0.1,0.01
		l-0.1,0.1c0.57,2.06,1.21,3.31,1.94,3.74l0.58,0.15c0,0.33,0.94,0.42,2.81,0.29l0.29-0.02l1.45-0.68c0.92-0.4,1.63-1.22,2.13-2.47
		l-0.1-0.09l-0.87,0.84L113.32,27c-0.41-0.49-0.63-1.06-0.68-1.7l0.1-0.1l-0.19-0.66l0.19-0.21v-0.39l-0.1-0.09l0.1-0.1v-0.19
		l-0.1-0.09l0.1-0.1v-0.1l-0.19-0.18l0.19-0.6l-0.1-0.38l0.1-0.4v-0.19l-0.19-0.28v-0.29l0.19-0.21l-0.1-0.57l0.1-0.3v-0.1
		l-0.1-0.09v-0.1l0.1-0.1v-0.1l-0.1-0.09v-0.1l0.1-0.1l-0.1-0.28v-0.1l0.1-0.1v-0.1l-0.1-0.09v-0.1l0.1-0.1l-0.1-0.38v-0.19
		l0.1-0.49l-0.1,0.01l-0.1-0.09l0.19-0.3l-0.19-0.18c0-0.47,0.58-1.38,1.74-2.74v-0.19l-0.48-0.55l-0.29,0.21v-0.19
		c0-0.31-0.23-0.52-0.68-0.63c0-0.52-0.06-0.77-0.19-0.76l-0.1-0.28l0.1-0.1l-0.1-0.38v-0.1l0.1-0.1v-0.1l-0.1-0.09
		c0.13-0.27,0.19-0.63,0.19-1.08V7.97l-0.1-0.67l0.1-0.01V7.1l-0.29-0.08v-0.1l0.29-0.31l-0.29-0.46c0.19-0.01,0.29-0.08,0.29-0.21
		V4.87l-0.1-0.48l0.1-0.01C112.73,3.15,113.05,2.52,113.7,2.47z M99.25,6.58l0.1-0.01l0.1,0.09v0.29l-0.1,0.01l-0.1-0.28V6.58z
		 M98.96,7.18l0.1-0.01l-0.19,0.21l-0.1,0.01L98.96,7.18z M101,22.26l-0.39,0.41l-0.19,0.01v-0.29l0.58-0.32l-0.1,0.1L101,22.26z
		 M100.18,16.48c-0.04,3.27-0.12,6.55-0.26,9.81c-0.04-1.06-0.06-2.12-0.08-3.18l0,0l-0.1,0.01l0.1-0.11
		c-0.05-2.19-0.08-4.38-0.08-6.57l-1.22-1.95l1.25-1.93c0.02-1.95,0.07-3.89,0.13-5.84l-0.08,0.01l-0.1-0.28v-0.1l0.1-0.01
		l0.08,0.23c0.04-1.12,0.07-2.24,0.12-3.36c0.1,3.13,0.15,6.26,0.16,9.4l1.22,1.95L100.18,16.48z M105.36,20.2l-0.29,0.12v-0.19
		l0.29-0.12V20.2z M106.43,19.45l-0.29,0.12l-0.1,0.01l0.39-0.32V19.45z M106.62,19.34l-0.1,0.01v-0.1l0.1-0.1
		c0.19-0.01,0.29-0.08,0.29-0.21l0.1-0.01L106.62,19.34z M108.07,18.46l-0.29,0.12l-0.1,0.01v-0.1l0.1-0.1l0.29-0.03V18.46z
		 M108.85,2.81c0.32,0.02,0.48,0.11,0.48,0.26C109.01,3.04,108.85,2.96,108.85,2.81z M108.36,18.16v-0.1l0.97-0.84l0.1-0.01
		C109.43,17.36,109.07,17.67,108.36,18.16z M110.21,3.49l0.68,0.23v0.1l-0.1,0.01l-0.58-0.15V3.49z M110.31,16.56l-0.1,0.01
		l0.19-0.21l0.1-0.01L110.31,16.56z M111.38,16.23c0,0.25-0.01,0.5-0.01,0.75l0,0l0.48-0.04v0.1l-0.49,0.12
		c-0.04,3.05-0.12,6.1-0.24,9.14c-0.11-3.19-0.16-6.39-0.16-9.59l-1.39-2.22l1.41-2.19c0.04-2.76,0.11-5.53,0.22-8.28L111.18,4
		l0.02,0c0.01-0.26,0.02-0.53,0.03-0.79c0.01,0.26,0.01,0.52,0.02,0.78l0.31-0.02v0.2l-0.19,0.01l-0.12-0.11
		c0.09,2.93,0.14,5.87,0.14,8.8l1.06,1.69L111.38,16.23z M113.12,13.56l0.19-0.21l0.1-0.01v0.1l-0.48,0.52l-0.1,0.01L113.12,13.56z
		 M113.02,14.53v0.1l-0.39,0.03v-0.1L113.02,14.53z M112.53,13.7l0.1-0.01v0.1l-0.1,0.39l-0.1,0.01V14L112.53,13.7z"/>
	<path class="st0" d="M79.81,16.39c-0.24-0.3-0.49-0.5-0.73-0.6c0-0.25-0.17-0.38-0.52-0.41V15.3l0.08-0.01l0.06,0.07
		c-0.16-0.44-0.28-0.66-0.37-0.65l0.08-0.45c0-0.17-0.1-0.4-0.29-0.71l0.21-0.02c-0.09-0.82-0.22-1.23-0.37-1.22l0.08-0.24
		c-0.18-0.83-0.35-1.31-0.52-1.44c-0.26-0.9-0.67-1.75-1.25-2.57V7.98l-0.23,0.09L75,6.89c-0.94-0.63-1.8-0.91-2.58-0.86l-0.23,0.02
		c-0.62,0.04-0.98,0.19-1.1,0.44c-0.65,0.04-1.22,0.45-1.69,1.23V7.8l0.08,0.09c-0.56,0.21-1.17,0.92-1.85,2.13
		c-0.14,0.69-0.36,1.27-0.65,1.74c-0.5,1.79-0.75,3.14-0.75,4.05c0,0.17-0.39,0.71-1.17,1.62v0.15l1.25,1.24l-0.08,0.37v0.08
		l0.08,0.3l-0.08,0.29v0.44c0.02,0.35,0.07,0.52,0.15,0.51c0.1,1.86,0.32,2.78,0.67,2.76v0.08l-0.15,0.22l0.23,0.21l-0.08,0.22
		c0.29,0.38,0.44,0.78,0.44,1.22l1.02,1.64c1.2,1.34,2.41,1.97,3.63,1.88l0.37-0.1l0.6,0.11c0.36-0.06,0.98-0.47,1.85-1.24
		c1.42-1.15,2.13-2.18,2.13-3.09c0.35-0.41,0.65-1.05,0.88-1.91l-0.08-0.3l0.67-3.58l-0.08-0.36l0.08-0.24l-0.08-0.21l0.21-0.38
		L79.81,16.39z M67.92,23.83l-0.08,0.01l-0.15-0.14l0.23-0.02V23.83z M68.05,17.26l-0.44,0.18h-0.06c0-0.1,0.15-0.19,0.44-0.26h0.06
		V17.26z M76.4,13.58l0.31-0.1l0.08-0.01l-0.31,0.25l-0.08,0.01V13.58z M72.42,8.24l0.52,0.12v0.07l-0.15,0.01l-0.37-0.05V8.24z
		 M71.75,8.15h0.07l0.37,0.03v0.08h-0.06l-0.38-0.05V8.15z M69.02,16.9L68.65,17l-0.08,0.01v-0.08l0.45-0.18V16.9z M69.76,24.08
		l-0.15,0.01c-0.14,0.01-0.21-0.03-0.21-0.12L69.76,24V24.08z M69.69,16.62l-0.08,0.01l0.15-0.14l0.08-0.01L69.69,16.62z
		 M70.29,24.27l-0.08,0.01c-0.15,0.01-0.23-0.04-0.23-0.14l0.31,0.05V24.27z M70.34,16.36l-0.29,0.1v-0.15l0.29-0.03V16.36z
		 M73.45,27.3l-0.31,0.1l-0.13,0.01v-0.08l0.29-0.1l0.15-0.01V27.3z M74.12,15.08c0,0.21-0.42,0.8-1.25,1.78
		c0.83,0.91,1.25,1.48,1.25,1.7l-0.08,0.81l0.08,0.59l-0.08,0.66l0.15,0.35l-0.08,0.01l-0.08,0.08l0.08,1.63l-0.08,0.29l0.15,0.51
		l-0.15,0.45c0.13-0.01,0.2,0.11,0.23,0.35c-0.36,1.36-0.92,2.07-1.69,2.12l-0.38,0.03c-0.73,0.05-1.22-0.44-1.46-1.46
		c0-0.44-0.12-0.65-0.38-0.63V24.2c0.21-0.02,0.31-0.08,0.31-0.18v-0.08l-0.08-1.84l0.08-0.29l-0.08-0.21l0.08-0.39v-0.08
		l-0.08-0.05L70.66,21v-0.31l-0.15-0.12l0.15-0.16l-0.08-0.28l0.08-1.41c0-0.25,0.39-0.85,1.17-1.79v-0.06
		c-0.76-0.72-1.17-1.23-1.25-1.55v-0.08l0.08-0.08V15.1l-0.08-0.07v-0.08l0.08-0.08v-0.08l-0.08-0.07l0.08-0.51l0.08-3.33
		l-0.08-0.59l0.15-0.16v-0.06l-0.08-0.38l0.07-0.01c0.32-0.62,0.81-0.94,1.46-0.99l0.08-0.01c0.42-0.03,0.74,0,0.96,0.09l0.09-0.05
		l0.08-0.01c0.38,0.81,0.6,1.41,0.65,1.8l-0.08,0.29v0.67l0.08,0.44l-0.08,0.24l0.08,0.88l-0.08,1.1c0,0.16,0.08,0.33,0.23,0.5
		l-0.23,0.3v0.08L74.12,15.08z M74.78,25.44l-0.15,0.01l-0.29-0.21l0.07-0.01l0.37,0.13V25.44z M74.94,25.55l-0.08,0.01v-0.13
		l0.21-0.02L74.94,25.55z M76.34,25.83l-0.31,0.02v-0.06l0.31-0.02V25.83z M76.48,18.4c0,2.24-0.37,4.43-1.29,6.42
		c0.19-0.64,0.41-1.27,0.52-1.95c0.25-1.33,0.36-2.68,0.36-4.03l-1.18-1.9l0.99-1.52c-0.04-0.36-0.09-0.73-0.14-1.09
		c-0.04,0.04-0.07,0.09-0.07,0.17l-0.08,0.01v-0.15l0.08-0.06v-0.08l-0.08-0.07v-0.08l0.11-0.02c-0.24-1.7-0.57-3.39-0.91-5.04
		c0.52,1.55,0.96,3.23,1.27,4.95l0.33-0.15l0.08-0.01v0.06c-0.14,0.01-0.21,0.07-0.21,0.17l-0.19,0.02
		c0.06,0.35,0.13,0.71,0.18,1.06l1.16,1.87L76.48,18.4z M75.07,14.48l0.15-0.14l0.08-0.01l-0.15,0.14L75.07,14.48z M77.52,13.58
		l-0.29,0.02v-0.08l0.29-0.02V13.58z M77.59,13.5v-0.08l0.29-0.1l0.15-0.01v0.08l-0.31,0.1L77.59,13.5z M78.19,15.07l-0.08,0.01
		l-0.31-0.04v-0.08l0.08-0.01l0.31,0.06V15.07z"/>
</g>
</svg>
