<?xml version="1.0" encoding="utf-8"?>
<!-- Generator: Adobe Illustrator 27.0.0, SVG Export Plug-In . SVG Version: 6.00 Build 0)  -->
<svg version="1.1" id="Layer_1" xmlns="http://www.w3.org/2000/svg" xmlns:xlink="http://www.w3.org/1999/xlink" x="0px" y="0px"
	 viewBox="0 0 178 153.5" style="enable-background:new 0 0 178 153.5;" xml:space="preserve">
<style type="text/css">
	.st0{fill:#FFEEDE;}
	.st1{fill:#FFFFFF;stroke:#000000;stroke-width:0.25;stroke-miterlimit:10;}
	.st2{fill:#FFC550;}
	.st3{opacity:0.41;}
	.st4{clip-path:url(#SVGID_00000021830141927965357250000000204719307479175571_);}
	.st5{opacity:0.73;clip-path:url(#SVGID_00000109021573876096317210000017687702316111440302_);}
	.st6{opacity:0.45;clip-path:url(#SVGID_00000109021573876096317210000017687702316111440302_);}
	.st7{clip-path:url(#SVGID_00000109021573876096317210000017687702316111440302_);fill:#FFEEDE;}
	.st8{clip-path:url(#SVGID_00000109021573876096317210000017687702316111440302_);fill:#F84143;}
	.st9{fill-rule:evenodd;clip-rule:evenodd;fill:#FFC550;}
	.st10{fill-rule:evenodd;clip-rule:evenodd;fill:#333333;}
	.st11{fill:none;}
	.st12{fill:#554BA0;}
	.st13{fill-rule:evenodd;clip-rule:evenodd;fill:#FFFFFF;}
	.st14{fill:#FFFFFF;}
	.st15{fill:#5E5E5E;}
	.st16{fill:#57758F;}
	.st17{fill:#F8C64F;}
	.st18{opacity:0.38;}
	.st19{fill-rule:evenodd;clip-rule:evenodd;fill:#FFEEDE;}
	.st20{opacity:0.19;}
	.st21{fill:#333333;}
	.st22{fill:#FF9522;}
	.st23{fill:#F84143;}
	.st24{clip-path:url(#SVGID_00000063591297540976610820000003133090398676869556_);}
	.st25{clip-path:url(#SVGID_00000018941562947565117490000007885136590051779230_);}
	.st26{opacity:0.73;}
	.st27{clip-path:url(#SVGID_00000018941562947565117490000007885136590051779230_);fill:#FFEEDE;}
	.st28{clip-path:url(#SVGID_00000018941562947565117490000007885136590051779230_);fill:#F84143;}
	.st29{opacity:0.75;}
	.st30{fill:url(#SVGID_00000116204631359021772870000014727043096300104611_);}
	.st31{fill:url(#SVGID_00000129193106972030828030000017378470307811891606_);}
	.st32{fill:url(#SVGID_00000027577746464848982100000017668397045154112152_);}
	.st33{fill:url(#SVGID_00000118369826045066739070000007155807635927273361_);}
	.st34{fill:url(#SVGID_00000172431550632931851330000000548194162780982196_);}
	.st35{fill:url(#SVGID_00000146468152236989493360000008395414996661711232_);}
	.st36{fill-rule:evenodd;clip-rule:evenodd;fill:#F84143;}
	.st37{fill-rule:evenodd;clip-rule:evenodd;fill:#231F20;}
	.st38{opacity:0.3;}
	.st39{opacity:0.51;}
	.st40{fill:#040213;}
	.st41{fill-rule:evenodd;clip-rule:evenodd;}
	.st42{clip-path:url(#SVGID_00000144312882828258412740000012342008906103426990_);}
	.st43{clip-path:url(#SVGID_00000091731827850428484160000004378038740790117533_);}
	.st44{clip-path:url(#SVGID_00000091731827850428484160000004378038740790117533_);fill:#FFEEDE;}
	.st45{clip-path:url(#SVGID_00000091731827850428484160000004378038740790117533_);fill:#F84143;}
	.st46{fill-rule:evenodd;clip-rule:evenodd;fill:#554BA0;}
	.st47{fill:#FFFEFF;}
	.st48{fill:#FF434D;}
	.st49{fill:#8FBD6D;}
	.st50{fill:#5D8AD1;}
	.st51{clip-path:url(#SVGID_00000179634433486342259290000010760735411066571684_);}
	.st52{opacity:0.73;clip-path:url(#SVGID_00000058562666704143106790000018355038504944041357_);}
	.st53{opacity:0.45;clip-path:url(#SVGID_00000058562666704143106790000018355038504944041357_);}
	.st54{clip-path:url(#SVGID_00000058562666704143106790000018355038504944041357_);fill:#FFEEDE;}
	.st55{clip-path:url(#SVGID_00000058562666704143106790000018355038504944041357_);fill:#F84143;}
	.st56{fill-rule:evenodd;clip-rule:evenodd;fill:#FF9522;}
</style>
<g>
	<path class="st14" d="M1.42,14.46l12.76-0.89c8.76-0.61,12.53,3.2,12.53,11.5v2.15c0,5.54-1.69,9.11-5.46,10.92v0.15
		c4.54,1.22,6.3,5.09,6.3,10.78v4.61c0,8.3-4.38,13.07-12.84,13.66l-13.3,0.93V14.46z M13.19,35.55c3.15-0.22,5.07-1.74,5.07-6.04
		v-3c0-3.84-1.31-5.44-4.31-5.23l-4.08,0.29v14.22L13.19,35.55z M14.72,59.66c2.84-0.2,4.38-1.61,4.38-5.61v-4.69
		c0-5-1.61-6.42-5.46-6.15l-3.77,0.26V60L14.72,59.66z"/>
	<path class="st14" d="M122.21,6.01l12.92-0.9c8.46-0.59,12.61,3.81,12.61,12.42v27.22c0,8.61-4.15,13.59-12.61,14.18l-12.92,0.9
		V6.01z M134.97,51.25c2.69-0.19,4.31-1.69,4.31-5.53V17.74c0-3.84-1.61-5.12-4.31-4.93l-4.31,0.3v38.45L134.97,51.25z"/>
	<path class="st14" d="M153.42,3.83l23.07-1.61v7.69l-14.61,1.02v14.22l11.61-0.81v7.69l-11.61,0.81v16.53l14.61-1.02v7.69
		l-23.07,1.61V3.83z"/>
	<path class="st14" d="M50.01,64.68c0.72-1.31,1.59-5.03,1.84-7.61l-10.91,0.76V11.7l-8.46,0.59v53.82l17.43-1.22
		C49.95,64.82,49.97,64.75,50.01,64.68z"/>
	<path class="st14" d="M130.68,97.79c-0.88-0.45-1.87-0.63-2.82-0.9c0.42-1.75,2.21-2.72,3.66-3.78c3.72-2.69,6-6.89,8.15-10.95
		c-1.38,1.45-3.63,1.48-5.63,1.41c-3.11-0.11-6.22-0.22-9.34-0.32c-1.19-0.04-2.65-0.27-3.06-1.39c-0.27-0.73,0.06-1.54,0.5-2.18
		c1.73-2.5,7.98-1.73,9.45-6.59c-2.21-0.4-5.36,0.28-7.06-1.2c-1.7-1.47-4.07-2.74-6.11-1.8c-1.4,0.64-2.78,2.25-4.14,1.51
		c0.19-4.69,3.36-8.98,7.52-11.14c0.28-0.14,0.55-0.29,0.83-0.43c-2.94-0.66-5.92-1.31-8.94-1.2c-3.01,0.11-6.11,1.08-8.2,3.26
		c-0.44,0.46-0.88,0.99-1.5,1.15c-0.78,0.19-1.61-0.34-1.97-1.06c-0.36-0.72-0.35-1.57-0.22-2.37c0.37-2.24-1.03-5.59,2.28-9.74
		c-1.05,0.2-5.26,2.63-7.21,3.82c-1.58,0.96-3.05,1.81-3.99,3.4c-0.42,0.71-0.43,1.58-0.77,2.33c-0.33,0.75-1.23,1.28-1.95,0.89
		c-0.97-0.52-2.45-2.44-2.54-3.73c-0.05-0.73,0.86-2.53,1.1-3.22c0.9-2.56,0-6.26,0.9-8.82c-1.69,2.24-6,4.58-8.59,5.65
		c-2.59,1.07-3.99,3.87-4.19,6.67c-0.13,1.85-1.94,5.22-2.86,5.11c-0.7-0.09-1.47-0.21-1.94-0.73c-0.48-0.53-0.52-1.32-0.58-2.04
		c-0.15-1.63-0.58-3.23-1.27-4.72c-0.61,3.08-5.1,4.23-5.54,7.34c-0.36,2.56,2.33,5.16,1.19,7.48c-1.51-0.25-3.61-1.04-3.98-2.52
		c-0.17-0.66,0.01-1.4-0.3-2.01c-0.42-0.85-1.78-2.76-2.68-3.05c-1.99-0.64-5.08-5.56-5.65-7.57c0.68,2.11-0.86,9.13-1.92,11.08
		c-1.08,1.99-0.01,4.37,0.52,6.57c0.36,1.52,1.24,2.86,2.18,4.1c0.55,0.73,1.15,1.51,1.18,2.43c0.03,1.22-1.09,2.28-2.3,2.39
		c-1.21,0.12-2.98-3.33-3.72-4.31c-0.83-1.11-7.35-4.91-8.59-5.54c0.79,2.39,3.28,5.54,4.9,12.33c0.57,2.41,4.5,6.3,4.55,6.56
		c0.16,0.82-0.96,1.21-1.79,1.36c-0.99,0.18-5.54,1.85-6.87,2.7c-1.33,0.85-7.36,0.99-8.59,0c1.64,2.58,8.7,5.87,11.53,7.01
		c1.68,0.68,5.93,0.26,6.69,2.17c0.21,0.54,0.33,1.12,0.23,1.69c-0.4,2.12-3.52,1.43-5.56,2.14c-2.04,0.71-8.28,3.39-10.29,4.18
		c1.89-0.48,8.08,1.96,9.27,3.5c1.19,1.55,3.58,2.23,5.42,1.59c0.7-0.25,1.39-0.83,2.1-0.6c0.85,0.27,0.94,1.44,0.75,2.31
		c-0.62,2.78-3.54,3.3-6.68,4.96c-1.86,0.99-3.75,3.96-5.43,3.73c0.94,1.27,2.98,0.68,4.86,1.02c1.88,0.34,3.6,1.6,5.18,1.67
		c3.97,0.17,8.56-1.83,12.46-1.07c0.42,3.12-4.36,8.11-6.56,10.37c2.94-0.23,8.04-1.62,9.99-2.74c1.95-1.12,4.59-2.1,6.25-0.6
		c1.41,1.27,1.15,3.55,0.53,5.34c-0.55,1.59-6.42,9.05-7.16,8.67c3.5,0.17,10.96-2.16,12.74-2.88c1.78-0.73,3.39-2.15,3.82-4.03
		c0.21-0.9,0.14-1.86,0.39-2.75c0.25-0.89,0.98-1.77,1.91-1.72c-0.12,3.18,2.7,5.67,5.5,7.18c2.38,1.28,3.09,3.63,2.38,4.29
		c1.82-0.37,2.55-2.64,2.38-4.49c-0.17-1.85,1.11-3.48,1.22-5.34c0.17-2.8,6.52-0.69,6.18,1.96c-0.33,2.57,3.11,8.38,4.28,9.88
		c0.34-1.94,0.79-5.47,2.4-6.59c2.64-1.84,3.97-4.32,2.8-7.31c-0.72-1.84-1.5-4.31-0.45-5.99c0.92-1.46,2.52-2.04,3.44-0.57
		c0.63,1.01,0.62,2.3,1.06,3.41c0.57,1.44,5.03,4,6.24,4.96c-0.69-2.23-3.53-6.29-2.24-8.23c0.65-0.97,1.53-1.86,1.68-3.02
		c0.32-2.5-3.2-5.29-2.72-6.3c0.47-1.01,6.16-1.43,8,0.14c1.78,1.51,1.89,4.92,4.43,7.58c-0.84-0.64-0.32-6.17,0.24-8.89
		c0.73-3.53-0.6-7.4-3.3-9.79c-0.6-0.53-1.27-1.01-1.63-1.72c-0.36-0.71-0.24-1.75,0.49-2.08c2.19-0.31,5.4,0.19,10.14,3.16
		c0.25-2.05-3.38-5.39-3.76-7.42C133.62,100.72,132.51,98.72,130.68,97.79z M121.31,107.35c-0.14,2.4,8.03,4.07,8.8,14.34
		c-3.72-5.96-5.6-3.46-10.22-3.16c-1.01,0.07-2.11,0.04-3.22-0.17c-0.92-0.17-1.66,0.77-1.3,1.64c0.33,0.79,0.66,1.52,1.28,2.45
		c1.98,2.98,3.86,5.45,2.19,8.74c-1.43-5.67-4.61-4.11-9.15-4.97c0,0-0.01,0-0.01,0c-0.61-0.11-1.21,0.27-1.35,0.88
		c-0.12,0.51-0.28,1.04-0.48,1.61c-0.98,2.86,0.58,4.49,1.39,6.72c0.59,1.61,0.56,5.97-3.22,8.33c0.98-6.96-2.06-6.25-5.8-8.98
		c-0.81-0.59-1.62-1.31-2.33-2.17c-0.61-0.74-1.47-0.35-2.07,0.39c-1.57,1.93-3.8,6.45-1.88,10.86c-4.75-2.26-6.1-3.28-6.47-9.73
		c0,0-0.01-0.01-0.01-0.01c-0.39-0.48-1.1-0.56-1.6-0.2c-0.42,0.31-0.89,0.62-1.4,0.93c-2.59,1.56-2.44,3.81-3.25,6.05
		c-0.59,1.61-3.41,4.94-7.82,4.32c5.22-4.7,2.44-6.12,1.33-10.61c-0.24-0.98-0.41-2.07-0.39-3.2c0.01-0.94-1.05-1.5-1.84-1
		c-0.72,0.46-1.38,0.92-2.19,1.69c-2.59,2.47-3.49,0.01-6.2,2.61c0.9-3.39,1.22-4.18,1.28-8.8c0,0,0-0.01,0-0.01
		c0.01-0.62-0.48-1.14-1.1-1.18c-0.52-0.03-3.46,0.73-6.74,1.63c-1.65,0.46-7.1,2.31-10.08-1c7.02-1.26,5.8-3.12,7.84-7.27
		c0.44-0.9,1-1.82,1.73-2.67c0.62-0.73,0.21-1.85-0.74-1.97c-0.85-0.11-1.65-0.19-2.77-0.12c-3.57,0.22-6.65,0.62-8.67-2.47
		c5.62,1.6,9.15-4.35,8.95-6.43c-0.34-3.48-6.67-7.35-12.55-7.35c3.5-2.6,11.31-3.39,12.87-5.08c0.64-0.69,1.3-1.29,0.66-1.98
		c-0.58-0.63-1.14-1.2-2.04-1.87c-2.88-2.13-5.49-3.8-5.05-7.46c3.28,4.84,5.73,2.28,10.3,1.54c0,0,0.01,0,0.01,0
		c0.61-0.1,1-0.67,0.97-1.29c-0.2-5-7.1-7.03-3.54-16.45c1.46,6.87,4.08,5.17,8.52,6.46c0.96,0.28,1.97,0.67,2.93,1.24
		c0.83,0.48,1.86-0.12,1.81-1.07c-0.04-0.85-0.1-1.65-0.37-2.74c-0.84-3.48-1.77-6.44,0.93-8.96c-0.6,5.81,2.93,5.44,6.9,7.8
		c0,0,0.01,0,0.01,0.01c0.53,0.32,1.23,0.15,1.57-0.36c0.29-0.44,0.62-0.89,1-1.35c1.9-2.35,0.99-4.42,0.99-6.8
		c0-1.72,1.52-5.81,5.87-6.73c-3.3,6.2-0.2,6.58,2.38,10.42c0.56,0.84,1.09,1.8,1.46,2.87c0.31,0.89,1.5,1.06,2.07,0.31
		c0.52-0.68,0.98-1.33,1.48-2.34c1.59-3.21,2.78-6.07,6.47-6.27c-4.2,4.07-1.25,6.04,0.27,10.41c0,0,0,0.01,0,0.01
		c0.21,0.58,0.84,0.91,1.44,0.73c0.5-0.15,1.04-0.28,1.63-0.39c2.97-0.58,3.6-2.75,5.13-4.57c1.1-1.31,4.89-3.47,8.82-1.38
		c-6.51,2.63-4.38,4.91-4.88,9.51c-0.11,1-0.32,2.06-0.71,3.1c-0.33,0.9,0.44,1.81,1.37,1.6c0.83-0.19,1.61-0.39,2.64-0.84
		c3.28-1.43,6.03-2.86,8.99-0.64c-5.83,0.42-4.84,3.82-6.48,8.15c0,0,0,0.01,0,0.01c-0.22,0.58,0.14,1.1,0.63,1.49
		c3.31,2.63,13.04,2.63,15.52,0.94c-3.05,6.22-10.93,9.74-11.9,10.29c-0.83,0.47-0.83,1.67,0.02,2.11c0.76,0.39,1.48,0.74,2.56,1.06
		c3.44,1.01,6.46,1.69,7.3,5.29C127.1,100.39,121.45,104.95,121.31,107.35z"/>
	<path class="st14" d="M87.73,68.45c-17.23,0-31.2,13.97-31.2,31.2c0,17.23,13.97,31.2,31.2,31.2s31.2-13.97,31.2-31.2
		C118.94,82.42,104.97,68.45,87.73,68.45z M88.61,73.88c0-1.12,0.97-2.01,2.09-1.89c5.47,0.58,10.46,2.74,14.51,6.02
		c0.87,0.7,0.92,2.02,0.13,2.81L91.52,94.64c-1.07,1.07-2.91,0.31-2.91-1.2V73.88z M66.08,82.18c0.7-0.87,2.02-0.92,2.81-0.13
		l13.83,13.83c1.07,1.07,0.31,2.91-1.2,2.91H61.95c-1.12,0-2.01-0.97-1.89-2.09C60.64,91.23,62.8,86.23,66.08,82.18z M66.08,117.14
		c-3.28-4.06-5.44-9.05-6.01-14.52c-0.12-1.12,0.77-2.09,1.89-2.09h19.55c1.52,0,2.28,1.83,1.2,2.91l-13.83,13.83
		C68.09,118.06,66.78,118.01,66.08,117.14z M86.86,125.44c0,1.12-0.97,2.01-2.09,1.89c-5.47-0.58-10.46-2.74-14.52-6.01
		c-0.87-0.7-0.92-2.02-0.13-2.81l13.83-13.83c1.07-1.07,2.91-0.31,2.91,1.2V125.44z M86.86,93.43c0,1.52-1.83,2.28-2.91,1.2
		L70.12,80.81c-0.79-0.79-0.74-2.1,0.13-2.81c4.06-3.28,9.05-5.44,14.52-6.02c1.12-0.12,2.09,0.77,2.09,1.89V93.43z M87.73,127.49
		C87.73,127.49,87.73,127.49,87.73,127.49L87.73,127.49C87.74,127.49,87.74,127.49,87.73,127.49z M105.21,121.31
		c-4.06,3.28-9.05,5.44-14.51,6.01c-1.12,0.12-2.09-0.77-2.09-1.89v-19.55c0-1.52,1.83-2.28,2.91-1.2l13.83,13.83
		C106.14,119.3,106.08,120.61,105.21,121.31z M109.39,117.14c-0.7,0.87-2.02,0.92-2.81,0.13l-13.83-13.83
		c-1.07-1.07-0.31-2.91,1.2-2.91h19.55c1.12,0,2.01,0.97,1.89,2.09C114.83,108.09,112.67,113.08,109.39,117.14z M113.51,98.78H93.96
		c-1.52,0-2.28-1.83-1.2-2.91l13.83-13.83c0.79-0.79,2.1-0.74,2.81,0.13c3.28,4.06,5.44,9.05,6.01,14.51
		C115.52,97.81,114.63,98.78,113.51,98.78z"/>
	<path class="st14" d="M91.64,41.18l-0.57,4.03c-0.37,1.04-0.37,2.43-0.37,3.91c0,1.67,0,3.39-0.54,4.91
		c-0.07,0.21-0.2,0.51-0.35,0.86c-0.11,0.25-0.29,0.67-0.44,1.06v1.4c0.32,0.61,0.9,1.35,1.34,1.69c0.02-0.02,0.03-0.04,0.04-0.06
		c0.09-0.2,0.16-0.48,0.23-0.78c0.13-0.52,0.27-1.11,0.62-1.7c1.09-1.84,2.72-2.83,4.3-3.79l0.21-0.13c0.14-0.08,0.43-0.24,0.8-0.44
		V22.31l0.15-0.01l6.94,26.38c1.37-0.62,2.51-1.09,2.99-1.18l-1.73,3.49c-0.18,0.23-0.33,0.45-0.48,0.68l1.99,7.55
		c1.92-1.13,4.27-1.79,6.87-1.89c0.25-0.01,0.49-0.01,0.74-0.01c0.51,0,1.02,0.02,1.52,0.06V6.45l-7.53,0.53V39.2l-0.15,0.01
		L99.99,7.57L89.38,8.31v34.96C90.43,42.43,91.27,41.68,91.64,41.18z"/>
	<path class="st14" d="M63.15,62.73c-0.01-0.31-0.01-0.62,0.04-0.95c0.3-2.15,1.89-3.49,3.29-4.67c0.53-0.45,1.05-0.89,1.46-1.34
		c-0.94-0.76-1.47-2.12-1.47-4.27V22.14c0-3.84,1.69-5.42,4.38-5.61c2.69-0.19,4.38,1.15,4.38,5V50.9c0,3.04-1.07,4.65-2.85,5.29
		c0.3,0.99,0.5,2.01,0.6,3.06L73,59.39c0.03,0.33,0.08,0.89,0.19,1.01c0.07,0.08,0.34,0.15,0.59,0.19c0.57-0.65,1.52-2.57,1.6-3.66
		c0.27-3.72,2.23-6.76,5.12-7.95c0.81-0.33,1.95-0.97,3.2-1.73V21.47c0-8.61-4.54-13.21-12.84-12.63
		c-8.3,0.58-12.84,5.82-12.84,14.43v28.29C58.01,56.95,59.79,60.77,63.15,62.73z"/>
</g>
</svg>
