<?xml version="1.0" encoding="utf-8"?>
<!-- Generator: Adobe Illustrator 27.0.0, SVG Export Plug-In . SVG Version: 6.00 Build 0)  -->
<svg version="1.1" id="Layer_1" xmlns="http://www.w3.org/2000/svg" xmlns:xlink="http://www.w3.org/1999/xlink" x="0px" y="0px"
	 viewBox="0 0 189 153.5" style="enable-background:new 0 0 189 153.5;" xml:space="preserve">
<style type="text/css">
	.st0{fill:#FFFFFF;stroke:#000000;stroke-width:0.25;stroke-miterlimit:10;}
	.st1{fill:#554BA0;}
	.st2{fill-rule:evenodd;clip-rule:evenodd;fill:#FFFFFF;}
	.st3{fill:#FFFFFF;}
	.st4{fill:#5E5E5E;}
	.st5{fill:none;}
	.st6{fill:#57758F;}
	.st7{fill:#F8C64F;}
	.st8{fill:#FFEEDE;}
	.st9{fill:#333333;}
	.st10{fill-rule:evenodd;clip-rule:evenodd;fill:#FFEEDE;}
	.st11{fill:#FFC550;}
	.st12{fill:#FF9522;}
	.st13{opacity:0.41;}
	.st14{clip-path:url(#SVGID_00000019673694378118864290000008588785963692557968_);}
	.st15{clip-path:url(#SVGID_00000130644743975170448590000014341373626543476098_);}
	.st16{opacity:0.73;}
	.st17{opacity:0.75;}
	.st18{fill:#FFFFFF;stroke:#000000;stroke-miterlimit:10;}
	.st19{fill:url(#SVGID_00000018956979242264573040000006008095504026325178_);}
	.st20{fill:url(#SVGID_00000081617346733868364030000011859691862881460380_);}
	.st21{fill:url(#SVGID_00000131369807064422421880000013080560927155703219_);}
	.st22{opacity:0.3;}
	.st23{opacity:0.51;}
	.st24{fill:none;stroke:#000000;stroke-miterlimit:10;}
	.st25{fill:#F84143;}
	.st26{clip-path:url(#SVGID_00000106846429704565626230000017623398783607324583_);}
	.st27{clip-path:url(#SVGID_00000151511472191089544290000011058614694171857557_);}
	.st28{clip-path:url(#SVGID_00000151511472191089544290000011058614694171857557_);fill:#FFEEDE;}
	.st29{clip-path:url(#SVGID_00000151511472191089544290000011058614694171857557_);fill:#F84143;}
	.st30{fill:url(#SVGID_00000062190631054349531000000004206225882787937946_);}
	.st31{fill:url(#SVGID_00000088105728517033672810000017781408105476236192_);}
	.st32{fill:url(#SVGID_00000057125947809801183940000008935410609342760873_);}
	.st33{fill-rule:evenodd;clip-rule:evenodd;fill:#F84143;}
	.st34{fill-rule:evenodd;clip-rule:evenodd;fill:#231F20;}
	.st35{fill:#040213;}
	.st36{fill-rule:evenodd;clip-rule:evenodd;}
	.st37{clip-path:url(#SVGID_00000008836387133993227450000011948044790364009354_);}
	.st38{clip-path:url(#SVGID_00000085948413484348571030000015529587600681520537_);}
	.st39{clip-path:url(#SVGID_00000085948413484348571030000015529587600681520537_);fill:#FFEEDE;}
	.st40{clip-path:url(#SVGID_00000085948413484348571030000015529587600681520537_);fill:#F84143;}
	.st41{fill-rule:evenodd;clip-rule:evenodd;fill:#554BA0;}
	.st42{fill:#FFFEFF;}
	.st43{fill:#FF434D;}
	.st44{fill:#8FBD6D;}
	.st45{fill:#5D8AD1;}
	.st46{clip-path:url(#SVGID_00000049903574943007405800000008995916488740811403_);}
	.st47{opacity:0.73;clip-path:url(#SVGID_00000136389669930435005150000017097281958647084428_);}
	.st48{opacity:0.45;clip-path:url(#SVGID_00000136389669930435005150000017097281958647084428_);}
	.st49{clip-path:url(#SVGID_00000136389669930435005150000017097281958647084428_);fill:#FFEEDE;}
	.st50{clip-path:url(#SVGID_00000136389669930435005150000017097281958647084428_);fill:#F84143;}
	.st51{fill-rule:evenodd;clip-rule:evenodd;fill:#FF9522;}
	.st52{fill-rule:evenodd;clip-rule:evenodd;fill:#333333;}
	.st53{opacity:0.38;}
	.st54{clip-path:url(#SVGID_00000111879170896077282250000016224664302012035739_);}
	.st55{opacity:0.73;clip-path:url(#SVGID_00000165923936398958403190000012866426262699911065_);}
	.st56{opacity:0.45;clip-path:url(#SVGID_00000165923936398958403190000012866426262699911065_);}
	.st57{clip-path:url(#SVGID_00000165923936398958403190000012866426262699911065_);fill:#FFEEDE;}
	.st58{clip-path:url(#SVGID_00000165923936398958403190000012866426262699911065_);fill:#F84143;}
	.st59{fill-rule:evenodd;clip-rule:evenodd;fill:#FFC550;}
	.st60{opacity:0.19;}
	.st61{clip-path:url(#SVGID_00000180328388080346519840000003904623408084649131_);}
	.st62{clip-path:url(#SVGID_00000079488214256713631810000011945903052512567430_);}
	.st63{clip-path:url(#SVGID_00000079488214256713631810000011945903052512567430_);fill:#FFEEDE;}
	.st64{clip-path:url(#SVGID_00000079488214256713631810000011945903052512567430_);fill:#F84143;}
	.st65{clip-path:url(#SVGID_00000171001299159022441630000004536541807438829480_);}
	.st66{opacity:0.73;clip-path:url(#SVGID_00000012461247656574091710000017749948842340476288_);}
	.st67{opacity:0.45;clip-path:url(#SVGID_00000012461247656574091710000017749948842340476288_);}
	.st68{clip-path:url(#SVGID_00000012461247656574091710000017749948842340476288_);fill:#FFEEDE;}
	.st69{clip-path:url(#SVGID_00000012461247656574091710000017749948842340476288_);fill:#F84143;}
	.st70{fill:#5B5B5B;}
	.st71{clip-path:url(#SVGID_00000112628753307862103180000005466731229378997901_);}
	.st72{opacity:0.73;clip-path:url(#SVGID_00000071548777666387317280000002411001454507877504_);}
	.st73{opacity:0.45;clip-path:url(#SVGID_00000071548777666387317280000002411001454507877504_);}
	.st74{clip-path:url(#SVGID_00000071548777666387317280000002411001454507877504_);fill:#FFEEDE;}
	.st75{clip-path:url(#SVGID_00000071548777666387317280000002411001454507877504_);fill:#F84143;}
	.st76{clip-path:url(#SVGID_00000048493851719994903990000017506746815166672318_);}
	.st77{opacity:0.73;clip-path:url(#SVGID_00000011017098822266293630000012543798988213080207_);}
	.st78{opacity:0.45;clip-path:url(#SVGID_00000011017098822266293630000012543798988213080207_);}
	.st79{clip-path:url(#SVGID_00000011017098822266293630000012543798988213080207_);fill:#FFEEDE;}
	.st80{clip-path:url(#SVGID_00000011017098822266293630000012543798988213080207_);fill:#F84143;}
	.st81{clip-path:url(#SVGID_00000083067071185445121190000002817402732391151024_);}
	.st82{opacity:0.73;clip-path:url(#SVGID_00000158731502854316883840000011886746939838517646_);}
	.st83{opacity:0.45;clip-path:url(#SVGID_00000158731502854316883840000011886746939838517646_);}
	.st84{clip-path:url(#SVGID_00000158731502854316883840000011886746939838517646_);fill:#FFEEDE;}
	.st85{clip-path:url(#SVGID_00000158731502854316883840000011886746939838517646_);fill:#F84143;}
	.st86{fill-rule:evenodd;clip-rule:evenodd;fill:#5D8AD1;}
	.st87{clip-path:url(#SVGID_00000003798143035693954320000003188632246551652536_);}
	.st88{opacity:0.73;clip-path:url(#SVGID_00000130647227274324069820000013103900929025854118_);}
	.st89{opacity:0.45;clip-path:url(#SVGID_00000130647227274324069820000013103900929025854118_);}
	.st90{clip-path:url(#SVGID_00000130647227274324069820000013103900929025854118_);fill:#FFEEDE;}
	.st91{clip-path:url(#SVGID_00000130647227274324069820000013103900929025854118_);fill:#F84143;}
	.st92{clip-path:url(#SVGID_00000003071959174949493950000017029292363661864099_);}
	.st93{opacity:0.73;clip-path:url(#SVGID_00000088105298894980680840000014203564569081260678_);}
	.st94{opacity:0.45;clip-path:url(#SVGID_00000088105298894980680840000014203564569081260678_);}
	.st95{clip-path:url(#SVGID_00000088105298894980680840000014203564569081260678_);fill:#FFEEDE;}
	.st96{clip-path:url(#SVGID_00000088105298894980680840000014203564569081260678_);fill:#F84143;}
	.st97{clip-path:url(#SVGID_00000064335817057900843980000017080959195854972290_);}
	.st98{opacity:0.73;clip-path:url(#SVGID_00000094619212483901590520000012977335153176616632_);}
	.st99{opacity:0.45;clip-path:url(#SVGID_00000094619212483901590520000012977335153176616632_);}
	.st100{clip-path:url(#SVGID_00000094619212483901590520000012977335153176616632_);fill:#FFEEDE;}
	.st101{clip-path:url(#SVGID_00000094619212483901590520000012977335153176616632_);fill:#F84143;}
	.st102{fill-rule:evenodd;clip-rule:evenodd;fill:#8FBD6D;}
	.st103{clip-path:url(#SVGID_00000000199363543906644340000009772255028798178967_);}
	.st104{opacity:0.73;clip-path:url(#SVGID_00000103983369241838967340000012364587823907068570_);}
	.st105{opacity:0.45;clip-path:url(#SVGID_00000103983369241838967340000012364587823907068570_);}
	.st106{clip-path:url(#SVGID_00000103983369241838967340000012364587823907068570_);fill:#FFEEDE;}
	.st107{clip-path:url(#SVGID_00000103983369241838967340000012364587823907068570_);fill:#F84143;}
	.st108{fill-rule:evenodd;clip-rule:evenodd;fill:#5B5B5B;}
</style>
<g>
	<path class="st3" d="M25.7,49.84v-2.95l7.67-0.54v3.54c0,3.69,1.62,4.9,4.2,4.72c2.58-0.18,4.2-1.62,4.2-5.45
		c0-4.28-1.62-6.89-6.93-11.16c-6.78-5.5-8.99-9.54-8.99-15.44c0-8.11,4.2-13.12,12.09-13.67s11.79,3.89,11.79,12.15v2.14
		l-7.67,0.54v-2.65c0-3.69-1.47-4.98-4.05-4.8c-2.58,0.18-4.05,1.68-4.05,5.22c0,3.76,1.7,6.37,7,10.64
		c6.78,5.5,8.92,9.48,8.92,15.89c0,8.4-4.28,13.42-12.24,13.98C29.68,62.53,25.7,58.09,25.7,49.84z"/>
	<path class="st3" d="M80.47,46.01V18.88c0-8.26,4.35-13.28,12.31-13.83c7.96-0.56,12.31,3.86,12.31,12.11v27.13
		c0,8.26-4.35,13.28-12.31,13.83C84.82,58.68,80.47,54.26,80.47,46.01z M96.98,45.37V17.21c0-3.69-1.62-4.97-4.2-4.79
		c-2.58,0.18-4.2,1.69-4.2,5.38v28.16c0,3.69,1.62,4.97,4.2,4.79C95.36,50.57,96.98,49.05,96.98,45.37z"/>
	<path class="st3" d="M146.52,9.4l-8.48,0.59V2.62l25.06-1.75v7.37l-8.48,0.59v44.23l-8.11,0.57V9.4z"/>
	<path class="st3" d="M60.86,56.64c2.84-0.85,5.51-1.28,8.11-1.35V14.82l8.48-0.59V6.85L52.38,8.61v7.37l8.48-0.59V56.64z"/>
	<path class="st2" d="M19.12,93.72c-1.71,0.47-4.55-0.98-0.72,6.48c4.01,7.82,4.4,16.79,3.95,25.38c-0.28,5.41-1.35,6.06-2.68,7.32
		c0,0-2.34,1.38-2.17,4.42c0.17,3.04,4.86,12.51,6.49,13.04c1.63,0.53,16.22-0.03,16.22-0.03s-2.39-4.13-4.37-5.15
		c-1.98-1.02-2.79-0.19-3.05-2.14c-0.26-1.95,2.19-2.8,3.73-3.43c1.53-0.63,2.57-1.66,2.57-1.66c1.03-1.17,1.15-4.35,2-4.6
		c0.84-0.25,0.39,2.25,1.02,4.39c0,0,1.82,6.85,4.01,9.22c2.19,2.36,3.03,2.75,3.03,2.75l14.03,0.34c0,0,3.54-0.52,2.32-2.86
		c-1.22-2.34-5.44-3.84-5.81-6.03c-0.37-2.2,1.1-2.66,1.97-4.59c0.2-0.37,0.17-0.13,0.63-1.33c0.46-1.19,0.56-2.9,0.41-4.94
		c-0.15-2.04,1.04-1.75,1.04-1.75s4.22,0.98,8.81-0.84c4.59-1.82,10.38-2.92,11.68,2.12c1.29,5.03,2.19,11.92,6.49,16.03
		c2.41,2.31,5.65,3.61,7.83,4.11l0,0c0,0,0.76,0.44,5.38,0.37c4.62-0.07,7.27-0.11,7.25-0.95v0c0.16-0.17,0.17-0.44-0.02-0.85
		c-0.48-1.01-1.37-1.15-2.86-2.52c-6.02-5.55-4.49,0.55-4.72-9.98c-0.15-7,4.18-10.97,7.24-8.77c3.06,2.2,14.19,11,20.56,16.73
		c3.26,2.93,5.49,4.88,6.75,5.85l0,0c0,0,0.14,0.16,0.48,0.35c0.46,0.32,0.7,0.43,0.74,0.31c0.61,0.19,1.48,0.32,2.68,0.23
		c2.92-0.23,13.92-0.39,15.62-0.35c1.7,0.04,3.7,0.21,3.25-1.14c-0.45-1.35-2.45-4.07-5.89-5c-3.44-0.93-7.11-5.56-7.11-5.56l0,0
		c-0.11-0.2-0.26-0.43-0.44-0.7c-2.22-3.18-6.73-7.29-7.76-10.28c-4.16-12.05-0.25-23.18,7.94-27.83c4.02-2.28,6-1.93,11.53-2.05
		c5.38-0.12,9.61,0.16,11.09-1.17c1.48-1.32,6.11-1.21,8.89-2.35c2.78-1.14,2.09-2.95,2.73-3.4c0.64-0.44,1.93-0.26,2.76-1.68
		c0.83-1.42-0.05-2.48,0.36-3.35c0.41-0.87,2.64-2.54,1.21-4.01c-1.43-1.48-8.65-1.54-10.35-5.27c-1.7-3.73-1.29-4.82-4.98-6.14
		c-3.69-1.32-5.57-3.33-7.54-5.01c-1.98-1.68-2.61-1.13-3.64-4.01c-1.03-2.89-1.5-4.71-2.66-3.28c-1.15,1.43-2.45,6.19-4.08,5.37
		c-1.63-0.83-2.3-1.67-3.24-0.58c-0.95,1.1-0.39,1.62-2.68,0.7c-2.28-0.92,0.31-0.76-4.97-0.86c-5.28-0.1-18.5-8.54-24.16-6.37
		c-5.66,2.17-23.17,9.12-29.78,7.65c-6.6-1.47-12.69-8.77-26.7-4.48c-14.02,4.29-25.08,10.56-31.42,16.52
		c-6.33,5.95-8.43,8.37-9.24,11.19C19.99,90.11,19.12,93.72,19.12,93.72L19.12,93.72z M169,74.75c0,0,2.46-0.69,3.63,0.21
		c1.17,0.9,1.82,1.71,0.56,1.94C171.93,77.13,169.1,78.34,169,74.75L169,74.75z"/>
	<polygon class="st2" points="93.63,148.93 140.27,149.66 186.92,150.39 140.27,151.12 93.63,151.85 46.98,151.12 0.33,150.39 
		46.98,149.66 93.63,148.93 	"/>
	<path class="st3" d="M114.72,54.44c0.44-0.17,0.85-0.33,1.22-0.47l0.91-0.35c0.96-0.37,2.07-0.56,3.28-0.56
		c2.33,0,4.97,0.68,7.71,1.63c4.35-2.08,6.6-6.38,6.6-12.46V2.87l-7.81,0.55v39.95c0,3.69-1.55,5.12-4.13,5.3
		c-2.58,0.18-4.13-1.04-4.13-4.72V3.99l-8.11,0.57v39.36C110.25,48.92,111.77,52.5,114.72,54.44z"/>
</g>
</svg>
