<?xml version="1.0" encoding="utf-8"?>
<!-- Generator: Adobe Illustrator 27.0.0, SVG Export Plug-In . SVG Version: 6.00 Build 0)  -->
<svg version="1.1" id="Layer_1" xmlns="http://www.w3.org/2000/svg" xmlns:xlink="http://www.w3.org/1999/xlink" x="0px" y="0px"
	 viewBox="0 0 207 164" style="enable-background:new 0 0 207 164;" xml:space="preserve">
<style type="text/css">
	.st0{fill:#FFEEDE;}
	.st1{fill:#FFFFFF;stroke:#000000;stroke-width:0.25;stroke-miterlimit:10;}
	.st2{fill:#554BA0;}
	.st3{opacity:0.41;}
	.st4{clip-path:url(#SVGID_00000011027634626235525720000004762804112979917478_);}
	.st5{clip-path:url(#SVGID_00000124157288787493265830000001414317908276499596_);}
	.st6{opacity:0.73;}
	.st7{clip-path:url(#SVGID_00000124157288787493265830000001414317908276499596_);fill:#FFEEDE;}
	.st8{clip-path:url(#SVGID_00000124157288787493265830000001414317908276499596_);fill:#F84143;}
	.st9{fill-rule:evenodd;clip-rule:evenodd;fill:#554BA0;}
	.st10{fill-rule:evenodd;clip-rule:evenodd;fill:#231F20;}
	.st11{fill:none;}
	.st12{fill:#F84143;}
	.st13{fill-rule:evenodd;clip-rule:evenodd;fill:#FFFFFF;}
	.st14{fill:#FFFFFF;}
	.st15{fill:#5E5E5E;}
	.st16{fill:#F2722C;}
	.st17{fill:#F7951F;}
	.st18{fill:#8FBD6D;}
	.st19{fill:#43A98A;}
	.st20{fill:#57758F;}
	.st21{fill:#F8C64F;}
	.st22{fill:#040213;}
	.st23{fill-rule:evenodd;clip-rule:evenodd;fill:#F0B505;}
	.st24{fill-rule:evenodd;clip-rule:evenodd;}
	.st25{fill:#F0B505;}
	.st26{fill-rule:evenodd;clip-rule:evenodd;fill:#FFEEDE;}
	.st27{opacity:0.51;}
	.st28{clip-path:url(#SVGID_00000149356789944433954870000001479171700356646847_);}
	.st29{clip-path:url(#SVGID_00000077290369544100200710000016144546135138376112_);}
	.st30{clip-path:url(#SVGID_00000077290369544100200710000016144546135138376112_);fill:#FFEEDE;}
	.st31{clip-path:url(#SVGID_00000077290369544100200710000016144546135138376112_);fill:#F84143;}
	.st32{opacity:0.75;}
	.st33{fill:url(#SVGID_00000153683930108906426130000005970448603850624440_);}
	.st34{fill:url(#SVGID_00000032634948655165107880000001002928101879147909_);}
	.st35{fill:url(#SVGID_00000119114346063062884600000009307909427854796982_);}
	.st36{fill:url(#SVGID_00000094595600440595031630000002508603329791906201_);}
	.st37{fill:url(#SVGID_00000067929899647254488780000005480095189830359969_);}
	.st38{fill:url(#SVGID_00000139268468709989905010000003620279148478678914_);}
	.st39{fill-rule:evenodd;clip-rule:evenodd;fill:#F84143;}
	.st40{opacity:0.3;}
	.st41{fill:#FFFEFF;}
</style>
<path class="st14" d="M3.56,5.25l8.61-0.6v54.81l-8.61,0.6V5.25z"/>
<path class="st14" d="M18.59,4.2l12.68-0.89c8.61-0.6,12.84,3.88,12.84,12.65v5.4c0,8.77-4.23,13.84-12.84,14.44L27.2,36.1v22.32
	l-8.61,0.6V4.2z M31.28,27.98c2.74-0.19,4.23-1.55,4.23-5.46v-6.5c0-3.92-1.49-5.06-4.23-4.87l-4.07,0.29v16.84L31.28,27.98z"/>
<g>
	<g>
		<path class="st14" d="M140.17,108.16c0.28,1.83,0.6,3.65,0.83,5.48c0.64,5.04,0.8,10.1,0.62,15.17c-0.08,2.19-0.17,4.36,0.11,6.54
			c0.41,3.22,1.6,6.16,3.21,8.95c1.35,2.33,2.72,4.66,3.92,7.07c1.19,2.39,1.67,5,1.87,7.66c0.03,0.38-0.08,0.59-0.42,0.78
			c-4.32,2.49-8.97,3.34-13.89,2.92c-2.78-0.23-5.47-0.88-8.11-1.73c-0.37-0.12-0.56-0.31-0.68-0.69c-0.9-2.92-0.96-5.78-0.05-8.76
			c0.92-3.01,0.41-6-1.36-8.64c-1.11-1.66-2.4-3.2-3.63-4.77c-0.25-0.31-0.3-0.56-0.14-0.93c2.02-4.86,3.04-9.95,3.28-15.2
			c0.02-0.51,0.17-0.8,0.66-1.03c3.03-1.39,5.87-3.09,8.34-5.38c2.16-2,3.84-4.33,5.07-7c0.07-0.15,0.14-0.29,0.21-0.44
			C140.07,108.16,140.12,108.16,140.17,108.16z"/>
		<path class="st14" d="M69.55,125.52c4.81,0.68,9.56,1.34,14.45,2.03c-0.11,0.88-0.13,1.87-0.38,2.81
			c-0.49,1.81-1.08,3.61-1.69,5.39c-0.74,2.14-1.35,4.29-1.4,6.57c-0.06,2.31,0.7,4.37,1.8,6.36c0.77,1.39,1.54,2.79,2.18,4.24
			c0.88,2.02,0.98,4.18,0.83,6.36c-0.02,0.31-0.15,0.43-0.44,0.52c-5.16,1.49-10.42,2.03-15.77,1.64c-2.27-0.17-4.52-0.56-6.78-0.82
			c-0.5-0.06-0.7-0.28-0.83-0.76c-0.86-3.12-0.65-6.23,0.06-9.34c0.68-2.97,1.17-5.96,0.94-9.02c-0.06-0.77-0.17-1.53-0.23-2.29
			c-0.01-0.19,0.05-0.45,0.18-0.57c3.59-3.5,5.7-7.8,6.94-12.59c0.04-0.16,0.08-0.32,0.13-0.48
			C69.54,125.53,69.57,125.5,69.55,125.52z"/>
		<path class="st14" d="M33.45,143.28c-0.71-1.33-0.98-2.78-1.03-4.27c-0.07-2.21,0.27-4.33,1.43-6.26c0.63-1.04,1.47-1.85,2.6-2.31
			c0.34-0.14,0.43-0.34,0.43-0.68c0.07-7.76,0.76-15.48,1.79-23.16c0.91-6.74,2.09-13.43,3.82-20.01c0.96-3.65,2.05-7.26,3.76-10.64
			c0.54-1.06,1.21-2.05,1.82-3.07c0.05,0.03,0.11,0.06,0.16,0.09c-0.03,0.1-0.05,0.2-0.09,0.29c-1.99,4.52-3.1,9.26-3.74,14.14
			c-0.77,5.85-0.78,11.73-0.63,17.62c0.1,3.77,0.08,7.54,0.13,11.31c0,0.34-0.14,0.51-0.39,0.74c-0.53,0.48-1.06,1-1.43,1.6
			c-1.45,2.35-2.26,4.98-3.14,7.58c-0.41,1.21-0.79,2.42-1.15,3.65c-0.05,0.16,0.04,0.41,0.16,0.55c1.16,1.42,2.32,2.89,1.84,4.87
			c-0.21,0.85-0.73,1.67-1.29,2.36c-0.83,1.01-1.84,1.87-2.72,2.84C35,141.38,34.26,142.32,33.45,143.28z"/>
		<g>
			<g id="XMLID_00000023989877166024577360000009893314097612073396_">
				<g>
					<path class="st14" d="M142.16,92.11c-0.12,0.81-0.22,1.61-0.35,2.41c-0.53,3.45-1.17,6.87-2.4,10.15
						c-1.87,5.02-5.12,8.92-9.62,11.76c-1.62,1.03-3.35,1.88-5.05,2.77c-0.43,0.22-0.6,0.45-0.62,0.94
						c-0.19,4.48-0.91,8.87-2.37,13.11c-0.63,1.83-1.35,3.65-2.22,5.38c-0.67,1.32-0.79,2.63-0.63,4.03
						c0.22,1.97,0.94,3.8,1.62,5.64c0.63,1.72,1.23,3.44,1.43,5.28c0.15,1.34,0.08,2.67-0.26,3.97c-0.07,0.28-0.27,0.6-0.5,0.77
						c-2.44,1.77-5.21,2.68-8.18,2.93c-6.04,0.52-11.68-0.84-16.95-3.82c-0.44-0.25-0.59-0.53-0.55-1.04
						c0.19-3.07,1.32-5.77,3.13-8.21c1.12-1.51,2.29-2.99,3.47-4.46c3.54-4.39,4.54-9.37,3.43-14.83c-0.22-1.1-0.53-2.18-0.77-3.28
						c-0.09-0.39-0.25-0.5-0.67-0.45c-4.66,0.53-9.34,0.71-14.03,0.59c-6.18-0.16-12.31-0.83-18.4-1.88
						c-1.01-0.17-2.02-0.35-2.96-0.52c-0.66,1.9-1.21,3.75-1.94,5.52c-2.02,4.87-5.28,8.71-9.75,11.56
						c-1.51,0.96-2.43,2.54-2.95,4.24c-0.36,1.19-0.56,2.45-0.61,3.69c-0.16,3.76-1.02,7.27-3.32,10.32
						c-0.59,0.79-1.28,1.51-1.96,2.22c-0.16,0.16-0.46,0.28-0.69,0.27c-6.61-0.42-12.1-3.07-16.3-8.26
						c-0.14-0.17-0.2-0.49-0.16-0.72c0.2-1.15,0.72-2.19,1.44-3.07c1.88-2.3,3.84-4.53,5.73-6.82c1.49-1.81,2.95-3.64,4.34-5.51
						c0.97-1.31,1.16-2.93,1.44-4.47c0.75-4.08,0.95-8.21,0.94-12.35c-0.02-7.09-0.18-14.17-0.19-21.26
						c-0.01-6.17,0.5-12.29,2.02-18.3c1.65-6.52,4.5-12.4,9.23-17.28c3.58-3.7,7.82-6.48,12.45-8.67c6.74-3.2,13.86-5.23,21.15-6.62
						c4.58-0.87,9.22-1.41,13.83-2.08c2.15-0.31,4.3-0.59,6.45-0.87c0.12-0.02,0.25-0.01,0.45-0.02c-0.38,0.62-0.74,1.18-1.07,1.75
						c-0.31,0.55-0.59,1.11-0.87,1.67c-0.25,0.52-0.44,1.04-1.02,1.38c-0.61,0.36-0.72,1.16-0.51,1.91c0.08,0.27,0.1,0.6,0.03,0.87
						c-0.54,2.19-0.83,4.41-0.86,6.67c0,0.24-0.13,0.55-0.31,0.72c-0.89,0.83-0.86,2.12,0.14,2.8c0.31,0.21,0.4,0.44,0.45,0.78
						c0.12,0.89,0.26,1.77,0.47,2.64c0.1,0.43,0.02,0.71-0.26,1.03c-3.99,4.59-8.96,7.46-14.98,8.38
						c-10.61,1.62-20.72-3.52-25.7-13.02c-0.76-1.44-1.3-2.99-1.97-4.55c-0.21,0.13-0.48,0.28-0.74,0.45
						c-1.05,0.72-2.09,1.47-3.14,2.18c-0.27,0.18-0.31,0.36-0.2,0.66c3.12,8.16,8.64,14.08,16.74,17.38
						c11.03,4.5,23.14,2.11,31.82-6.08c0.11-0.1,0.22-0.19,0.38-0.34c0.12,0.26,0.22,0.48,0.32,0.7c1.07,2.35,2.32,4.6,3.93,6.62
						c1.51,1.89,3.41,3.37,5.47,4.63c0.44,0.27,0.57,0.56,0.54,1.05c-0.36,5.4-0.69,10.79-1.04,16.19
						c-0.01,0.22-0.06,0.45-0.12,0.83c-1.75-3.58-4.35-6.07-7.98-7.37c-3.62-1.29-7.2-1.09-10.66,0.58
						c-5.63,2.72-9.09,9.21-7.18,16.24c-5.64,0.27-11.25,0.1-16.88-0.3c3.36-6.41,3.06-12.46-2.25-17.56
						c-4.6-4.41-10.09-4.79-15.89-2.2c0-0.62,0-1.22,0-1.82c-0.02-4.93-0.04-9.87-0.07-14.8c0-0.43,0.11-0.66,0.51-0.88
						c1.91-1.05,3.2-2.61,3.69-4.77c0.17-0.75,0.12-0.84-0.62-0.91c-0.62-0.06-1.26-0.09-1.87-0.03c-0.6,0.06-1.18,0.24-1.85,0.39
						c-0.08-1.66-0.15-3.32-0.23-5.09c-0.18,0.15-0.31,0.22-0.39,0.32c-0.71,0.79-1.69,1.49-2.05,2.42
						c-0.35,0.9-0.09,2.04-0.04,3.08c0.37,7.8,0.54,15.61,0.24,23.42c-0.23,6.07-0.64,12.13-0.98,18.2
						c-0.02,0.33-0.05,0.56,0.4,0.63c7.77,1.2,15.57,2.22,23.43,2.72c5.57,0.35,11.15,0.43,16.73,0.11
						c8.69-0.49,17.2-1.99,25.48-4.71c0.37-0.12,0.49-0.32,0.55-0.68c0.8-5.05,1.36-10.12,1.63-15.22c0.14-2.62,0.23-5.25,0.35-7.92
						c1.38,0.47,2.75,0.93,4.16,1.4c0.6-3.68,1.18-7.28,1.76-10.87c0.05,0.01,0.11,0.02,0.16,0.03c0.4,1.12,0.72,2.27,1.22,3.34
						c0.85,1.87,1.69,3.75,2.74,5.51c2.05,3.43,5.21,5.41,9.05,6.38C141.3,91.89,141.69,91.99,142.16,92.11z M120.19,157.78
						c0.15-0.11,0.34-0.34,0.31-0.46c-0.25-1.05-0.52-2.12-1.26-2.96c-0.5-0.58-1.1-0.65-1.73-0.21c-0.29,0.21-0.59,0.45-0.77,0.75
						c-0.58,0.98-1.12,1.98-1.66,2.98c-0.08,0.15-0.15,0.31-0.19,0.41c-0.38-0.96-0.65-1.95-1.12-2.82
						c-0.94-1.72-2.49-1.99-4.07-0.81c-0.93,0.7-1.61,1.61-2.14,2.64c-0.23,0.45-0.43,0.92-0.67,1.44c-0.1-0.3-0.18-0.54-0.27-0.77
						c-0.45-1.28-0.99-2.51-1.98-3.5c-1.12-1.11-2.43-1.38-3.88-0.84c-1.56,0.58-2.71,1.71-3.82,2.96c0.1,0.09,0.14,0.14,0.19,0.17
						c0.09,0.07,0.19,0.13,0.29,0.19c5,2.84,10.34,4.09,16.08,3.4C115.93,160.06,118.19,159.23,120.19,157.78z M105.23,65.74
						c0-0.97-0.76-1.74-1.73-1.74c-0.97,0-1.75,0.77-1.76,1.73c0,0.95,0.78,1.73,1.75,1.74C104.44,67.48,105.23,66.7,105.23,65.74z
						 M105.1,90.3c2.2-3.38,0.11-9.03-3.83-10.1C99.17,83.46,100.98,88.97,105.1,90.3z M104.49,55.7c0.79-2.86,0.84-5.75,0.17-8.64
						c-0.04-0.19-0.28-0.48-0.4-0.47c-1.11,0.11-2.22,0.28-3.38,0.44c2.34,8.65-3.33,15.47-9.19,17.13
						c-3.22,0.91-6.38,0.83-9.43-0.53c-4.6-2.05-7.26-5.66-8.19-10.63c-1.06,0.42-2.04,0.83-3.03,1.21
						c-0.38,0.15-0.45,0.33-0.35,0.73c1.79,7.75,8.62,13.34,16.55,13.54C95.24,68.67,102.36,63.4,104.49,55.7z M101.15,69.03
						c0.01-0.97-0.74-1.77-1.69-1.8c-0.95-0.02-1.79,0.8-1.79,1.77c0,0.95,0.79,1.72,1.76,1.73
						C100.36,70.73,101.14,69.96,101.15,69.03z M98.2,53.4c0.62,0,1.12-0.49,1.12-1.11c0-0.6-0.48-1.08-1.07-1.1
						c-0.63-0.02-1.13,0.46-1.15,1.08C97.09,52.89,97.58,53.4,98.2,53.4z M98.4,55.81c0.01-0.62-0.48-1.12-1.1-1.13
						c-0.57-0.01-1.09,0.49-1.11,1.07c-0.02,0.61,0.47,1.15,1.08,1.16C97.88,56.93,98.39,56.43,98.4,55.81z M98.13,50.29
						c0.61,0,1.12-0.51,1.12-1.13c0-0.61-0.52-1.12-1.13-1.11c-0.62,0.01-1.12,0.52-1.12,1.13C97,49.8,97.5,50.29,98.13,50.29z
						 M95.05,60c0.59-0.01,1.07-0.52,1.07-1.12c-0.01-0.64-0.51-1.13-1.13-1.11c-0.61,0.02-1.1,0.56-1.07,1.18
						C93.94,59.53,94.46,60.01,95.05,60z M95.87,71.37c0.01-0.97-0.75-1.75-1.71-1.77c-0.97-0.02-1.74,0.74-1.76,1.72
						c-0.02,0.99,0.71,1.74,1.71,1.76C95.08,73.09,95.86,72.34,95.87,71.37z M87.68,58.43c5.18-0.01,8.76-5.16,6.94-9.99
						c-0.15-0.4-0.32-0.55-0.78-0.48c-4.38,0.65-8.65,1.72-12.92,2.85c-0.54,0.14-0.62,0.39-0.58,0.88
						C80.65,55.51,83.83,58.43,87.68,58.43z M93.92,93.02c3.12-3.18,1.91-9.09-1.37-10.72C89.65,85.07,90.4,91.09,93.92,93.02z
						 M92.98,61.05c0.02-0.61-0.48-1.14-1.09-1.15c-0.61-0.01-1.13,0.49-1.15,1.1c-0.01,0.57,0.48,1.09,1.07,1.12
						C92.42,62.14,92.96,61.66,92.98,61.05z M88.63,74.07c0.94-0.02,1.68-0.79,1.68-1.74c-0.01-0.98-0.76-1.75-1.73-1.75
						c-0.97,0-1.77,0.83-1.75,1.8C86.85,73.33,87.66,74.09,88.63,74.07z M87.8,62.77c0.62-0.01,1.11-0.53,1.1-1.14
						c-0.01-0.61-0.54-1.09-1.17-1.07c-0.63,0.02-1.12,0.53-1.1,1.14C86.65,62.29,87.19,62.78,87.8,62.77z M83.55,61.89
						c0.6-0.01,1.1-0.54,1.1-1.15c0-0.62-0.52-1.11-1.14-1.09c-0.62,0.01-1.12,0.53-1.1,1.14C82.43,61.41,82.94,61.9,83.55,61.89z
						 M82.67,73.42c0.97,0,1.71-0.78,1.71-1.77c0-0.94-0.77-1.7-1.72-1.7c-0.99-0.01-1.76,0.74-1.77,1.71
						C80.88,72.65,81.66,73.42,82.67,73.42z M80.34,92.7c3.6-1.87,4.64-7.6,1.9-10.61C78.3,84.12,77.68,90.1,80.34,92.7z
						 M80.02,59.43c0.59,0.01,1.11-0.52,1.11-1.13c0-0.61-0.53-1.12-1.13-1.11c-0.58,0.01-1.07,0.51-1.08,1.1
						C78.91,58.91,79.4,59.42,80.02,59.43z M79.08,69.01c0-0.98-0.81-1.79-1.77-1.78c-0.95,0.01-1.71,0.81-1.7,1.78
						c0.01,0.97,0.78,1.72,1.76,1.7C78.31,70.7,79.08,69.93,79.08,69.01z M78.94,54.77c0.03-0.57-0.45-1.1-1.03-1.15
						c-0.61-0.05-1.15,0.42-1.19,1.05c-0.04,0.61,0.43,1.14,1.06,1.17C78.38,55.87,78.91,55.38,78.94,54.77z M74.27,81.59
						c0.01-1-0.16-1.96-0.63-2.88c-0.19,0.05-0.33,0.08-0.48,0.13c-3.56,1.18-5.69,5.54-4.44,9.09c0.25,0.71,0.25,0.71,0.97,0.43
						C72.36,87.32,74.25,84.54,74.27,81.59z M74.1,65.15c0-0.96-0.78-1.73-1.75-1.72c-0.94,0.01-1.72,0.77-1.74,1.69
						c-0.02,0.96,0.8,1.79,1.77,1.79C73.33,66.91,74.1,66.12,74.1,65.15z M70.63,60.58c0.01-0.99-0.78-1.8-1.75-1.8
						c-0.94,0-1.71,0.76-1.72,1.7c-0.01,0.99,0.71,1.77,1.68,1.79C69.8,62.31,70.62,61.53,70.63,60.58z M58.93,82.64
						c3.8,0.21,7.62-3.97,7.12-7.75c-0.05-0.39-0.25-0.4-0.54-0.39c-2.42,0.1-4.21,1.29-5.58,3.2c-1.03,1.45-1.47,3.07-1.23,4.87
						C58.83,82.61,58.88,82.64,58.93,82.64z M47.67,160.1c1.09-1.15,0.6-2.94-0.92-3.38c-0.98-0.29-1.9-0.05-2.73,0.48
						c-0.5,0.32-0.95,0.74-1.41,1.11c0.08-0.6,0.21-1.21,0.22-1.83c0.03-1.48-0.87-2.29-2.35-2.2c-0.26,0.02-0.55,0.03-0.78,0.13
						c-0.88,0.37-1.75,0.78-2.52,1.12c0.16-0.42,0.42-0.94,0.56-1.49c0.24-0.93,0.05-1.78-0.73-2.43c-1.3-1.08-3.65-0.82-4.7,0.5
						c-0.21,0.26-0.2,0.43,0.01,0.68c3.84,4.66,8.82,7.05,14.8,7.45C47.3,160.27,47.56,160.22,47.67,160.1z"/>
				</g>
			</g>
			<path class="st14" d="M138.91,61.19c-0.58-1.25-1.19-2.5-1.76-3.76c-0.96-2.16-1.75-4.38-2.01-6.76
				c-0.29-2.61,0.15-5.08,1.3-7.44c0.09-0.19,0.1-0.43,0.14-0.65c-0.05-0.03-0.1-0.06-0.16-0.08c0.68-0.44,1.36-0.9,2.05-1.32
				c2.75-1.68,5.45-3.42,8.26-4.99c3.36-1.87,6.91-3.28,10.76-3.82c5.6-0.78,10.23,1.04,13.99,5.21c2.36,2.61,4.2,5.58,5.63,8.76
				c1.84,4.09,3.5,8.27,5.24,12.41c0.08,0.19,0.14,0.4,0.26,0.57c2.08,3.02,3.32,6.41,4.29,9.91c1.67,6,2.51,12.15,3.03,18.34
				c0.25,3.05,0.39,6.12,0.57,9.18c0,0.07,0.02,0.15,0.06,0.38c2.57,0.14,5.17,0.31,7.77,0.41c2.58,0.09,5.16,0.11,7.75,0.21
				c-5.03,1.6-10.07,3.17-15.44,3.45c0,0.4,0,0.73,0,1.07c0.09,6.5-0.06,12.99-0.48,19.47c-0.46,7.22-1.11,14.43-2.5,21.55
				c-0.61,3.13-1.38,6.21-3.06,8.98c-1.57,2.58-3.4,4.93-6.01,6.54c-0.75,0.46-1.61,0.79-2.46,1c-1.42,0.35-2.67-0.1-3.7-1.13
				c-1.2-1.2-1.79-2.72-2.26-4.3c-0.15-0.49,0.26-1.23,0.88-1.53c0.5-0.24,1.06-0.36,1.59-0.54c-1.23-2.29-1.33-2.79-0.72-3.92
				c0.28,0.26,0.54,0.52,0.82,0.76c0.9,0.79,1.88,1.43,3.14,1.45c0.45,0.01,0.72-0.13,0.91-0.57c1.22-2.76,1.73-5.67,1.95-8.65
				c0.43-5.89-0.16-11.72-1.06-17.53c-1-6.5-2.3-12.93-4.09-19.26c-0.66-2.32-1.47-4.6-2.2-6.91c-0.12-0.37-0.32-0.6-0.7-0.74
				c-0.96-0.36-1.9-0.76-2.94-1.19c0.19,4.8-3.04,7.03-6.67,9.11c0.08-0.7,0.16-1.29,0.22-1.88c0.16-1.67,0-3.3-0.49-4.91
				c-0.86-2.82-1.53-5.68-4.42-6.1c-2.5-0.37-5.03-0.57-7.54-0.94c-2.29-0.34-4.59-0.71-6.84-1.26c-4.04-0.98-6.96-3.48-8.96-7.09
				c-1.5-2.71-2.68-5.55-3.34-8.59c-0.06-0.3-0.06-0.65,0.03-0.94c1.57-5.17,3.54-7.92,7.91-10.99c0.4-0.28,0.8-0.58,1.2-0.87
				C138.87,61.28,138.88,61.24,138.91,61.19z M201.2,98.5c-0.01-0.05-0.01-0.09-0.02-0.14c-0.22-0.01-0.44-0.02-0.66-0.03
				c-3.78-0.24-7.57-0.37-11.34-0.75c-4.02-0.4-7.89-1.49-11.49-3.39c-3.85-2.03-7.2-4.76-10.51-7.55c-1.51-1.28-3-2.58-4.54-3.83
				c-1.21-0.99-2.58-1.5-4.14-0.9c-2.16,0.83-3.12,3.56-1.95,5.7c0.36,0.65,0.89,1.23,1.44,1.75c1.52,1.45,3.18,2.77,5.1,3.63
				c3.05,1.37,6.18,2.58,9.29,3.83c3.43,1.38,6.92,2.57,10.58,3.21c4.98,0.87,9.9,0.5,14.79-0.65
				C198.9,99.11,200.05,98.8,201.2,98.5z M154.15,33.92c-0.02-0.02-0.03-0.04-0.05-0.06c-0.2,0.06-0.4,0.11-0.6,0.18
				c-4.23,1.34-8.05,3.5-11.76,5.9c-1.36,0.88-2.65,1.8-3.57,3.2c-2.11,3.21-2.38,6.47-0.48,9.85c0.93,1.66,2.16,3.09,3.55,4.38
				c3.91,3.61,8.38,6.38,13.09,8.8c2.29,1.17,4.63,2.24,6.87,3.5c4.21,2.38,7.35,5.88,9.92,9.92c2.72,4.27,4.95,8.79,6.79,13.5
				c0.07,0.19,0.15,0.45,0.3,0.53c0.69,0.37,1.41,0.69,2.24,1.08c-0.07-0.29-0.1-0.41-0.14-0.53c-1.88-5.69-4.42-11.06-7.69-16.08
				c-2.35-3.61-5.12-6.86-8.78-9.18c-2.26-1.43-4.66-2.65-7.07-3.84c-4.78-2.37-9.34-5.07-13.39-8.56c-1.77-1.52-3.34-3.23-4.32-5.4
				c-0.79-1.76-0.78-3.5,0.09-5.23c0.64-1.28,1.52-2.37,2.52-3.37c2.39-2.42,5.18-4.3,8.08-6.04
				C151.2,35.58,152.68,34.76,154.15,33.92z M183.64,152.33c0.16-0.24,0.25-0.34,0.3-0.45c0.6-1.33,1.29-2.64,1.76-4.02
				c0.92-2.69,1.63-5.46,1.7-8.3c0.2-8.32-0.61-16.58-2-24.78c-0.78-4.6-1.75-9.16-2.99-13.66c-0.05-0.19-0.2-0.45-0.36-0.49
				c-0.52-0.16-1.06-0.24-1.66-0.36C185.14,117.37,185.83,134.67,183.64,152.33z M169.73,62.51c-0.79-1.82-1.93-3.26-3.64-4.18
				c-2.16-1.17-4.48-1.25-6.83-0.88c-1.02,0.16-2.03,0.43-3.08,0.65c0.63,2.93,2.19,4.97,4.89,5.99
				C164.21,65.27,167.06,64.52,169.73,62.51z M159.75,35.16c0-0.84-0.67-1.53-1.5-1.55c-0.84-0.02-1.52,0.65-1.53,1.51
				c-0.01,0.86,0.65,1.55,1.48,1.56C159.02,36.68,159.75,35.97,159.75,35.16z M182.08,86.7c0.01-0.84-0.67-1.54-1.5-1.54
				c-0.83,0.01-1.51,0.69-1.52,1.52c-0.01,0.83,0.68,1.53,1.51,1.54C181.38,88.24,182.07,87.54,182.08,86.7z M146.95,41.43
				c0.01,0.85,0.69,1.54,1.52,1.52c0.83-0.02,1.5-0.71,1.5-1.55c-0.01-0.85-0.68-1.52-1.53-1.51
				C147.59,39.89,146.94,40.57,146.95,41.43z M169.39,67.63c-0.87-0.01-1.54,0.62-1.56,1.47c-0.01,0.83,0.68,1.54,1.5,1.55
				c0.83,0.01,1.54-0.67,1.55-1.5C170.92,68.31,170.26,67.64,169.39,67.63z M144.54,50.91c-0.01-0.84-0.7-1.53-1.53-1.51
				c-0.83,0.02-1.53,0.73-1.51,1.55c0.02,0.82,0.74,1.49,1.57,1.47C143.89,52.4,144.54,51.73,144.54,50.91z M179.08,80.12
				c0-0.85-0.67-1.5-1.53-1.5c-0.86,0.01-1.47,0.62-1.48,1.48c-0.01,0.87,0.64,1.54,1.49,1.54
				C178.4,81.63,179.07,80.96,179.08,80.12z M184.25,93.35c0-0.83-0.69-1.53-1.51-1.54c-0.83-0.01-1.51,0.69-1.5,1.54
				c0,0.82,0.66,1.49,1.47,1.5C183.55,94.87,184.25,94.18,184.25,93.35z M185.29,101.63c-0.82,0.01-1.51,0.71-1.51,1.54
				c0,0.82,0.71,1.5,1.55,1.49c0.81-0.02,1.49-0.71,1.48-1.5C186.8,102.32,186.11,101.63,185.29,101.63z M153.43,39.7
				c0.82,0,1.49-0.66,1.5-1.48c0.01-0.85-0.65-1.53-1.5-1.54c-0.84,0-1.54,0.69-1.54,1.51C151.89,39.02,152.59,39.7,153.43,39.7z
				 M152.9,57.96c-0.85,0-1.53,0.67-1.53,1.51c0,0.85,0.66,1.51,1.52,1.51c0.84,0,1.5-0.68,1.49-1.53
				C154.38,58.62,153.72,57.96,152.9,57.96z M175.43,74.55c-0.01-0.84-0.68-1.51-1.52-1.52c-0.84-0.01-1.49,0.67-1.49,1.53
				c0,0.83,0.65,1.47,1.48,1.48C174.75,76.05,175.43,75.38,175.43,74.55z M145.97,44.6c0-0.84-0.68-1.52-1.52-1.52
				c-0.84,0-1.5,0.68-1.5,1.53c0.01,0.83,0.65,1.47,1.48,1.48C145.28,46.1,145.97,45.43,145.97,44.6z M147.56,53.96
				c-0.84,0-1.52,0.67-1.53,1.51c-0.01,0.83,0.68,1.51,1.52,1.5c0.84-0.01,1.51-0.7,1.5-1.53
				C149.04,54.64,148.36,53.96,147.56,53.96z M186.54,109.45c0.72-0.01,1.31-0.6,1.3-1.31c-0.01-0.72-0.59-1.29-1.32-1.28
				c-0.73,0-1.29,0.57-1.29,1.31C185.23,108.89,185.81,109.46,186.54,109.45z M186.85,114.47c0.66-0.01,1.15-0.53,1.13-1.18
				c-0.02-0.6-0.55-1.12-1.15-1.12c-0.63,0-1.16,0.53-1.16,1.16C185.68,113.99,186.19,114.48,186.85,114.47z M174.4,62.55
				c-0.61,0-1.13,0.52-1.13,1.12c0,0.61,0.53,1.12,1.14,1.11c0.58-0.01,1.09-0.51,1.1-1.09C175.53,63.1,175,62.56,174.4,62.55z
				 M168.83,57.28c0.61-0.01,1.11-0.54,1.08-1.15c-0.03-0.59-0.53-1.06-1.12-1.06c-0.63,0-1.13,0.51-1.11,1.12
				C167.69,56.81,168.21,57.3,168.83,57.28z M157.89,54.61c-0.01-0.62-0.52-1.12-1.13-1.11c-0.61,0.01-1.12,0.54-1.1,1.14
				c0.02,0.61,0.55,1.1,1.17,1.07C157.41,55.7,157.9,55.2,157.89,54.61z M166.15,54.72c-0.01-0.61-0.53-1.11-1.14-1.1
				c-0.61,0.01-1.11,0.55-1.09,1.15c0.02,0.58,0.53,1.06,1.12,1.07C165.65,55.84,166.16,55.33,166.15,54.72z M173.03,59.22
				c-0.01-0.62-0.52-1.13-1.12-1.12c-0.61,0.01-1.1,0.53-1.09,1.15c0.01,0.59,0.51,1.09,1.09,1.09
				C172.52,60.34,173.03,59.83,173.03,59.22z M160.68,53.19c-0.61,0-1.09,0.47-1.1,1.07c-0.01,0.61,0.45,1.1,1.05,1.12
				c0.62,0.01,1.13-0.48,1.14-1.1C161.77,53.7,161.27,53.19,160.68,53.19z M188.4,118.05c0-0.49-0.41-0.91-0.91-0.92
				c-0.5-0.01-0.9,0.4-0.89,0.91c0.01,0.52,0.39,0.89,0.92,0.88C188,118.91,188.4,118.51,188.4,118.05z M187.37,122.8
				c0.04,0.37,0.29,0.62,0.7,0.61c0.41-0.01,0.68-0.28,0.67-0.7c-0.01-0.4-0.25-0.68-0.67-0.71
				C187.69,121.97,187.36,122.34,187.37,122.8z"/>
			<path class="st14" d="M124.76,84.32c-0.98-0.4-1.92-0.73-2.82-1.16c-2.81-1.31-5.3-3.18-7.25-5.76c-1.17-1.56-2.11-3.38-2.95-5.2
				c-2.26-4.89-3.31-10.11-2.96-15.62c0.3-4.72,1.56-9.08,4.32-12.77c3.76-5.01,9.23-6.62,14.77-4.4c1.92,0.77,3.7,1.85,5.37,3.15
				c0.23,0.18,0.33,0.31,0.2,0.65c-1.36,3.37-1.37,6.83-0.33,10.28c0.57,1.89,1.35,3.71,2.04,5.55c0.11,0.3,0.25,0.59,0.38,0.88
				c-0.8,0.69-1.59,1.34-2.34,2.03c-3.72,3.39-5.99,7.77-6.99,12.95c-0.54,2.81-0.88,5.66-1.31,8.5
				C124.85,83.67,124.81,83.92,124.76,84.32z"/>
			<path class="st14" d="M56.55,103.11c0.04-1,0.08-2.39,0.17-3.78c0.02-0.33,0.15-0.73,0.36-0.97c2.28-2.58,5.14-3.59,8.48-2.72
				c3.31,0.85,5.42,3.07,6.11,6.42c0.69,3.35-0.43,6.15-3.09,8.31c-0.22,0.18-0.59,0.3-0.87,0.26c-3.34-0.41-6.68-0.85-10.02-1.3
				c-0.76-0.1-1.45-0.96-1.41-1.72C56.36,106.23,56.45,104.86,56.55,103.11z M58.33,103.67c-0.04,2.82,2.22,5.16,5.04,5.21
				c2.84,0.05,5.22-2.23,5.27-5.06c0.05-2.86-2.25-5.2-5.14-5.24C60.68,98.56,58.37,100.82,58.33,103.67z"/>
			<path class="st14" d="M110.16,109.25c0.43-2.92-0.46-4.93-2.62-6.07c-1.87-0.99-4.21-0.7-5.8,0.73c-1.89,1.7-2.11,3.69-0.75,6.98
				c-1.07,0.12-2.12,0.25-3.17,0.32c-0.14,0.01-0.38-0.26-0.45-0.45c-0.88-2.33-0.76-4.63,0.36-6.85c1.72-3.4,5.72-5.19,9.46-4.27
				c3.76,0.93,6.4,4.29,6.4,8.11c0,0.51-0.15,0.74-0.66,0.85C112.02,108.76,111.13,109.01,110.16,109.25z"/>
			<path class="st14" d="M97.28,100.94c-0.6,0.01-1.09-0.47-1.11-1.07c-0.01-0.62,0.44-1.1,1.05-1.12c0.62-0.02,1.14,0.48,1.15,1.1
				C98.38,100.42,97.87,100.93,97.28,100.94z"/>
			<path class="st14" d="M63.48,91.47c0.6,0.01,1.08,0.5,1.07,1.1c-0.01,0.6-0.5,1.1-1.08,1.1c-0.6,0-1.12-0.53-1.11-1.14
				C62.37,91.95,62.89,91.46,63.48,91.47z"/>
			<path class="st14" d="M93.99,106.65c0.62,0,1.12,0.5,1.12,1.12c-0.01,0.58-0.5,1.08-1.09,1.08c-0.62,0.01-1.12-0.49-1.11-1.12
				C92.91,107.15,93.4,106.65,93.99,106.65z"/>
			<path class="st14" d="M113.07,100.94c-0.58,0-1.09-0.5-1.1-1.08c-0.01-0.61,0.51-1.12,1.12-1.11c0.59,0.01,1.08,0.51,1.07,1.1
				C114.16,100.44,113.65,100.94,113.07,100.94z"/>
			<path class="st14" d="M71.38,94.74c0.62,0.01,1.08,0.47,1.09,1.08c0,0.61-0.52,1.12-1.13,1.1c-0.59-0.02-1.07-0.53-1.06-1.12
				C70.28,95.2,70.77,94.74,71.38,94.74z"/>
			<path class="st14" d="M75.74,103.74c0,0.6-0.49,1.09-1.09,1.09c-0.61,0-1.1-0.48-1.1-1.08c0-0.63,0.49-1.13,1.12-1.12
				C75.26,102.63,75.74,103.13,75.74,103.74z"/>
			<path class="st14" d="M105.19,97.66c-0.6,0.01-1.09-0.48-1.1-1.08c0-0.6,0.48-1.11,1.07-1.12c0.59-0.01,1.09,0.49,1.09,1.09
				C106.27,97.16,105.79,97.66,105.19,97.66z"/>
			<path class="st14" d="M115.3,107.86c-0.06-0.88,0.78-1.48,1.53-1.09c0.13,0.07,0.29,0.23,0.29,0.36c0,0.11-0.18,0.27-0.31,0.32
				c-0.45,0.16-0.9,0.29-1.36,0.42C115.4,107.88,115.35,107.86,115.3,107.86z"/>
			<path class="st14" d="M70.58,110.93c0.69-0.55,1.17-0.5,1.65,0.16C71.68,111.03,71.2,110.98,70.58,110.93z"/>
		</g>
		<path class="st14" d="M91.53,48.75c0.89,1.78,0.26,3.99-1.48,5.17c-1.69,1.15-4.04,0.85-5.4-0.69c-0.6-0.68-0.97-1.46-1.04-2.36
			c-0.01-0.15,0.16-0.44,0.29-0.47c2.5-0.58,5.01-1.13,7.52-1.68C91.46,48.71,91.5,48.74,91.53,48.75z"/>
		<path class="st14" d="M163.55,59.13c0.96,0,1.75,0.8,1.74,1.74c-0.01,0.94-0.83,1.74-1.77,1.73c-0.94-0.01-1.71-0.8-1.71-1.74
			C161.81,59.89,162.58,59.12,163.55,59.13z"/>
	</g>
</g>
<path class="st14" d="M53.36,45.86l9.79-0.69v-0.16l1.38,9.51c1.01-0.56,2.05-1.11,3.14-1.63c1.59-0.75,3.23-1.46,4.93-2.12L64.4,1
	L52.73,1.82L43.8,57.25l7.99-0.56L53.36,45.86z M58.13,10.99l0.16-0.01l3.84,26.82l-7.75,0.54L58.13,10.99z"/>
</svg>
