<?xml version="1.0" encoding="utf-8"?>
<!-- Generator: Adobe Illustrator 27.0.0, SVG Export Plug-In . SVG Version: 6.00 Build 0)  -->
<svg version="1.1" id="Layer_1" xmlns="http://www.w3.org/2000/svg" xmlns:xlink="http://www.w3.org/1999/xlink" x="0px" y="0px"
	 viewBox="0 0 294 143" style="enable-background:new 0 0 294 143;" xml:space="preserve">
<style type="text/css">
	.st0{fill:#FFEEDE;}
	.st1{fill:#FFFFFF;stroke:#000000;stroke-width:0.25;stroke-miterlimit:10;}
	.st2{fill:#FFC550;}
	.st3{opacity:0.41;}
	.st4{clip-path:url(#SVGID_00000019648188573578337670000018288344971130687420_);}
	.st5{opacity:0.73;clip-path:url(#SVGID_00000051359176343003666880000004000319151688822438_);}
	.st6{opacity:0.45;clip-path:url(#SVGID_00000051359176343003666880000004000319151688822438_);}
	.st7{clip-path:url(#SVGID_00000051359176343003666880000004000319151688822438_);fill:#FFEEDE;}
	.st8{clip-path:url(#SVGID_00000051359176343003666880000004000319151688822438_);fill:#F84143;}
	.st9{fill-rule:evenodd;clip-rule:evenodd;fill:#FFC550;}
	.st10{fill-rule:evenodd;clip-rule:evenodd;fill:#333333;}
	.st11{fill:none;}
	.st12{fill:#554BA0;}
	.st13{fill-rule:evenodd;clip-rule:evenodd;fill:#FFFFFF;}
	.st14{fill:#FFFFFF;}
	.st15{fill:#5E5E5E;}
	.st16{fill:#57758F;}
	.st17{fill:#F8C64F;}
	.st18{opacity:0.38;}
	.st19{fill-rule:evenodd;clip-rule:evenodd;fill:#FFEEDE;}
	.st20{opacity:0.19;}
	.st21{fill:#333333;}
	.st22{fill:#FF9522;}
	.st23{fill:#F84143;}
	.st24{clip-path:url(#SVGID_00000039840628759259243930000005756656310813426079_);}
	.st25{clip-path:url(#SVGID_00000126288777052983707460000018340600427609746567_);}
	.st26{opacity:0.73;}
	.st27{clip-path:url(#SVGID_00000126288777052983707460000018340600427609746567_);fill:#FFEEDE;}
	.st28{clip-path:url(#SVGID_00000126288777052983707460000018340600427609746567_);fill:#F84143;}
	.st29{opacity:0.75;}
	.st30{fill:url(#SVGID_00000051344092010304955380000007322845585189063555_);}
	.st31{fill:url(#SVGID_00000114773464501782003790000000128323636171566767_);}
	.st32{fill:url(#SVGID_00000159449855384484378180000015951393637601655987_);}
	.st33{fill:url(#SVGID_00000124156742154389777470000017467040508336667056_);}
	.st34{fill:url(#SVGID_00000049189281240645287280000017235481849086395800_);}
	.st35{fill:url(#SVGID_00000073683154675782403180000015386000652249713087_);}
	.st36{fill-rule:evenodd;clip-rule:evenodd;fill:#F84143;}
	.st37{fill-rule:evenodd;clip-rule:evenodd;fill:#231F20;}
	.st38{opacity:0.3;}
	.st39{opacity:0.51;}
	.st40{fill:#040213;}
	.st41{fill-rule:evenodd;clip-rule:evenodd;}
	.st42{clip-path:url(#SVGID_00000127743683030697319820000018141352425617816720_);}
	.st43{clip-path:url(#SVGID_00000071525633388523073880000001389500753653510578_);}
	.st44{clip-path:url(#SVGID_00000071525633388523073880000001389500753653510578_);fill:#FFEEDE;}
	.st45{clip-path:url(#SVGID_00000071525633388523073880000001389500753653510578_);fill:#F84143;}
	.st46{fill-rule:evenodd;clip-rule:evenodd;fill:#554BA0;}
	.st47{fill:#FFFEFF;}
	.st48{fill:#FF434D;}
	.st49{fill:#8FBD6D;}
	.st50{fill:#5D8AD1;}
	.st51{clip-path:url(#SVGID_00000080898369734144747360000004746044203167349174_);}
	.st52{opacity:0.73;clip-path:url(#SVGID_00000165943869604139474420000009964136056470615942_);}
	.st53{opacity:0.45;clip-path:url(#SVGID_00000165943869604139474420000009964136056470615942_);}
	.st54{clip-path:url(#SVGID_00000165943869604139474420000009964136056470615942_);fill:#FFEEDE;}
	.st55{clip-path:url(#SVGID_00000165943869604139474420000009964136056470615942_);fill:#F84143;}
	.st56{fill-rule:evenodd;clip-rule:evenodd;fill:#FF9522;}
</style>
<g>
	<path class="st14" d="M2.07,27.72l12.46-0.87c8.46-0.59,12.61,3.81,12.61,12.42v5.31c0,8.61-4.15,13.59-12.61,14.18l-4,0.28v21.91
		l-8.46,0.59V27.72z M14.52,51.07c2.69-0.19,4.15-1.52,4.15-5.36v-6.38c0-3.84-1.46-4.97-4.15-4.79l-4,0.28v16.53L14.52,51.07z"/>
	<path class="st14" d="M31.74,25.64l8.46-0.59v53.82l-8.46,0.59V25.64z"/>
	<path class="st14" d="M46.5,24.61l8.46-0.59v46.13l13.92-0.97v7.69L46.5,78.43V24.61z"/>
	<path class="st14" d="M71.49,63.92v-3.08l8-0.56v3.69c0,3.84,1.69,5.11,4.38,4.92c2.69-0.19,4.38-1.69,4.38-5.69
		c0-4.46-1.69-7.18-7.23-11.64c-7.07-5.73-9.38-9.95-9.38-16.11c0-8.46,4.38-13.68,12.61-14.26s12.3,4.06,12.3,12.67v2.23l-8,0.56
		v-2.77c0-3.84-1.54-5.2-4.23-5.01c-2.69,0.19-4.23,1.76-4.23,5.45c0,3.92,1.77,6.64,7.3,11.1c7.07,5.73,9.3,9.88,9.3,16.57
		c0,8.76-4.46,14-12.76,14.58C75.64,77.16,71.49,72.53,71.49,63.92z"/>
	<path class="st14" d="M101.55,20.76l23.07-1.61v7.69l-14.61,1.02v14.22l11.61-0.81v7.69l-11.61,0.81V66.3l14.61-1.02v7.69
		l-23.07,1.61V20.76z"/>
	<path class="st14" d="M129.46,18.81l10.61-0.74l8.23,31.64l0.15-0.01V17.48l7.54-0.53v53.82l-8.69,0.61L137.15,32.8L137,32.81V72.1
		l-7.54,0.53V18.81z"/>
	<path class="st14" d="M162.29,16.51l23.06-1.61v7.69l-14.61,1.02v14.22l11.61-0.81v7.69l-11.61,0.81v16.53l14.61-1.02v7.69
		l-23.06,1.61V16.51z"/>
	<path class="st14" d="M198.66,67.01V44.72l2.92-0.2c3.84-0.27,5.31,1.24,5.31,6.24v9.84c0,3.6,0.21,4.8,0.54,5.86
		c1.93-2.49,4.86-4.23,7.92-5.69c0-0.23,0-0.45,0-0.69v-9.46c0-0.01,0-0.01,0-0.02c-0.1,0-0.2,0.01-0.3,0.01
		c-0.84,0-1.75-0.08-2.69-0.24L209,48c2.34-0.52,4.3-1.55,5.77-2.9c-0.75-2.91-2.29-4.8-5.04-5.45v-0.15
		c2.98-1.43,4.69-4.03,5.28-7.8c-0.81-0.13-1.6-0.36-2.35-0.72L208,28l5.28-0.49c0.77-0.07,1.42-0.2,1.99-0.37v-1.96
		c0-8.3-3.77-12.12-12.53-11.5l-12.53,0.88v53.82l3.54-0.25C195.32,67.5,196.98,67.11,198.66,67.01z M198.66,21.66l3.84-0.27
		c3-0.21,4.3,1.39,4.3,5.24v4.15c0,4.31-1.92,5.82-5.07,6.04l-3.08,0.21V21.66z"/>
	<path id="XMLID_00000134947018420653334150000000159110377547155106_" class="st14" d="M285.59,36.58c-7.88-4.9-7.3-7.24-10.37-6.1
		c-1.13,0.42-2.13,1.12-2.95,1.99c-1.5,1.6-4.36,4.44-6.2,5.09c-0.33,0.12-0.7-0.04-0.82-0.37c-2.63-6.91-11.64-11.66-8.78-18.73
		c3.55,3.86,8.12,1.63,12.34,1.82c0.56,0.03,1.07,0.31,1.38,0.78c1.63,2.45,2.85,1.13,5.53-0.88c0.29-0.22,0.46-0.56,0.45-0.92
		c-0.14-4.94-3.72-3.31-7.97-8.77c-1.78-2.7-2.9-4.55-5.14-5.47c0,0,2.24-0.26,2.11-3.89c-7.22,0.73-3.64,3.29-7.84,2.28
		c-1.22-0.29-2.46-0.53-3.72-0.65c-6.74-0.64-11.04,1.13-16.44,1.01c0,0,0.92,0.88,2.91,1.34c-1.36,0.84-4.33,1.56-7.29,0.08
		c0,0,2.01,3.16,5.2,2.44c0,0-2.99,5.69-10.52,3.44c0,0,1.87,1.73,5.03,2.14c-14.32,5.92-8.93,15.14-19.05,16.11
		c4.32,2.05,8.33-1.33,11.13-1.65c-10.04,7.71,0.25,18.17-11.94,20.91c12.89,2.14,9.85-12.67,17.08-12.19
		c-5.34,6.45-1.88,13.66-8.52,15.11c7.75,0.39,7.87-9.81,12.22-10.42c-7.21,9.52-3.69,13.17-11.49,15.47
		c3.66,1.69,6.95-1.41,9.23-4.74c-2.5,9.5-22.1,8.89-24.04,19.62c-7.74-5.95-18.44-1.16-21.91,7.88c0,0,5.3-5.4,11.7-5.09
		c-8.19,2.72-14.88,6.4-14.8,16.61c0,0,0.95-5.03,3.9-7.51c-8.71,17.84,17.43,27.88-6.28,43.84c36.91-11.67,15.1-27.7,20.28-36.47
		c-2.03,0.45-4.84,6.89-3.54,15.56c0,0-4.64-14.83,6.24-20.45c0,0-6.52,0.35-10.43,6.79c0,0,4.12-10.68,13.61-7.26
		c0.62,0.22,1.13,0.67,1.42,1.25c1.7,3.39,3.98,5.46,5.9,7.16c1.23,1.09,1.82,2.76,1.47,4.37c-2.14,10.04-12.46,11.29-7.36,18.74
		c5.14,5.96,7.58,15.25,7.38,17.95c0.68,3.1,5.99-0.33-0.59,7.25h11.79c-7.93-20.12-20.1-31.5-1.07-37.65
		c1.09-2.66-0.59-4.02-0.11-7.6c0.54,5.87,1.99,4.73,0.35,7.96c-0.49,3.3-4.54,11.22-2.72,14.24c1.71,4.74,9.42,8.23,9.49,16.47
		c0.13,2.04,5.2,0.4-0.4,6.72h11.73c0.4-5.27-16.07-16.07-11.86-29.64c4.28-11.96,8.09-12.38,5.61-22.32
		c-0.39-1.56-0.29-3.21,0.29-4.71c2.42-6.23,7.11-6.86,18.27-14.46c1.33-0.9,2.95-1.32,4.54-1.1c0.02,0,0.03,0,0.05,0.01
		c1.04,0.14,2.07-0.35,2.65-1.22c6.5-9.84,11.25-19.77,14.63-13.03c0.83,1.66,1.18,3.53,1.1,5.38c-0.08,1.85-0.65,2.79-4.43,2.5
		c-2.07,0.04,0.56,7.28,2.11,9.65c0.24,0.37,0.74,0.44,1.08,0.17c4.9-3.98,5.25-4.76,6.64-14.39c0.1-0.72-0.01-1.45-0.34-2.09
		c-1.09-2.13-2.74-4.85-3.65-9.7c-0.17-0.89-0.77-1.64-1.59-2.02c-5.2-2.4-8.72,4.85-13.69,8.97c5.55-6.09,4.48-5.93,10.87-16.53
		c1.45-1.96,9.5,2.68,9.9,5.2c0.49,2.87-6.59,2.48,4.17,6.71c0.43,0.17,0.93,0,1.15-0.41C291.85,46.92,290.19,40.08,285.59,36.58z
		 M265.99,11.24c0.21,0.43-0.39,0.53-0.96,0.54c-0.5,0.01-0.96-0.29-1.16-0.74L262.94,9C262.94,9,265.87,11,265.99,11.24z"/>
</g>
</svg>
