<?xml version="1.0" encoding="utf-8"?>
<!-- Generator: Adobe Illustrator 27.0.0, SVG Export Plug-In . SVG Version: 6.00 Build 0)  -->
<svg version="1.1" id="Layer_1" xmlns="http://www.w3.org/2000/svg" xmlns:xlink="http://www.w3.org/1999/xlink" x="0px" y="0px"
	 viewBox="0 0 181 154" style="enable-background:new 0 0 181 154;" xml:space="preserve">
<style type="text/css">
	.st0{fill:#FFFFFF;stroke:#000000;stroke-width:0.25;stroke-miterlimit:10;}
	.st1{fill:#554BA0;}
	.st2{fill-rule:evenodd;clip-rule:evenodd;fill:#FFFFFF;}
	.st3{fill:#FFFFFF;}
	.st4{fill:#5E5E5E;}
	.st5{fill:none;}
	.st6{fill:#57758F;}
	.st7{fill:#F8C64F;}
	.st8{fill:#FFEEDE;}
	.st9{fill:#333333;}
	.st10{fill-rule:evenodd;clip-rule:evenodd;fill:#FFEEDE;}
	.st11{fill:#FFC550;}
	.st12{fill:#FF9522;}
	.st13{opacity:0.41;}
	.st14{clip-path:url(#SVGID_00000015334876083045252590000003875790136123040175_);}
	.st15{clip-path:url(#SVGID_00000055689016586043427390000002765694519398383530_);}
	.st16{opacity:0.73;}
	.st17{opacity:0.75;}
	.st18{fill:#FFFFFF;stroke:#000000;stroke-miterlimit:10;}
	.st19{fill:url(#SVGID_00000114765516524666099820000003553275795652732078_);}
	.st20{fill:url(#SVGID_00000170236841319461547600000015667696960859518645_);}
	.st21{fill:url(#SVGID_00000183246524971441710520000011106328640208035475_);}
	.st22{opacity:0.3;}
	.st23{opacity:0.51;}
	.st24{fill:none;stroke:#000000;stroke-miterlimit:10;}
	.st25{fill:#F84143;}
	.st26{clip-path:url(#SVGID_00000019656704420994777400000018409661687202280579_);}
	.st27{clip-path:url(#SVGID_00000154416320423113210710000008439420839795231414_);}
	.st28{clip-path:url(#SVGID_00000154416320423113210710000008439420839795231414_);fill:#FFEEDE;}
	.st29{clip-path:url(#SVGID_00000154416320423113210710000008439420839795231414_);fill:#F84143;}
	.st30{fill:url(#SVGID_00000171678393538234012810000011549687308591527314_);}
	.st31{fill:url(#SVGID_00000088098109348534428370000013716187588346953094_);}
	.st32{fill:url(#SVGID_00000173162924616080201850000012113007716294177970_);}
	.st33{fill-rule:evenodd;clip-rule:evenodd;fill:#F84143;}
	.st34{fill-rule:evenodd;clip-rule:evenodd;fill:#231F20;}
	.st35{fill:#040213;}
	.st36{fill-rule:evenodd;clip-rule:evenodd;}
	.st37{clip-path:url(#SVGID_00000005982070054373999240000005983723605576938641_);}
	.st38{clip-path:url(#SVGID_00000030473116614962514940000000535289094388262532_);}
	.st39{clip-path:url(#SVGID_00000030473116614962514940000000535289094388262532_);fill:#FFEEDE;}
	.st40{clip-path:url(#SVGID_00000030473116614962514940000000535289094388262532_);fill:#F84143;}
	.st41{fill-rule:evenodd;clip-rule:evenodd;fill:#554BA0;}
	.st42{fill:#FFFEFF;}
	.st43{fill:#FF434D;}
	.st44{fill:#8FBD6D;}
	.st45{fill:#5D8AD1;}
	.st46{clip-path:url(#SVGID_00000183951420438841578160000013278742706545453958_);}
	.st47{opacity:0.73;clip-path:url(#SVGID_00000078020943267205239110000011740542998168607360_);}
	.st48{opacity:0.45;clip-path:url(#SVGID_00000078020943267205239110000011740542998168607360_);}
	.st49{clip-path:url(#SVGID_00000078020943267205239110000011740542998168607360_);fill:#FFEEDE;}
	.st50{clip-path:url(#SVGID_00000078020943267205239110000011740542998168607360_);fill:#F84143;}
	.st51{fill-rule:evenodd;clip-rule:evenodd;fill:#FF9522;}
	.st52{fill-rule:evenodd;clip-rule:evenodd;fill:#333333;}
	.st53{opacity:0.38;}
	.st54{clip-path:url(#SVGID_00000053522059587241045960000011063240521014489769_);}
	.st55{opacity:0.73;clip-path:url(#SVGID_00000149378260097288905740000015771265187921264311_);}
	.st56{opacity:0.45;clip-path:url(#SVGID_00000149378260097288905740000015771265187921264311_);}
	.st57{clip-path:url(#SVGID_00000149378260097288905740000015771265187921264311_);fill:#FFEEDE;}
	.st58{clip-path:url(#SVGID_00000149378260097288905740000015771265187921264311_);fill:#F84143;}
	.st59{fill-rule:evenodd;clip-rule:evenodd;fill:#FFC550;}
	.st60{opacity:0.19;}
	.st61{clip-path:url(#SVGID_00000141451854710671450720000008244326539709906579_);}
	.st62{clip-path:url(#SVGID_00000042735987832867527040000014939607418399292860_);}
	.st63{clip-path:url(#SVGID_00000042735987832867527040000014939607418399292860_);fill:#FFEEDE;}
	.st64{clip-path:url(#SVGID_00000042735987832867527040000014939607418399292860_);fill:#F84143;}
	.st65{clip-path:url(#SVGID_00000113330901072666202970000011210664415750699662_);}
	.st66{opacity:0.73;clip-path:url(#SVGID_00000115482670724079474920000003114058530864803765_);}
	.st67{opacity:0.45;clip-path:url(#SVGID_00000115482670724079474920000003114058530864803765_);}
	.st68{clip-path:url(#SVGID_00000115482670724079474920000003114058530864803765_);fill:#FFEEDE;}
	.st69{clip-path:url(#SVGID_00000115482670724079474920000003114058530864803765_);fill:#F84143;}
	.st70{fill:#5B5B5B;}
	.st71{clip-path:url(#SVGID_00000129165645611505733250000005238447209832214927_);}
	.st72{opacity:0.73;clip-path:url(#SVGID_00000087378327155787248900000012759626539459483828_);}
	.st73{opacity:0.45;clip-path:url(#SVGID_00000087378327155787248900000012759626539459483828_);}
	.st74{clip-path:url(#SVGID_00000087378327155787248900000012759626539459483828_);fill:#FFEEDE;}
	.st75{clip-path:url(#SVGID_00000087378327155787248900000012759626539459483828_);fill:#F84143;}
	.st76{clip-path:url(#SVGID_00000157294539275993383540000001655190123376505238_);}
	.st77{opacity:0.73;clip-path:url(#SVGID_00000017516969340945290170000001613590855136704413_);}
	.st78{opacity:0.45;clip-path:url(#SVGID_00000017516969340945290170000001613590855136704413_);}
	.st79{clip-path:url(#SVGID_00000017516969340945290170000001613590855136704413_);fill:#FFEEDE;}
	.st80{clip-path:url(#SVGID_00000017516969340945290170000001613590855136704413_);fill:#F84143;}
	.st81{clip-path:url(#SVGID_00000039843549744592287570000002481314206923911349_);}
	.st82{opacity:0.73;clip-path:url(#SVGID_00000150061390086938122910000007091860031752456627_);}
	.st83{opacity:0.45;clip-path:url(#SVGID_00000150061390086938122910000007091860031752456627_);}
	.st84{clip-path:url(#SVGID_00000150061390086938122910000007091860031752456627_);fill:#FFEEDE;}
	.st85{clip-path:url(#SVGID_00000150061390086938122910000007091860031752456627_);fill:#F84143;}
	.st86{fill-rule:evenodd;clip-rule:evenodd;fill:#5D8AD1;}
	.st87{clip-path:url(#SVGID_00000057113631020008407140000013079111064435318942_);}
	.st88{opacity:0.73;clip-path:url(#SVGID_00000172429827539314721600000002544531654016315267_);}
	.st89{opacity:0.45;clip-path:url(#SVGID_00000172429827539314721600000002544531654016315267_);}
	.st90{clip-path:url(#SVGID_00000172429827539314721600000002544531654016315267_);fill:#FFEEDE;}
	.st91{clip-path:url(#SVGID_00000172429827539314721600000002544531654016315267_);fill:#F84143;}
	.st92{clip-path:url(#SVGID_00000153688017027174962990000005632218405951978141_);}
	.st93{opacity:0.73;clip-path:url(#SVGID_00000060022676517176252880000008617805998810219170_);}
	.st94{opacity:0.45;clip-path:url(#SVGID_00000060022676517176252880000008617805998810219170_);}
	.st95{clip-path:url(#SVGID_00000060022676517176252880000008617805998810219170_);fill:#FFEEDE;}
	.st96{clip-path:url(#SVGID_00000060022676517176252880000008617805998810219170_);fill:#F84143;}
	.st97{clip-path:url(#SVGID_00000129890406841699449970000003883041024872477576_);}
	.st98{opacity:0.73;clip-path:url(#SVGID_00000059996598591857671370000010372833211752164531_);}
	.st99{opacity:0.45;clip-path:url(#SVGID_00000059996598591857671370000010372833211752164531_);}
	.st100{clip-path:url(#SVGID_00000059996598591857671370000010372833211752164531_);fill:#FFEEDE;}
	.st101{clip-path:url(#SVGID_00000059996598591857671370000010372833211752164531_);fill:#F84143;}
	.st102{fill-rule:evenodd;clip-rule:evenodd;fill:#8FBD6D;}
	.st103{clip-path:url(#SVGID_00000072967573749428733530000003997678995915757996_);}
	.st104{opacity:0.73;clip-path:url(#SVGID_00000176031236387578363700000010603701979874367158_);}
	.st105{opacity:0.45;clip-path:url(#SVGID_00000176031236387578363700000010603701979874367158_);}
	.st106{clip-path:url(#SVGID_00000176031236387578363700000010603701979874367158_);fill:#FFEEDE;}
	.st107{clip-path:url(#SVGID_00000176031236387578363700000010603701979874367158_);fill:#F84143;}
	.st108{fill-rule:evenodd;clip-rule:evenodd;fill:#5B5B5B;}
</style>
<g>
	<path class="st3" d="M81.42,3.58l10.94-0.77c7.43-0.52,11.08,3.34,11.08,10.91v4.66c0,7.56-3.65,11.94-11.08,12.46l-3.51,0.25
		v19.25l-7.43,0.52V3.58z M92.36,24.09c2.36-0.17,3.65-1.34,3.65-4.71v-5.61c0-3.38-1.28-4.37-3.65-4.2l-3.51,0.25v14.52
		L92.36,24.09z"/>
	<path class="st3" d="M58.26,51.44c0.28,0.33,0.54,0.65,0.81,0.98l0.2-0.01l1.35-9.35l8.44-0.59v-0.14l1.35,9.29l7.43-0.52
		l-7.7-46.74l-10.06,0.7l-6.56,40.76C54.84,47.4,56.4,49.24,58.26,51.44z M64.73,12.98l0.14-0.01l3.31,23.14l-6.69,0.47L64.73,12.98
		z"/>
	<path class="st3" d="M143.28,78c16.23-6.07,24.38-9.1,24.45-9.1c8.32-4.71,12.03-11.56,11.15-20.56
		c-1.57,0.68-7.94,4.23-19.13,10.64c-7.84,4.44-14.42,7.26-19.74,8.49c1.91-1.5,5.59-3.89,11.05-7.16c5.18-3,9-5.56,11.46-7.67
		c8.05-6.75,10.88-15.24,8.49-25.47c-2.59,2.05-8.56,7.57-17.9,16.57c-7.3,7.02-13.43,11.87-18.41,14.53
		c0.34-0.34,3.65-3.79,9.92-10.33c4.84-4.91,8.52-9.17,11.05-12.78c7.84-11.12,8.35-20.36,1.53-27.72
		c-2.86,6.21-16.95,26.43-42.24,60.66c4.7,0.68,8.32,2.76,10.84,6.24c2.18,3.07,3.14,6.72,2.86,10.95c-0.27,4.09-1.7,7.57-4.3,10.43
		c-2.8,3.07-6.38,4.64-10.74,4.71c-4.02,0.07-7.36-1.19-10.02-3.79c-2.59-2.45-4.3-5.8-5.11-10.02h6.55
		c-0.27-3.61-2.45-5.93-6.55-6.96c-1.3-0.27-5.49-0.61-12.58-1.02c-3.48,8.94-5.56,13.95-6.24,15.04c-3,4.77-7.3,7.02-12.89,6.75
		c-4.3-0.2-7.81-1.91-10.53-5.11c-2.45-3-3.75-6.55-3.89-10.64c-0.21-4.23,0.85-7.81,3.17-10.74c2.45-3.2,6-4.91,10.64-5.11
		c-2.32-4.36-5.86-9.38-10.64-15.04c-7.16-8.46-11.08-13.13-11.76-14.01c-5.18-6.88-11.8-17.66-19.84-32.32
		c-6.96,7.57-6.38,16.91,1.74,28.03c2.11,2.93,5.76,7.13,10.95,12.58c4.5,4.84,7.3,8.25,8.39,10.23
		c-4.77-3.41-10.67-8.49-17.7-15.24c-8.39-7.98-14.12-13.26-17.18-15.85c-2.73,9.68,0.07,18.07,8.39,25.16
		c2.39,2.05,6.24,4.77,11.56,8.18c5.32,3.34,9,5.86,11.05,7.57C35.36,66.1,28.68,63,21.04,58.77C9.79,52.5,3.48,49.02,2.12,48.34
		C1.23,57.68,5.36,64.71,14.5,69.41c2.73,1.43,6.96,3.14,12.68,5.11c6,2.05,10.19,3.65,12.58,4.81c-13.71-2.32-25.57-5.18-35.6-8.59
		c-0.61,7.5,3.14,12.72,11.25,15.65c3.68,1.36,11.8,2.73,24.34,4.09c-8.25,1.3-18.38,1.54-30.38,0.72
		c0.68,6.75,5.32,10.67,13.91,11.76c5.11,0.68,12.34,0.27,21.69-1.23c-7.09,2.45-14.32,4.43-21.69,5.93
		c0.88,5.32,5.25,7.67,13.09,7.06c3.68-0.27,8.97-1.53,15.85-3.79c-0.95,0.75-3.51,2.05-7.67,3.89c-3.34,1.43-5.63,3-6.85,4.71
		c2.25,2.86,6.14,3.92,11.66,3.17c3.82-0.55,7.87-1.81,12.17-3.79c-0.34,0.82-1.43,1.7-3.27,2.66c-1.64,0.89-2.52,1.98-2.66,3.27
		c3.48,3.34,9.85,2.9,19.13-1.33c-1.23,2.32-3.1,5.52-5.62,9.62c-2.66,4.23-4.54,7.4-5.63,9.51c2.52,1.3,5.32,1.09,8.39-0.61
		c0.68-0.34,1.74-1.02,3.17-2.05c1.09-0.75,1.84-1.19,2.25-1.33c-3.07,9-4.6,13.4-4.6,13.19c3.41,0.34,6.21-0.61,8.39-2.86
		c0.61-0.68,1.4-1.74,2.35-3.17c1.02-1.5,1.84-2.56,2.45-3.17c-0.07,5.12,0.17,8.63,0.71,10.54h7.88c0.47-0.61,0.68-2.39,0.61-5.32
		c-0.14-2.66,0.31-4.2,1.33-4.6c2.45,5.94,6.41,8.8,11.87,8.59c-0.34-2.05-1.02-4.4-2.05-7.06c-1.43-3.68-2.28-5.93-2.56-6.75
		c2.45,2.11,4.4,3.51,5.83,4.19c2.73,1.3,5.42,1.43,8.08,0.41c-1.03-2.38-2.9-5.69-5.63-9.92c-2.73-4.09-4.6-7.4-5.62-9.92
		c2.52,2.12,5.59,3.48,9.21,4.09c4.09,0.68,7.4,0,9.92-2.05c0-1.16-1.02-2.28-3.07-3.37c-1.84-1.02-2.59-1.88-2.25-2.56
		c3.55,2.05,7.57,3.34,12.07,3.89c5.8,0.75,9.48-0.54,11.05-3.89c-1.23-1.29-3.65-2.73-7.26-4.3c-3.62-1.5-6.04-2.93-7.26-4.3
		c4.91,2.73,10.33,4.23,16.27,4.5c7.5,0.41,11.76-1.98,12.78-7.16c-11.8-2.79-19.06-4.98-21.79-6.55c8.32,2.18,15.68,2.8,22.09,1.84
		c8.18-1.23,12.68-5.15,13.5-11.76c-15.96,0.55-26.05,0.1-30.28-1.33c11.39-0.41,19.6-1.57,24.65-3.48
		c7.84-2.93,11.49-8.15,10.95-15.65C158.58,75.72,147.37,78.14,143.28,78z M96.34,113.84l1.38,8.04l-7.22-3.8l-7.22,3.8l1.38-8.04
		l-5.84-5.69l8.07-1.17l3.61-7.31l3.61,7.31l8.07,1.17L96.34,113.84z"/>
	<path class="st3" d="M111.4,39.5l8.44-0.59v-0.14l1.35,9.29l4.19-0.29c0.91-1.26,1.8-2.48,2.67-3.68l-7.13-43.28l-10.06,0.7
		l-7.7,47.82l6.89-0.48L111.4,39.5z M115.52,9.43l0.13-0.01l3.31,23.14l-6.69,0.47L115.52,9.43z"/>
</g>
</svg>
